<?xml version="1.0" encoding="UTF-8" standalone="no"?>
<svg
   xmlns:dc="http://purl.org/dc/elements/1.1/"
   xmlns:cc="http://creativecommons.org/ns#"
   xmlns:rdf="http://www.w3.org/1999/02/22-rdf-syntax-ns#"
   xmlns:svg="http://www.w3.org/2000/svg"
   xmlns="http://www.w3.org/2000/svg"
   xmlns:xlink="http://www.w3.org/1999/xlink"
   xmlns:sodipodi="http://sodipodi.sourceforge.net/DTD/sodipodi-0.dtd"
   xmlns:inkscape="http://www.inkscape.org/namespaces/inkscape"
   version="1.1"
   id="svg869"
   width="100%"
   height="100%"
   viewBox="0 0 3018.4225 1349.1672"
   sodipodi:docname="map-kb-voltaire-f4.svg"
   inkscape:version="1.0.1 (3bc2e813f5, 2020-09-07)">
  <metadata
     id="metadata875">
    <rdf:RDF>
      <cc:Work
         rdf:about="">
        <dc:format>image/svg+xml</dc:format>
        <dc:type
           rdf:resource="http://purl.org/dc/dcmitype/StillImage" />
        <dc:title />
      </cc:Work>
    </rdf:RDF>
  </metadata>
  <defs
     id="defs873">
    <clipPath
       id="clip0-2">
      <rect
         y="0"
         x="0"
         id="rect3978-0"
         height="615"
         width="613" />
    </clipPath>
    <clipPath
       id="clip0-2-2">
      <rect
         y="0"
         x="0"
         id="rect3978-0-7"
         height="615"
         width="613" />
    </clipPath>
  </defs>
  <sodipodi:namedview
     pagecolor="#ffffff"
     bordercolor="#666666"
     borderopacity="1"
     objecttolerance="10"
     gridtolerance="10"
     guidetolerance="10"
     inkscape:pageopacity="0"
     inkscape:pageshadow="2"
     inkscape:window-width="1904"
     inkscape:window-height="1041"
     id="namedview871"
     showgrid="false"
     inkscape:zoom="0.44718908"
     inkscape:cx="937.88022"
     inkscape:cy="636.31826"
     inkscape:window-x="0"
     inkscape:window-y="0"
     inkscape:window-maximized="0"
     inkscape:current-layer="svg869"
     fit-margin-top="0"
     fit-margin-left="0"
     fit-margin-right="0"
     fit-margin-bottom="0"
     inkscape:document-rotation="0" />
  <path
     id="path930"
     style="fill:none;fill-rule:evenodd;stroke:#000000;stroke-width:6;stroke-linecap:butt;stroke-linejoin:miter;stroke-miterlimit:4;stroke-dasharray:none;stroke-opacity:1"
     d="m 940.869,594.98713 h 242.9062 m 901.4644,0 H 1843.731 M 402.2594,1198.8937 v 50.4587 l 88.0844,12 v 84.4162 l -95.9438,-12 H 261.9057 V 1187.2981 M 2084.6834,509.4794 V 426.465 M 124.939,709.87142 H 94.191402 m -65.408602,0 H 4.1847 M 503.4579,686.57663 V 603.5623 h -15.2193 m -53.1687,0 h -14.6264 m 654.3174,-330.3071 v 21.9681 m 0,82.2238 v 23.5505 H 938.9124 V 272.9757 h 98.9514 m 194.8281,95.0381 h 104.5419 m -104.2624,-81.0619 h 103.7034 M 1222.629,213.9962 h 114.3253 m -114.0388,58.2994 V 261.227 m 0,-35.9729 v -23.7184 m 0,-38.74 V 94.407702 m 113.8482,10.277998 v 305.1765 h -103.5703 v -59.6913 m 0,-47.4368 v -29.6479 h -30.8339 m -63.6443,0 H 1037.9121 V 83.339102 M 419.6529,685.78602 V 190.5162 m 0,-70.7196 V 35.111702 M 125.545,817.81835 V 686.57663 h 128.8135 m 74.3534,0 H 785.7066 V 493.52 m 0,-72.1172 V 66.736202 M 263.1116,1189.4063 220.836,987.0875 M 205.757,914.92357 185.6315,818.60896 H 2.2094 m 1316.3702,-7.11551 h -204.3734 m -71.1551,0 H 706.9076 m -75.4714,0 H 402.2594 V 994.5203 m 0,71.9458 v 132.4276 M 1319.8635,938.7821 V 784.61262 m 0,-84.99088 V 677.87989 H 941.4573 V 508.6888 h 381.866 m 453.0211,-371.588 v 47.2658 m 0,82.7391 v 145.3524 m 0,79.3847 v 17.6366 m -73.9368,429.3027 V 677.08928 h 382.2758 V 509.4794 H 1702.0268 M 287.8612,1190.6454 3,1177.5471 V 3.2352014 L 3014.6563,230.7676 l -54.6218,220.2648 -0.01,862.5668 -1257.6189,-57.8627 V 938.7821 h -382.5441 l 0.01,299.3164 -942.5101,-43.3377 M 1279.049,677.48459 v -32.4627 m 0,-98.39239 V 507.8982 M 938.2949,349.7756 h -29.5711 m -88.05,0 H 784.916 m 182.03855,50.9945 v 23.7075 m 0,65.129 v 18.6869 m 774.99815,168.40048 v -33.34923 m 0,-95.59715 v -39.0588"
     inkscape:connector-curvature="0" />
  <path
     id="path969"
     style="fill:none;fill-rule:evenodd;stroke:#000000;stroke-width:1;stroke-linecap:butt;stroke-linejoin:miter;stroke-miterlimit:4;stroke-dasharray:none;stroke-opacity:1"
     d="m 419.41733,114.55586 v 80.24719 M 1776.0862,270.81231 V 179.1285 m 0,315.58239 v -86.09334 m -33.8223,238.43382 V 544.46613 M 966.86475,494.43137 v -74.91239 m -180.80076,-1.36783 v 78.46832 m 31.03155,-146.46101 h 93.88526 m 312.2073,-128.54234 v 43.60572 M 1222.07,157.60517 v 48.35762 m 11.4605,91.96333 v 57.58191 m -100.349,-82.45953 h 75.7509 m 110.6915,422.91954 v 93.92 M 1278.8134,542.50946 V 652.64185 M 1039.541,811.41137 h 79.5245 m -494.08886,0.46493 h 85.78148 m -505.73554,100.30341 16.49191,77.84739 m 180.43262,0 v 81.6209 m -118.11987,118.9318 98.03598,4.7437 M 250.16568,686.74375 h 83.57762"
     inkscape:connector-curvature="0"
     sodipodi:nodetypes="cccccccccccccccccccccccccccccccccccccc" />
  <a
     xlink:href="map-kb-voltaire-f5.svg"
     transform="matrix(1.1342879,0,0,1.1342879,-22.445756,703.93387)"
     id="a4249">
    <g
       transform="matrix(0.24285714,0,0,0.24285714,857.62797,-372.49912)"
       id="g4077">
      <rect
         style="fill:#ffffff;fill-opacity:1;fill-rule:evenodd;stroke:#000000;stroke-width:12.5;stroke-miterlimit:4;stroke-dasharray:none;stroke-opacity:1"
         id="rectBordo"
         width="387.5"
         height="387.5"
         x="6.3000002"
         y="6.3000002"
         rx="50"
         ry="50" />
      <rect
         style="fill:none;stroke:#000000;stroke-width:12.5;stroke-miterlimit:4;stroke-dasharray:none;stroke-opacity:1"
         id="rectAscensore"
         width="320"
         height="235"
         x="40"
         y="125" />
      <g
         id="gUomini">
        <path
           inkscape:connector-curvature="0"
           style="fill:#000000;fill-opacity:1;fill-rule:evenodd;stroke:none"
           d="m 200,156 c -8.3,0 -15,6.7 -15,15 0,8.3 6.7,15 15,15 8.3,0 15,-6.7 15,-15 0,-8.3 -6.7,-15 -15,-15 z m -20.7,33 c -5.7,0 -10.3,4.5 -10.3,10 v 60 c 0,5.5 4.3,10 10,10 v 77 c 0,4.4 3.6,8 8,8 4.4,0 8,-3.6 8,-8 v -77 h 10 c 0,0 0,77 0,77 0,4.4 3.6,8 8,8 4.4,0 8,-3.6 8,-8 v -77 c 5.7,0 10,-4.5 10,-10 v -60 c 0,-5.5 -4.6,-10 -10.3,-10 z"
           id="pathUomo"
           sodipodi:nodetypes="csssscccccsccccscccccc" />
        <use
           height="400"
           width="400"
           id="useUomo2"
           xlink:href="#pathUomo"
           y="0"
           x="-90" />
        <use
           height="400"
           width="400"
           id="useUomo3"
           xlink:href="#pathUomo"
           y="0"
           x="90" />
      </g>
      <path
         inkscape:connector-curvature="0"
         style="fill:#000000;fill-opacity:1;fill-rule:evenodd;stroke:none"
         d="m 96,63 29,-38 29,38 h -19 v 42 H 115 V 63 Z"
         id="pathFrecciaSu"
         sodipodi:nodetypes="cccccccc" />
      <use
         x="150"
         y="-134"
         xlink:href="#pathFrecciaSu"
         id="useFrecciaGiu"
         transform="scale(1,-1)"
         width="400"
         height="400" />
    </g>
  </a>
  <a
     xlink:href="map-kb-voltaire-f3.svg"
     transform="matrix(1.0462513,0,0,1.0462513,-511.9868,1405.2597)"
     id="a4287">
    <g
       transform="matrix(0.10782306,0,0,0.10782306,880.78769,-135.61239)"
       id="g1316-6-3-7">
      <path
         inkscape:connector-curvature="0"
         sodipodi:nodetypes="cccccc"
         style="fill:#fdfdfd"
         d="M 62.40424,310.33656 465.34714,42.54834 578.96135,151.48943 564.70342,480.90306 54.046553,504.37433 Z"
         id="path1312-4-9-2" />
      <path
         inkscape:connector-curvature="0"
         style="fill:#000000"
         d="M 62.038282,591.97784 C 42.402514,586.83359 30.523496,574.94077 25.103349,555 c -1.666029,-6.12934 -1.76678,-20.15756 -1.76678,-246 0,-226.296256 0.09805,-239.882347 1.778603,-246.435382 5.475058,-21.349139 18.692691,-34.471825 39.823475,-39.537408 8.294498,-1.988401 11.310529,-2.013066 244.897923,-2.002836 261.24259,0.01144 243.63479,-0.428185 257.57555,6.431071 12.85097,6.32305 21.67778,17.977043 26.16425,34.544559 1.65731,6.120091 1.7602,20.527402 1.7602,246.499996 0,224.5541 -0.1117,240.43442 -1.73561,246.75002 -3.94138,15.32848 -12.71072,26.75866 -25.0462,32.64584 -13.54197,6.46299 3.2459,6.07311 -259.71819,6.03171 C 76.286074,593.89097 69.124797,593.8344 62.038282,591.97784 Z M 197.83657,439 l 0.5,-40.5 39.73867,-0.26146 39.73866,-0.26147 0.26133,-40.23853 0.26134,-40.23854 39.44826,-0.26179 c 30.03221,-0.1993 39.63599,-0.55734 40.23469,-1.5 0.43253,-0.68101 0.79332,-18.90071 0.80174,-40.48821 l 0.0153,-39.25 h 38.87756 c 31.24771,0 39.09549,-0.26261 39.9881,-1.33813 0.76179,-0.91791 1.19279,-13.55785 1.37244,-40.25 l 0.2619,-38.91187 39,-0.5 39,-0.5 v -20 -20 l -58.5,-0.26079 c -54.10883,-0.24122 -58.59383,-0.13305 -59.75,1.44113 -0.94863,1.29159 -1.25,10.93805 -1.25,40.01079 V 194 h -38.94098 c -30.05465,0 -39.1256,0.28525 -39.75,1.25 -0.44496,0.6875 -1.03403,18.8 -1.30902,40.25 l -0.5,39 -39.75,0.26147 c -21.8625,0.14382 -39.84971,0.36882 -39.97156,0.5 -0.12185,0.13119 -0.45935,18.46353 -0.75,40.73853 l -0.52844,40.5 -39,0.5 -39,0.5 -0.5,40 -0.5,40 -39.50001,0.5 -39.499991,0.5 -0.272365,19.47053 c -0.149801,10.70879 -0.05005,20.04986 0.221663,20.75794 0.396742,1.03389 12.16732,1.23662 59.772363,1.02947 l 59.27834,-0.25794 0.5,-40.5 z m 224.71693,37.33004 c 9.81916,-4.6595 10.48563,-20.57807 1.10109,-26.29963 -3.01742,-1.83966 -5.01136,-2.02327 -22.009,-2.02667 -12.57694,-0.003 -18.91467,-0.36567 -19.3748,-1.11018 -0.39923,-0.64596 13.89884,-15.73269 34.35503,-36.25 39.18121,-39.29829 39.15526,-39.26342 35.78733,-48.08221 -3.01512,-7.89498 -9.84711,-11.65705 -18.32658,-10.09163 -3.25687,0.60126 -8.35668,5.2842 -38.78136,35.61129 C 376.03795,407.28645 359.72545,423 359.05521,423 c -0.91314,0 -1.21864,-4.52061 -1.21864,-18.03212 0,-20.12595 -0.67685,-23.17746 -5.9782,-26.95236 -7.0166,-4.99626 -18.24336,-2.89806 -22.54364,4.21324 -1.88115,3.11081 -1.97816,5.18392 -1.97816,42.27124 0,21.45 0.33737,40.20282 0.7497,41.67293 1.04242,3.71655 5.56236,8.83571 9.20072,10.42047 2.35984,1.02789 11.94923,1.33717 42.39844,1.36746 34.73793,0.0345 39.76126,-0.15655 42.86807,-1.63082 z"
         id="path1310-9-8-7" />
    </g>
  </a>
  <a
     xlink:href="map-kb-voltaire-f3.svg"
     transform="matrix(1.0779257,0,0,1.0779257,5.4050424,746.49946)"
     id="a4287-3">
    <g
       transform="matrix(0.10782306,0,0,0.10782306,880.78769,-135.61239)"
       id="g1316-6-3-7-6">
      <path
         inkscape:connector-curvature="0"
         sodipodi:nodetypes="cccccc"
         style="fill:#fdfdfd"
         d="M 62.40424,310.33656 465.34714,42.54834 578.96135,151.48943 564.70342,480.90306 54.046553,504.37433 Z"
         id="path1312-4-9-2-7" />
      <path
         inkscape:connector-curvature="0"
         style="fill:#000000"
         d="M 62.038282,591.97784 C 42.402514,586.83359 30.523496,574.94077 25.103349,555 c -1.666029,-6.12934 -1.76678,-20.15756 -1.76678,-246 0,-226.296256 0.09805,-239.882347 1.778603,-246.435382 5.475058,-21.349139 18.692691,-34.471825 39.823475,-39.537408 8.294498,-1.988401 11.310529,-2.013066 244.897923,-2.002836 261.24259,0.01144 243.63479,-0.428185 257.57555,6.431071 12.85097,6.32305 21.67778,17.977043 26.16425,34.544559 1.65731,6.120091 1.7602,20.527402 1.7602,246.499996 0,224.5541 -0.1117,240.43442 -1.73561,246.75002 -3.94138,15.32848 -12.71072,26.75866 -25.0462,32.64584 -13.54197,6.46299 3.2459,6.07311 -259.71819,6.03171 C 76.286074,593.89097 69.124797,593.8344 62.038282,591.97784 Z M 197.83657,439 l 0.5,-40.5 39.73867,-0.26146 39.73866,-0.26147 0.26133,-40.23853 0.26134,-40.23854 39.44826,-0.26179 c 30.03221,-0.1993 39.63599,-0.55734 40.23469,-1.5 0.43253,-0.68101 0.79332,-18.90071 0.80174,-40.48821 l 0.0153,-39.25 h 38.87756 c 31.24771,0 39.09549,-0.26261 39.9881,-1.33813 0.76179,-0.91791 1.19279,-13.55785 1.37244,-40.25 l 0.2619,-38.91187 39,-0.5 39,-0.5 v -20 -20 l -58.5,-0.26079 c -54.10883,-0.24122 -58.59383,-0.13305 -59.75,1.44113 -0.94863,1.29159 -1.25,10.93805 -1.25,40.01079 V 194 h -38.94098 c -30.05465,0 -39.1256,0.28525 -39.75,1.25 -0.44496,0.6875 -1.03403,18.8 -1.30902,40.25 l -0.5,39 -39.75,0.26147 c -21.8625,0.14382 -39.84971,0.36882 -39.97156,0.5 -0.12185,0.13119 -0.45935,18.46353 -0.75,40.73853 l -0.52844,40.5 -39,0.5 -39,0.5 -0.5,40 -0.5,40 -39.50001,0.5 -39.499991,0.5 -0.272365,19.47053 c -0.149801,10.70879 -0.05005,20.04986 0.221663,20.75794 0.396742,1.03389 12.16732,1.23662 59.772363,1.02947 l 59.27834,-0.25794 0.5,-40.5 z m 224.71693,37.33004 c 9.81916,-4.6595 10.48563,-20.57807 1.10109,-26.29963 -3.01742,-1.83966 -5.01136,-2.02327 -22.009,-2.02667 -12.57694,-0.003 -18.91467,-0.36567 -19.3748,-1.11018 -0.39923,-0.64596 13.89884,-15.73269 34.35503,-36.25 39.18121,-39.29829 39.15526,-39.26342 35.78733,-48.08221 -3.01512,-7.89498 -9.84711,-11.65705 -18.32658,-10.09163 -3.25687,0.60126 -8.35668,5.2842 -38.78136,35.61129 C 376.03795,407.28645 359.72545,423 359.05521,423 c -0.91314,0 -1.21864,-4.52061 -1.21864,-18.03212 0,-20.12595 -0.67685,-23.17746 -5.9782,-26.95236 -7.0166,-4.99626 -18.24336,-2.89806 -22.54364,4.21324 -1.88115,3.11081 -1.97816,5.18392 -1.97816,42.27124 0,21.45 0.33737,40.20282 0.7497,41.67293 1.04242,3.71655 5.56236,8.83571 9.20072,10.42047 2.35984,1.02789 11.94923,1.33717 42.39844,1.36746 34.73793,0.0345 39.76126,-0.15655 42.86807,-1.63082 z"
         id="path1310-9-8-7-5" />
    </g>
  </a>
  <a
     xlink:href="map-kb-voltaire-f3.svg"
     transform="matrix(1.0688321,0,0,1.0688321,1054.3653,744.68123)"
     id="a4287-35">
    <g
       transform="matrix(0.10782306,0,0,0.10782306,880.78769,-135.61239)"
       id="g1316-6-3-7-62">
      <path
         inkscape:connector-curvature="0"
         sodipodi:nodetypes="cccccc"
         style="fill:#fdfdfd"
         d="M 62.40424,310.33656 465.34714,42.54834 578.96135,151.48943 564.70342,480.90306 54.046553,504.37433 Z"
         id="path1312-4-9-2-9" />
      <path
         inkscape:connector-curvature="0"
         style="fill:#000000"
         d="M 62.038282,591.97784 C 42.402514,586.83359 30.523496,574.94077 25.103349,555 c -1.666029,-6.12934 -1.76678,-20.15756 -1.76678,-246 0,-226.296256 0.09805,-239.882347 1.778603,-246.435382 5.475058,-21.349139 18.692691,-34.471825 39.823475,-39.537408 8.294498,-1.988401 11.310529,-2.013066 244.897923,-2.002836 261.24259,0.01144 243.63479,-0.428185 257.57555,6.431071 12.85097,6.32305 21.67778,17.977043 26.16425,34.544559 1.65731,6.120091 1.7602,20.527402 1.7602,246.499996 0,224.5541 -0.1117,240.43442 -1.73561,246.75002 -3.94138,15.32848 -12.71072,26.75866 -25.0462,32.64584 -13.54197,6.46299 3.2459,6.07311 -259.71819,6.03171 C 76.286074,593.89097 69.124797,593.8344 62.038282,591.97784 Z M 197.83657,439 l 0.5,-40.5 39.73867,-0.26146 39.73866,-0.26147 0.26133,-40.23853 0.26134,-40.23854 39.44826,-0.26179 c 30.03221,-0.1993 39.63599,-0.55734 40.23469,-1.5 0.43253,-0.68101 0.79332,-18.90071 0.80174,-40.48821 l 0.0153,-39.25 h 38.87756 c 31.24771,0 39.09549,-0.26261 39.9881,-1.33813 0.76179,-0.91791 1.19279,-13.55785 1.37244,-40.25 l 0.2619,-38.91187 39,-0.5 39,-0.5 v -20 -20 l -58.5,-0.26079 c -54.10883,-0.24122 -58.59383,-0.13305 -59.75,1.44113 -0.94863,1.29159 -1.25,10.93805 -1.25,40.01079 V 194 h -38.94098 c -30.05465,0 -39.1256,0.28525 -39.75,1.25 -0.44496,0.6875 -1.03403,18.8 -1.30902,40.25 l -0.5,39 -39.75,0.26147 c -21.8625,0.14382 -39.84971,0.36882 -39.97156,0.5 -0.12185,0.13119 -0.45935,18.46353 -0.75,40.73853 l -0.52844,40.5 -39,0.5 -39,0.5 -0.5,40 -0.5,40 -39.50001,0.5 -39.499991,0.5 -0.272365,19.47053 c -0.149801,10.70879 -0.05005,20.04986 0.221663,20.75794 0.396742,1.03389 12.16732,1.23662 59.772363,1.02947 l 59.27834,-0.25794 0.5,-40.5 z m 224.71693,37.33004 c 9.81916,-4.6595 10.48563,-20.57807 1.10109,-26.29963 -3.01742,-1.83966 -5.01136,-2.02327 -22.009,-2.02667 -12.57694,-0.003 -18.91467,-0.36567 -19.3748,-1.11018 -0.39923,-0.64596 13.89884,-15.73269 34.35503,-36.25 39.18121,-39.29829 39.15526,-39.26342 35.78733,-48.08221 -3.01512,-7.89498 -9.84711,-11.65705 -18.32658,-10.09163 -3.25687,0.60126 -8.35668,5.2842 -38.78136,35.61129 C 376.03795,407.28645 359.72545,423 359.05521,423 c -0.91314,0 -1.21864,-4.52061 -1.21864,-18.03212 0,-20.12595 -0.67685,-23.17746 -5.9782,-26.95236 -7.0166,-4.99626 -18.24336,-2.89806 -22.54364,4.21324 -1.88115,3.11081 -1.97816,5.18392 -1.97816,42.27124 0,21.45 0.33737,40.20282 0.7497,41.67293 1.04242,3.71655 5.56236,8.83571 9.20072,10.42047 2.35984,1.02789 11.94923,1.33717 42.39844,1.36746 34.73793,0.0345 39.76126,-0.15655 42.86807,-1.63082 z"
         id="path1310-9-8-7-1" />
    </g>
  </a>
  <a
     xlink:href="map-kb-voltaire-f5.svg"
     transform="matrix(0.91572157,0,0,0.91572157,2063.064,-90.726777)"
     id="a4813-2">
    <g
       transform="matrix(0.12918249,0,0,0.12918249,-74.777177,661.68664)"
       id="surface0-3"
       clip-path="url(#clip0-2)">
      <path
         inkscape:connector-curvature="0"
         style="fill:none;stroke:#ffffff;stroke-width:0.1;stroke-linecap:butt;stroke-linejoin:miter;stroke-miterlimit:10"
         d="M 0,0 H 613 V 615 H 0 Z m 0,0"
         id="path3981-7" />
      <path
         inkscape:connector-curvature="0"
         style="fill:#ffffff;fill-rule:nonzero;stroke:none"
         d="M 0,0 H 613 V 615 H 0 Z m 0,0"
         id="path3983-59" />
      <path
         inkscape:connector-curvature="0"
         style="fill:none;stroke:#000000;stroke-width:0.1;stroke-linecap:butt;stroke-linejoin:miter;stroke-miterlimit:10"
         d="m 67.550919,21.773926 c 5.448104,-0.834793 10.961776,-1.168579 16.468856,-1.276489 143.988895,0.01057 287.977755,0.0014 431.966795,0.0046 11.62419,0.05846 23.40125,-0.526428 34.83319,2.038391 11.48223,2.441635 22.70526,8.151718 29.89469,17.659317 7.87158,10.112656 11.07522,23.047653 11.91118,35.635346 0.52348,5.377716 0.0126,10.766769 0.12138,16.154037 0.002,149.034142 0.006,298.068422 -0.002,447.102502 -0.47928,15.02805 -4.56612,31.11974 -16.03936,41.59946 -11.16827,10.29089 -26.92433,13.50371 -41.66755,13.81072 -152.35196,-0.0127 -304.70406,0.006 -457.05582,-0.01 -14.96405,-0.31983 -30.863922,-3.84703 -42.026993,-14.46055 -11.447678,-11.0589 -15.619858,-27.54866 -15.715225,-43.02379 0.02388,-152.35156 0.0082,-304.70306 0.0078,-457.054486 0.419311,-14.775544 4.031494,-30.317505 14.09906,-41.614258 8.437408,-9.563507 20.81102,-14.662064 33.204224,-16.565277 z m 0,0"
         id="path3985-22" />
      <path
         inkscape:connector-curvature="0"
         style="fill:#000000;fill-rule:nonzero;stroke:none"
         d="m 67.550919,21.773926 c 5.448104,-0.834793 10.961776,-1.168579 16.468856,-1.276489 143.988895,0.01057 287.977755,0.0014 431.966795,0.0046 11.62419,0.05846 23.40125,-0.526428 34.83319,2.038391 11.48223,2.441635 22.70526,8.151718 29.89469,17.659317 7.87158,10.112656 11.07522,23.047653 11.91118,35.635346 0.52348,5.377716 0.0126,10.766769 0.12138,16.154037 0.002,149.034142 0.006,298.068422 -0.002,447.102502 -0.47928,15.02805 -4.56612,31.11974 -16.03936,41.59946 -11.16827,10.29089 -26.92433,13.50371 -41.66755,13.81072 -152.35196,-0.0127 -304.70406,0.006 -457.05582,-0.01 -14.96405,-0.31983 -30.863922,-3.84703 -42.026993,-14.46055 -11.447678,-11.0589 -15.619858,-27.54866 -15.715225,-43.02379 0.02388,-152.35156 0.0082,-304.70306 0.0078,-457.054486 0.419311,-14.775544 4.031494,-30.317505 14.09906,-41.614258 8.437408,-9.563507 20.81102,-14.662064 33.204224,-16.565277 z m 0,0"
         id="path3987-8" />
      <path
         inkscape:connector-curvature="0"
         style="fill:none;stroke:#ffffff;stroke-width:0.1;stroke-linecap:butt;stroke-linejoin:miter;stroke-miterlimit:10"
         d="m 407.49925,187.74844 c -1.5e-4,-26.66621 -0.007,-53.33206 0.003,-79.99803 39.83141,-0.003 79.66283,-0.001 119.49475,-8.2e-4 0.003,13.66711 0.006,27.33421 -10e-4,41.00175 -26.41509,-0.004 -52.82955,-0.005 -79.24382,5.5e-4 -0.006,26.74794 -0.004,53.49581 -7.4e-4,80.24405 -26.75025,0.0111 -53.49995,-0.002 -80.24952,0.007 -10e-4,27.16552 0.003,54.33101 -0.002,81.49695 -26.74857,0.003 -53.49663,0.005 -80.24466,-10e-4 -0.01,26.99951 5.6e-4,53.99908 -0.005,80.99917 -26.74924,0.01 -53.49805,0.002 -80.24688,0.004 -0.007,27.16562 -3.5e-4,54.33136 -0.003,81.49768 -39.99979,9.4e-4 -79.99927,8.2e-4 -119.998884,6e-5 3.05e-4,-13.75078 -0.0043,-27.5006 0.0024,-41.24991 26.664264,5e-5 53.328384,-0.003 79.992844,0.002 0.0127,-27.16806 -0.005,-54.33557 0.009,-81.50297 26.49627,0.005 52.99247,0.002 79.48908,0.002 0.0106,-27.33293 -3.5e-4,-54.66541 0.005,-81.99784 26.99865,-0.005 53.99729,0.002 80.99642,-0.003 0.009,-26.83323 -0.006,-53.66605 0.007,-80.49889 26.66529,-0.004 53.33065,2.1e-4 79.99656,-0.002 z m 0,0"
         id="path3989-97" />
      <path
         inkscape:connector-curvature="0"
         style="fill:#ffffff;fill-rule:nonzero;stroke:none"
         d="m 407.49925,187.74844 c -1.5e-4,-26.66621 -0.007,-53.33206 0.003,-79.99803 39.83141,-0.003 79.66283,-0.001 119.49475,-8.2e-4 0.003,13.66711 0.006,27.33421 -10e-4,41.00175 -26.41509,-0.004 -52.82955,-0.005 -79.24382,5.5e-4 -0.006,26.74794 -0.004,53.49581 -7.4e-4,80.24405 -26.75025,0.0111 -53.49995,-0.002 -80.24952,0.007 -10e-4,27.16552 0.003,54.33101 -0.002,81.49695 -26.74857,0.003 -53.49663,0.005 -80.24466,-10e-4 -0.01,26.99951 5.6e-4,53.99908 -0.005,80.99917 -26.74924,0.01 -53.49805,0.002 -80.24688,0.004 -0.007,27.16562 -3.5e-4,54.33136 -0.003,81.49768 -39.99979,9.4e-4 -79.99927,8.2e-4 -119.998884,6e-5 3.05e-4,-13.75078 -0.0043,-27.5006 0.0024,-41.24991 26.664264,5e-5 53.328384,-0.003 79.992844,0.002 0.0127,-27.16806 -0.005,-54.33557 0.009,-81.50297 26.49627,0.005 52.99247,0.002 79.48908,0.002 0.0106,-27.33293 -3.5e-4,-54.66541 0.005,-81.99784 26.99865,-0.005 53.99729,0.002 80.99642,-0.003 0.009,-26.83323 -0.006,-53.66605 0.007,-80.49889 26.66529,-0.004 53.33065,2.1e-4 79.99656,-0.002 z m 0,0"
         id="path3991-3" />
      <path
         inkscape:connector-curvature="0"
         style="fill:none;stroke:#ffffff;stroke-width:0.1;stroke-linecap:butt;stroke-linejoin:miter;stroke-miterlimit:10"
         d="m 360.7312,356.46989 c 1.46202,-6.38227 7.58989,-11.00686 14.09993,-10.93734 23.41052,-0.0839 46.82446,-0.008 70.23686,-0.0374 4.21598,-0.027 8.59888,0.91733 11.97475,3.57302 4.21582,3.21745 6.23842,8.63981 6.20732,13.83815 0.0107,23.35768 -0.0168,46.71623 0.0134,70.07478 0.074,3.86874 -0.86429,7.9176 -3.52043,10.85399 -5.89498,6.60814 -17.60251,6.43582 -23.33739,-0.29379 -2.33978,-2.55329 -3.42949,-6.05492 -3.41178,-9.47422 0.006,-11.97717 0.008,-23.95382 0.004,-35.92964 -22.82657,22.80248 -45.61797,45.64095 -68.45505,68.43231 -4.11286,4.12874 -10.37816,6.35341 -16.09088,4.62 -7.06639,-1.88863 -12.2786,-9.24063 -11.30904,-16.55792 0.45856,-4.15886 2.83589,-7.81562 5.77263,-10.68064 22.73311,-22.73436 45.47359,-45.46142 68.19815,-68.20439 -12.91511,-0.0707 -25.83946,0.14642 -38.74686,-0.10112 -8.98715,-0.81616 -14.20428,-10.99373 -11.6358,-19.1758 z m 0,0"
         id="path3993-6" />
      <path
         inkscape:connector-curvature="0"
         style="fill:#ffffff;fill-rule:nonzero;stroke:none"
         d="m 360.7312,356.46989 c 1.46202,-6.38227 7.58989,-11.00686 14.09993,-10.93734 23.41052,-0.0839 46.82446,-0.008 70.23686,-0.0374 4.21598,-0.027 8.59888,0.91733 11.97475,3.57302 4.21582,3.21745 6.23842,8.63981 6.20732,13.83815 0.0107,23.35768 -0.0168,46.71623 0.0134,70.07478 0.074,3.86874 -0.86429,7.9176 -3.52043,10.85399 -5.89498,6.60814 -17.60251,6.43582 -23.33739,-0.29379 -2.33978,-2.55329 -3.42949,-6.05492 -3.41178,-9.47422 0.006,-11.97717 0.008,-23.95382 0.004,-35.92964 -22.82657,22.80248 -45.61797,45.64095 -68.45505,68.43231 -4.11286,4.12874 -10.37816,6.35341 -16.09088,4.62 -7.06639,-1.88863 -12.2786,-9.24063 -11.30904,-16.55792 0.45856,-4.15886 2.83589,-7.81562 5.77263,-10.68064 22.73311,-22.73436 45.47359,-45.46142 68.19815,-68.20439 -12.91511,-0.0707 -25.83946,0.14642 -38.74686,-0.10112 -8.98715,-0.81616 -14.20428,-10.99373 -11.6358,-19.1758 z m 0,0"
         id="path3995-1" />
    </g>
  </a>
  <a
     xlink:href="map-kb-voltaire-f5.svg"
     transform="matrix(0.91572157,0,0,0.91572157,1023.9599,-91.121798)"
     id="a4813-2-0">
    <g
       transform="matrix(0.12918249,0,0,0.12918249,-74.777177,661.68664)"
       id="surface0-3-9"
       clip-path="url(#clip0-2-2)">
      <path
         inkscape:connector-curvature="0"
         style="fill:none;stroke:#ffffff;stroke-width:0.1;stroke-linecap:butt;stroke-linejoin:miter;stroke-miterlimit:10"
         d="M 0,0 H 613 V 615 H 0 Z m 0,0"
         id="path3981-7-3" />
      <path
         inkscape:connector-curvature="0"
         style="fill:#ffffff;fill-rule:nonzero;stroke:none"
         d="M 0,0 H 613 V 615 H 0 Z m 0,0"
         id="path3983-59-6" />
      <path
         inkscape:connector-curvature="0"
         style="fill:none;stroke:#000000;stroke-width:0.1;stroke-linecap:butt;stroke-linejoin:miter;stroke-miterlimit:10"
         d="m 67.550919,21.773926 c 5.448104,-0.834793 10.961776,-1.168579 16.468856,-1.276489 143.988895,0.01057 287.977755,0.0014 431.966795,0.0046 11.62419,0.05846 23.40125,-0.526428 34.83319,2.038391 11.48223,2.441635 22.70526,8.151718 29.89469,17.659317 7.87158,10.112656 11.07522,23.047653 11.91118,35.635346 0.52348,5.377716 0.0126,10.766769 0.12138,16.154037 0.002,149.034142 0.006,298.068422 -0.002,447.102502 -0.47928,15.02805 -4.56612,31.11974 -16.03936,41.59946 -11.16827,10.29089 -26.92433,13.50371 -41.66755,13.81072 -152.35196,-0.0127 -304.70406,0.006 -457.05582,-0.01 -14.96405,-0.31983 -30.863922,-3.84703 -42.026993,-14.46055 -11.447678,-11.0589 -15.619858,-27.54866 -15.715225,-43.02379 0.02388,-152.35156 0.0082,-304.70306 0.0078,-457.054486 0.419311,-14.775544 4.031494,-30.317505 14.09906,-41.614258 8.437408,-9.563507 20.81102,-14.662064 33.204224,-16.565277 z m 0,0"
         id="path3985-22-0" />
      <path
         inkscape:connector-curvature="0"
         style="fill:#000000;fill-rule:nonzero;stroke:none"
         d="m 67.550919,21.773926 c 5.448104,-0.834793 10.961776,-1.168579 16.468856,-1.276489 143.988895,0.01057 287.977755,0.0014 431.966795,0.0046 11.62419,0.05846 23.40125,-0.526428 34.83319,2.038391 11.48223,2.441635 22.70526,8.151718 29.89469,17.659317 7.87158,10.112656 11.07522,23.047653 11.91118,35.635346 0.52348,5.377716 0.0126,10.766769 0.12138,16.154037 0.002,149.034142 0.006,298.068422 -0.002,447.102502 -0.47928,15.02805 -4.56612,31.11974 -16.03936,41.59946 -11.16827,10.29089 -26.92433,13.50371 -41.66755,13.81072 -152.35196,-0.0127 -304.70406,0.006 -457.05582,-0.01 -14.96405,-0.31983 -30.863922,-3.84703 -42.026993,-14.46055 -11.447678,-11.0589 -15.619858,-27.54866 -15.715225,-43.02379 0.02388,-152.35156 0.0082,-304.70306 0.0078,-457.054486 0.419311,-14.775544 4.031494,-30.317505 14.09906,-41.614258 8.437408,-9.563507 20.81102,-14.662064 33.204224,-16.565277 z m 0,0"
         id="path3987-8-6" />
      <path
         inkscape:connector-curvature="0"
         style="fill:none;stroke:#ffffff;stroke-width:0.1;stroke-linecap:butt;stroke-linejoin:miter;stroke-miterlimit:10"
         d="m 407.49925,187.74844 c -1.5e-4,-26.66621 -0.007,-53.33206 0.003,-79.99803 39.83141,-0.003 79.66283,-0.001 119.49475,-8.2e-4 0.003,13.66711 0.006,27.33421 -10e-4,41.00175 -26.41509,-0.004 -52.82955,-0.005 -79.24382,5.5e-4 -0.006,26.74794 -0.004,53.49581 -7.4e-4,80.24405 -26.75025,0.0111 -53.49995,-0.002 -80.24952,0.007 -10e-4,27.16552 0.003,54.33101 -0.002,81.49695 -26.74857,0.003 -53.49663,0.005 -80.24466,-10e-4 -0.01,26.99951 5.6e-4,53.99908 -0.005,80.99917 -26.74924,0.01 -53.49805,0.002 -80.24688,0.004 -0.007,27.16562 -3.5e-4,54.33136 -0.003,81.49768 -39.99979,9.4e-4 -79.99927,8.2e-4 -119.998884,6e-5 3.05e-4,-13.75078 -0.0043,-27.5006 0.0024,-41.24991 26.664264,5e-5 53.328384,-0.003 79.992844,0.002 0.0127,-27.16806 -0.005,-54.33557 0.009,-81.50297 26.49627,0.005 52.99247,0.002 79.48908,0.002 0.0106,-27.33293 -3.5e-4,-54.66541 0.005,-81.99784 26.99865,-0.005 53.99729,0.002 80.99642,-0.003 0.009,-26.83323 -0.006,-53.66605 0.007,-80.49889 26.66529,-0.004 53.33065,2.1e-4 79.99656,-0.002 z m 0,0"
         id="path3989-97-2" />
      <path
         inkscape:connector-curvature="0"
         style="fill:#ffffff;fill-rule:nonzero;stroke:none"
         d="m 407.49925,187.74844 c -1.5e-4,-26.66621 -0.007,-53.33206 0.003,-79.99803 39.83141,-0.003 79.66283,-0.001 119.49475,-8.2e-4 0.003,13.66711 0.006,27.33421 -10e-4,41.00175 -26.41509,-0.004 -52.82955,-0.005 -79.24382,5.5e-4 -0.006,26.74794 -0.004,53.49581 -7.4e-4,80.24405 -26.75025,0.0111 -53.49995,-0.002 -80.24952,0.007 -10e-4,27.16552 0.003,54.33101 -0.002,81.49695 -26.74857,0.003 -53.49663,0.005 -80.24466,-10e-4 -0.01,26.99951 5.6e-4,53.99908 -0.005,80.99917 -26.74924,0.01 -53.49805,0.002 -80.24688,0.004 -0.007,27.16562 -3.5e-4,54.33136 -0.003,81.49768 -39.99979,9.4e-4 -79.99927,8.2e-4 -119.998884,6e-5 3.05e-4,-13.75078 -0.0043,-27.5006 0.0024,-41.24991 26.664264,5e-5 53.328384,-0.003 79.992844,0.002 0.0127,-27.16806 -0.005,-54.33557 0.009,-81.50297 26.49627,0.005 52.99247,0.002 79.48908,0.002 0.0106,-27.33293 -3.5e-4,-54.66541 0.005,-81.99784 26.99865,-0.005 53.99729,0.002 80.99642,-0.003 0.009,-26.83323 -0.006,-53.66605 0.007,-80.49889 26.66529,-0.004 53.33065,2.1e-4 79.99656,-0.002 z m 0,0"
         id="path3991-3-6" />
      <path
         inkscape:connector-curvature="0"
         style="fill:none;stroke:#ffffff;stroke-width:0.1;stroke-linecap:butt;stroke-linejoin:miter;stroke-miterlimit:10"
         d="m 360.7312,356.46989 c 1.46202,-6.38227 7.58989,-11.00686 14.09993,-10.93734 23.41052,-0.0839 46.82446,-0.008 70.23686,-0.0374 4.21598,-0.027 8.59888,0.91733 11.97475,3.57302 4.21582,3.21745 6.23842,8.63981 6.20732,13.83815 0.0107,23.35768 -0.0168,46.71623 0.0134,70.07478 0.074,3.86874 -0.86429,7.9176 -3.52043,10.85399 -5.89498,6.60814 -17.60251,6.43582 -23.33739,-0.29379 -2.33978,-2.55329 -3.42949,-6.05492 -3.41178,-9.47422 0.006,-11.97717 0.008,-23.95382 0.004,-35.92964 -22.82657,22.80248 -45.61797,45.64095 -68.45505,68.43231 -4.11286,4.12874 -10.37816,6.35341 -16.09088,4.62 -7.06639,-1.88863 -12.2786,-9.24063 -11.30904,-16.55792 0.45856,-4.15886 2.83589,-7.81562 5.77263,-10.68064 22.73311,-22.73436 45.47359,-45.46142 68.19815,-68.20439 -12.91511,-0.0707 -25.83946,0.14642 -38.74686,-0.10112 -8.98715,-0.81616 -14.20428,-10.99373 -11.6358,-19.1758 z m 0,0"
         id="path3993-6-1" />
      <path
         inkscape:connector-curvature="0"
         style="fill:#ffffff;fill-rule:nonzero;stroke:none"
         d="m 360.7312,356.46989 c 1.46202,-6.38227 7.58989,-11.00686 14.09993,-10.93734 23.41052,-0.0839 46.82446,-0.008 70.23686,-0.0374 4.21598,-0.027 8.59888,0.91733 11.97475,3.57302 4.21582,3.21745 6.23842,8.63981 6.20732,13.83815 0.0107,23.35768 -0.0168,46.71623 0.0134,70.07478 0.074,3.86874 -0.86429,7.9176 -3.52043,10.85399 -5.89498,6.60814 -17.60251,6.43582 -23.33739,-0.29379 -2.33978,-2.55329 -3.42949,-6.05492 -3.41178,-9.47422 0.006,-11.97717 0.008,-23.95382 0.004,-35.92964 -22.82657,22.80248 -45.61797,45.64095 -68.45505,68.43231 -4.11286,4.12874 -10.37816,6.35341 -16.09088,4.62 -7.06639,-1.88863 -12.2786,-9.24063 -11.30904,-16.55792 0.45856,-4.15886 2.83589,-7.81562 5.77263,-10.68064 22.73311,-22.73436 45.47359,-45.46142 68.19815,-68.20439 -12.91511,-0.0707 -25.83946,0.14642 -38.74686,-0.10112 -8.98715,-0.81616 -14.20428,-10.99373 -11.6358,-19.1758 z m 0,0"
         id="path3995-1-8" />
    </g>
  </a>
  <text
     xml:space="preserve"
     style="font-style:normal;font-weight:normal;font-size:40px;line-height:125%;font-family:sans-serif;letter-spacing:0px;word-spacing:0px;fill:#000000;fill-opacity:1;stroke:none;stroke-width:1px;stroke-linecap:butt;stroke-linejoin:miter;stroke-opacity:1"
     x="1438.701"
     y="1111.6199"
     id="text1143"><tspan
       sodipodi:role="line"
       id="tspan1141"
       x="1438.701"
       y="1111.6199"
       style="font-size:48px">Patio</tspan></text>
  <text
     xml:space="preserve"
     style="font-style:normal;font-weight:normal;font-size:40px;line-height:125%;font-family:sans-serif;letter-spacing:0px;word-spacing:0px;fill:#000000;fill-opacity:1;stroke:none;stroke-width:1px;stroke-linecap:butt;stroke-linejoin:miter;stroke-opacity:1"
     x="2345.6494"
     y="803.93994"
     id="text1147"><tspan
       sodipodi:role="line"
       id="tspan1145"
       x="2345.6494"
       y="803.93994"
       style="font-size:48px">Amphi 401</tspan></text>
  <text
     xml:space="preserve"
     style="font-style:normal;font-weight:normal;font-size:40px;line-height:125%;font-family:sans-serif;letter-spacing:0px;word-spacing:0px;fill:#000000;fill-opacity:1;stroke:none;stroke-width:1px;stroke-linecap:butt;stroke-linejoin:miter;stroke-opacity:1"
     x="1055.2772"
     y="194.21913"
     id="text1151"><tspan
       sodipodi:role="line"
       id="tspan1149"
       x="1055.2772"
       y="194.21913"
       style="font-size:37.3333px">Toilettes</tspan></text>
  <path
     id="path4289-9-6"
     style="fill:none;stroke:#000000;stroke-width:2;stroke-linecap:butt;stroke-linejoin:miter;stroke-miterlimit:4;stroke-dasharray:none;stroke-opacity:1"
     d="M 1042.5967,679.88233 V 508.45406 m 14.7704,170.71397 V 507.38266 m 14.7704,172.14257 V 508.09696 m 14.7703,171.42827 V 507.73976 m 14.7704,170.35687 V 507.38266 m 14.7703,172.14257 V 507.02546 m 14.7705,172.14257 V 507.38266 m 14.7703,172.49967 V 508.81126 m 14.7704,169.85217 V 508.15416"
     inkscape:connector-curvature="0"
     sodipodi:nodetypes="cccccccccccccccccc" />
  <path
     id="path4289-9-6-6"
     style="fill:none;stroke:#000000;stroke-width:2;stroke-linecap:butt;stroke-linejoin:miter;stroke-miterlimit:4;stroke-dasharray:none;stroke-opacity:1"
     d="M 1864.2165,678.18093 V 510.75266 m 14.7704,166.71397 V 509.68126 m 14.7704,168.14257 V 510.39556 m 14.7704,167.42827 V 510.03836 m 14.7703,166.35687 V 509.68126 m 14.7704,168.14257 V 509.32406 m 14.7704,168.14257 V 509.68126 m 14.7704,168.49967 V 511.10986 m 14.7703,165.85217 V 510.45276"
     inkscape:connector-curvature="0"
     sodipodi:nodetypes="cccccccccccccccccc" />
  <text
     xml:space="preserve"
     style="font-style:normal;font-weight:normal;font-size:40px;line-height:125%;font-family:sans-serif;letter-spacing:0px;word-spacing:0px;fill:#000000;fill-opacity:1;stroke:none;stroke-width:1px;stroke-linecap:butt;stroke-linejoin:miter;stroke-opacity:1"
     x="796.08386"
     y="1036.1005"
     id="text869"><tspan
       sodipodi:role="line"
       id="tspan867"
       x="796.08386"
       y="1036.1005"
       style="font-size:48px">KB402</tspan></text>
  <text
     xml:space="preserve"
     style="font-style:normal;font-weight:normal;font-size:40px;line-height:125%;font-family:sans-serif;letter-spacing:0px;word-spacing:0px;fill:#000000;fill-opacity:1;stroke:none;stroke-width:1px;stroke-linecap:butt;stroke-linejoin:miter;stroke-opacity:1"
     x="203.08011"
     y="333.93671"
     id="text873"><tspan
       sodipodi:role="line"
       id="tspan871"
       x="203.08011"
       y="333.93671"
       style="font-size:48px;text-align:center;text-anchor:middle">KB403</tspan><tspan
       sodipodi:role="line"
       x="203.08011"
       y="383.93671"
       style="font-size:48px;text-align:center;text-anchor:middle"
       id="tspan878" /></text>
  <text
     xml:space="preserve"
     style="font-style:normal;font-weight:normal;font-size:40px;line-height:125%;font-family:sans-serif;text-align:center;letter-spacing:0px;word-spacing:0px;text-anchor:middle;fill:#000000;fill-opacity:1;stroke:none;stroke-width:1px;stroke-linecap:butt;stroke-linejoin:miter;stroke-opacity:1"
     x="600.60773"
     y="316.04718"
     id="text877"><tspan
       sodipodi:role="line"
       id="tspan875"
       x="600.60773"
       y="316.04718"
       style="font-size:48px;text-align:center;text-anchor:middle">KB404</tspan><tspan
       sodipodi:role="line"
       x="600.60773"
       y="368.34583"
       style="font-size:48px;text-align:center;text-anchor:middle"
       id="tspan894" /><tspan
       sodipodi:role="line"
       x="600.60773"
       y="420.64447"
       style="font-size:48px;text-align:center;text-anchor:middle"
       id="tspan896">Lab ACU</tspan></text>
</svg>
