<?xml version="1.0" encoding="UTF-8" standalone="no"?>
<!-- Created with Inkscape (http://www.inkscape.org/) -->

<svg
   xmlns:dc="http://purl.org/dc/elements/1.1/"
   xmlns:cc="http://creativecommons.org/ns#"
   xmlns:rdf="http://www.w3.org/1999/02/22-rdf-syntax-ns#"
   xmlns:svg="http://www.w3.org/2000/svg"
   xmlns="http://www.w3.org/2000/svg"
   xmlns:xlink="http://www.w3.org/1999/xlink"
   xmlns:sodipodi="http://sodipodi.sourceforge.net/DTD/sodipodi-0.dtd"
   xmlns:inkscape="http://www.inkscape.org/namespaces/inkscape"
   version="1.1"
   id="svg869"
   width="100%"
   height="100%"
   viewBox="0 0 4200.2534 1864.2855"
   sodipodi:docname="map-kb-voltaire-f6.svg"
   inkscape:version="0.92.4 5da689c313, 2019-01-14">
  <metadata
     id="metadata875">
    <rdf:RDF>
      <cc:Work
         rdf:about="">
        <dc:format>image/svg+xml</dc:format>
        <dc:type
           rdf:resource="http://purl.org/dc/dcmitype/StillImage" />
        <dc:title />
      </cc:Work>
    </rdf:RDF>
  </metadata>
  <defs
     id="defs873" />
  <sodipodi:namedview
     pagecolor="#ffffff"
     bordercolor="#666666"
     borderopacity="1"
     objecttolerance="10"
     gridtolerance="10"
     guidetolerance="10"
     inkscape:pageopacity="0"
     inkscape:pageshadow="2"
     inkscape:window-width="1918"
     inkscape:window-height="1064"
     id="namedview871"
     showgrid="false"
     inkscape:zoom="0.34153569"
     inkscape:cx="2195.6476"
     inkscape:cy="649.80703"
     inkscape:window-x="0"
     inkscape:window-y="14"
     inkscape:window-maximized="0"
     inkscape:current-layer="svg869"
     fit-margin-top="0"
     fit-margin-left="0"
     fit-margin-right="0"
     fit-margin-bottom="0" />
  <a
     xlink:href="map-kb-voltaire-f5.svg"
     transform="matrix(1.6020832,0,0,1.6020832,-81.50857,934.89221)"
     id="a4249">
    <g
       transform="matrix(0.24285714,0,0,0.24285714,857.62797,-372.49912)"
       id="g4077">
      <rect
         style="fill:#ffffff;fill-opacity:1;fill-rule:evenodd;stroke:#000000;stroke-width:12.5;stroke-miterlimit:4;stroke-dasharray:none;stroke-opacity:1"
         id="rectBordo"
         width="387.5"
         height="387.5"
         x="6.3000002"
         y="6.3000002"
         rx="50"
         ry="50" />
      <rect
         style="fill:none;stroke:#000000;stroke-width:12.5;stroke-miterlimit:4;stroke-dasharray:none;stroke-opacity:1"
         id="rectAscensore"
         width="320"
         height="235"
         x="40"
         y="125" />
      <g
         id="gUomini">
        <path
           inkscape:connector-curvature="0"
           style="fill:#000000;fill-opacity:1;fill-rule:evenodd;stroke:none"
           d="m 200,156 c -8.3,0 -15,6.7 -15,15 0,8.3 6.7,15 15,15 8.3,0 15,-6.7 15,-15 0,-8.3 -6.7,-15 -15,-15 z m -20.7,33 c -5.7,0 -10.3,4.5 -10.3,10 v 60 c 0,5.5 4.3,10 10,10 v 77 c 0,4.4 3.6,8 8,8 4.4,0 8,-3.6 8,-8 v -77 h 10 c 0,0 0,77 0,77 0,4.4 3.6,8 8,8 4.4,0 8,-3.6 8,-8 v -77 c 5.7,0 10,-4.5 10,-10 v -60 c 0,-5.5 -4.6,-10 -10.3,-10 z"
           id="pathUomo"
           sodipodi:nodetypes="csssscccccsccccscccccc" />
        <use
           height="400"
           width="400"
           id="useUomo2"
           xlink:href="#pathUomo"
           y="0"
           x="-90" />
        <use
           height="400"
           width="400"
           id="useUomo3"
           xlink:href="#pathUomo"
           y="0"
           x="90" />
      </g>
      <path
         inkscape:connector-curvature="0"
         style="fill:#000000;fill-opacity:1;fill-rule:evenodd;stroke:none"
         d="m 96,63 29,-38 29,38 h -19 v 42 H 115 V 63 Z"
         id="pathFrecciaSu"
         sodipodi:nodetypes="cccccccc" />
      <use
         x="150"
         y="-134"
         xlink:href="#pathFrecciaSu"
         id="useFrecciaGiu"
         transform="scale(1,-1)"
         width="400"
         height="400" />
    </g>
  </a>
  <a
     xlink:href="map-kb-voltaire-f5.svg"
     transform="matrix(1.5238415,0,0,1.5238415,-53.76811,925.08181)"
     id="a4287">
    <g
       transform="matrix(0.10782306,0,0,0.10782306,880.78769,-135.61239)"
       id="g1316-6-3-7">
      <path
         inkscape:connector-curvature="0"
         sodipodi:nodetypes="cccccc"
         style="fill:#fdfdfd"
         d="M 62.40424,310.33656 465.34714,42.54834 578.96135,151.48943 564.70342,480.90306 54.046553,504.37433 Z"
         id="path1312-4-9-2" />
      <path
         inkscape:connector-curvature="0"
         style="fill:#000000"
         d="M 62.038282,591.97784 C 42.402514,586.83359 30.523496,574.94077 25.103349,555 c -1.666029,-6.12934 -1.76678,-20.15756 -1.76678,-246 0,-226.296256 0.09805,-239.882347 1.778603,-246.435382 5.475058,-21.349139 18.692691,-34.471825 39.823475,-39.537408 8.294498,-1.988401 11.310529,-2.013066 244.897923,-2.002836 261.24259,0.01144 243.63479,-0.428185 257.57555,6.431071 12.85097,6.32305 21.67778,17.977043 26.16425,34.544559 1.65731,6.120091 1.7602,20.527402 1.7602,246.499996 0,224.5541 -0.1117,240.43442 -1.73561,246.75002 -3.94138,15.32848 -12.71072,26.75866 -25.0462,32.64584 -13.54197,6.46299 3.2459,6.07311 -259.71819,6.03171 C 76.286074,593.89097 69.124797,593.8344 62.038282,591.97784 Z M 197.83657,439 l 0.5,-40.5 39.73867,-0.26146 39.73866,-0.26147 0.26133,-40.23853 0.26134,-40.23854 39.44826,-0.26179 c 30.03221,-0.1993 39.63599,-0.55734 40.23469,-1.5 0.43253,-0.68101 0.79332,-18.90071 0.80174,-40.48821 l 0.0153,-39.25 h 38.87756 c 31.24771,0 39.09549,-0.26261 39.9881,-1.33813 0.76179,-0.91791 1.19279,-13.55785 1.37244,-40.25 l 0.2619,-38.91187 39,-0.5 39,-0.5 v -20 -20 l -58.5,-0.26079 c -54.10883,-0.24122 -58.59383,-0.13305 -59.75,1.44113 -0.94863,1.29159 -1.25,10.93805 -1.25,40.01079 V 194 h -38.94098 c -30.05465,0 -39.1256,0.28525 -39.75,1.25 -0.44496,0.6875 -1.03403,18.8 -1.30902,40.25 l -0.5,39 -39.75,0.26147 c -21.8625,0.14382 -39.84971,0.36882 -39.97156,0.5 -0.12185,0.13119 -0.45935,18.46353 -0.75,40.73853 l -0.52844,40.5 -39,0.5 -39,0.5 -0.5,40 -0.5,40 -39.50001,0.5 -39.499991,0.5 -0.272365,19.47053 c -0.149801,10.70879 -0.05005,20.04986 0.221663,20.75794 0.396742,1.03389 12.16732,1.23662 59.772363,1.02947 l 59.27834,-0.25794 0.5,-40.5 z m 224.71693,37.33004 c 9.81916,-4.6595 10.48563,-20.57807 1.10109,-26.29963 -3.01742,-1.83966 -5.01136,-2.02327 -22.009,-2.02667 -12.57694,-0.003 -18.91467,-0.36567 -19.3748,-1.11018 -0.39923,-0.64596 13.89884,-15.73269 34.35503,-36.25 39.18121,-39.29829 39.15526,-39.26342 35.78733,-48.08221 -3.01512,-7.89498 -9.84711,-11.65705 -18.32658,-10.09163 -3.25687,0.60126 -8.35668,5.2842 -38.78136,35.61129 C 376.03795,407.28645 359.72545,423 359.05521,423 c -0.91314,0 -1.21864,-4.52061 -1.21864,-18.03212 0,-20.12595 -0.67685,-23.17746 -5.9782,-26.95236 -7.0166,-4.99626 -18.24336,-2.89806 -22.54364,4.21324 -1.88115,3.11081 -1.97816,5.18392 -1.97816,42.27124 0,21.45 0.33737,40.20282 0.7497,41.67293 1.04242,3.71655 5.56236,8.83571 9.20072,10.42047 2.35984,1.02789 11.94923,1.33717 42.39844,1.36746 34.73793,0.0345 39.76126,-0.15655 42.86807,-1.63082 z"
         id="path1310-9-8-7" />
    </g>
  </a>
  <a
     xlink:href="map-kb-voltaire-f5.svg"
     transform="matrix(1.6253203,0,0,1.6253203,1248.0686,930.84981)"
     id="a4287-3">
    <g
       transform="matrix(0.10782306,0,0,0.10782306,880.78769,-135.61239)"
       id="g1316-6-3-7-6">
      <path
         inkscape:connector-curvature="0"
         sodipodi:nodetypes="cccccc"
         style="fill:#fdfdfd"
         d="M 62.40424,310.33656 465.34714,42.54834 578.96135,151.48943 564.70342,480.90306 54.046553,504.37433 Z"
         id="path1312-4-9-2-7" />
      <path
         inkscape:connector-curvature="0"
         style="fill:#000000"
         d="M 62.038282,591.97784 C 42.402514,586.83359 30.523496,574.94077 25.103349,555 c -1.666029,-6.12934 -1.76678,-20.15756 -1.76678,-246 0,-226.296256 0.09805,-239.882347 1.778603,-246.435382 5.475058,-21.349139 18.692691,-34.471825 39.823475,-39.537408 8.294498,-1.988401 11.310529,-2.013066 244.897923,-2.002836 261.24259,0.01144 243.63479,-0.428185 257.57555,6.431071 12.85097,6.32305 21.67778,17.977043 26.16425,34.544559 1.65731,6.120091 1.7602,20.527402 1.7602,246.499996 0,224.5541 -0.1117,240.43442 -1.73561,246.75002 -3.94138,15.32848 -12.71072,26.75866 -25.0462,32.64584 -13.54197,6.46299 3.2459,6.07311 -259.71819,6.03171 C 76.286074,593.89097 69.124797,593.8344 62.038282,591.97784 Z M 197.83657,439 l 0.5,-40.5 39.73867,-0.26146 39.73866,-0.26147 0.26133,-40.23853 0.26134,-40.23854 39.44826,-0.26179 c 30.03221,-0.1993 39.63599,-0.55734 40.23469,-1.5 0.43253,-0.68101 0.79332,-18.90071 0.80174,-40.48821 l 0.0153,-39.25 h 38.87756 c 31.24771,0 39.09549,-0.26261 39.9881,-1.33813 0.76179,-0.91791 1.19279,-13.55785 1.37244,-40.25 l 0.2619,-38.91187 39,-0.5 39,-0.5 v -20 -20 l -58.5,-0.26079 c -54.10883,-0.24122 -58.59383,-0.13305 -59.75,1.44113 -0.94863,1.29159 -1.25,10.93805 -1.25,40.01079 V 194 h -38.94098 c -30.05465,0 -39.1256,0.28525 -39.75,1.25 -0.44496,0.6875 -1.03403,18.8 -1.30902,40.25 l -0.5,39 -39.75,0.26147 c -21.8625,0.14382 -39.84971,0.36882 -39.97156,0.5 -0.12185,0.13119 -0.45935,18.46353 -0.75,40.73853 l -0.52844,40.5 -39,0.5 -39,0.5 -0.5,40 -0.5,40 -39.50001,0.5 -39.499991,0.5 -0.272365,19.47053 c -0.149801,10.70879 -0.05005,20.04986 0.221663,20.75794 0.396742,1.03389 12.16732,1.23662 59.772363,1.02947 l 59.27834,-0.25794 0.5,-40.5 z m 224.71693,37.33004 c 9.81916,-4.6595 10.48563,-20.57807 1.10109,-26.29963 -3.01742,-1.83966 -5.01136,-2.02327 -22.009,-2.02667 -12.57694,-0.003 -18.91467,-0.36567 -19.3748,-1.11018 -0.39923,-0.64596 13.89884,-15.73269 34.35503,-36.25 39.18121,-39.29829 39.15526,-39.26342 35.78733,-48.08221 -3.01512,-7.89498 -9.84711,-11.65705 -18.32658,-10.09163 -3.25687,0.60126 -8.35668,5.2842 -38.78136,35.61129 C 376.03795,407.28645 359.72545,423 359.05521,423 c -0.91314,0 -1.21864,-4.52061 -1.21864,-18.03212 0,-20.12595 -0.67685,-23.17746 -5.9782,-26.95236 -7.0166,-4.99626 -18.24336,-2.89806 -22.54364,4.21324 -1.88115,3.11081 -1.97816,5.18392 -1.97816,42.27124 0,21.45 0.33737,40.20282 0.7497,41.67293 1.04242,3.71655 5.56236,8.83571 9.20072,10.42047 2.35984,1.02789 11.94923,1.33717 42.39844,1.36746 34.73793,0.0345 39.76126,-0.15655 42.86807,-1.63082 z"
         id="path1310-9-8-7-5" />
    </g>
  </a>
  <text
     xml:space="preserve"
     style="font-style:normal;font-weight:normal;font-size:40px;line-height:125%;font-family:sans-serif;letter-spacing:0px;word-spacing:0px;fill:#000000;fill-opacity:1;stroke:none;stroke-width:1px;stroke-linecap:butt;stroke-linejoin:miter;stroke-opacity:1"
     x="1994.59"
     y="1590.1609"
     id="text1033"><tspan
       sodipodi:role="line"
       id="tspan1031"
       x="1994.59"
       y="1590.1609"
       style="font-size:48px">Patio</tspan></text>
  <text
     xml:space="preserve"
     style="font-style:normal;font-weight:normal;font-size:40px;line-height:125%;font-family:sans-serif;letter-spacing:0px;word-spacing:0px;fill:#000000;fill-opacity:1;stroke:none;stroke-width:1px;stroke-linecap:butt;stroke-linejoin:miter;stroke-opacity:1"
     x="1503.6934"
     y="210.70157"
     id="text1037"><tspan
       sodipodi:role="line"
       id="tspan1035"
       x="1503.6934"
       y="210.70157"
       style="font-size:32px">Toilettes</tspan></text>
  <text
     xml:space="preserve"
     style="font-style:normal;font-weight:normal;font-size:40px;line-height:125%;font-family:sans-serif;letter-spacing:0px;word-spacing:0px;fill:#000000;fill-opacity:1;stroke:none;stroke-width:1px;stroke-linecap:butt;stroke-linejoin:miter;stroke-opacity:1"
     x="2505.2029"
     y="399.05219"
     id="text1037-3"><tspan
       sodipodi:role="line"
       id="tspan1035-5"
       x="2505.2029"
       y="399.05219"
       style="font-size:32px">Toilettes</tspan></text>
  <path
     id="path4289-9"
     style="fill:none;stroke:#000000;stroke-width:2;stroke-linecap:butt;stroke-linejoin:miter;stroke-miterlimit:4;stroke-dasharray:none;stroke-opacity:1"
     d="m 1411.297,891.04481 v -238.3645 m 22.7995,238.86325 V 653.67767 m 22.7994,237.86589 V 653.17892 m 22.7994,236.36992 V 652.68031 m 22.7992,238.86325 v -239.362 m 22.7995,238.86325 v -238.3645 m 22.7995,239.36186 V 654.67503 m 22.7994,235.66522 V 653.75754"
     inkscape:connector-curvature="0"
     sodipodi:nodetypes="cccccccccccccccc" />
  <path
     id="path4289-9-6"
     style="fill:none;stroke:#000000;stroke-width:2;stroke-linecap:butt;stroke-linejoin:miter;stroke-miterlimit:4;stroke-dasharray:none;stroke-opacity:1"
     d="M 2486.1843,885.20129 V 641.5282 m 23.9162,242.65138 V 639.99571 m 23.9164,244.6948 V 641.01742 m 23.9163,243.67309 V 640.50649 m 23.9163,242.1406 V 639.99571 m 23.9161,244.6948 V 639.48478 m 23.9165,244.6948 V 639.99571 m 23.9163,245.20558 V 642.03913"
     inkscape:connector-curvature="0"
     sodipodi:nodetypes="cccccccccccccccc" />
  <g
     id="g1051" />
  <path
     id="path1059"
     style="fill:none;fill-rule:evenodd;stroke:#000000;stroke-width:6;stroke-linecap:butt;stroke-linejoin:miter;stroke-miterlimit:4;stroke-dasharray:none;stroke-opacity:1"
     d="m 2664.0544,1084.2719 v 655.5757 m 406.311,-654.5405 v 689.6759 m 465.1363,-688.0687 v 726.132 M 2315.0296,1085.184 h 28.3711 m 78.1462,0 h 515.5973 m 76.2656,0 h 426.1559 m 62.4967,0 h 140.0875 m 84.2047,6 v -40.3331 M 1320.2579,653.62521 v -19.7637 m 0,-96.9884 v -23.0576 M 558.55835,881.50301 H 867.09408 V 774.87871 H 558.526 Z M 4.1406552,1052.4995 H 359.3302 V 917.24191 H 3.1054652 M 2657.6163,126.35881 v 70.9103 m 0,75.0511 v 47.6186 h 151.6299 v -184.3337 m -536.0567,172.9467 h 162.5244 m -161.4892,-123.8706 h 156.3132 m 1.0352,306.8172 v -82.5335 m 0,-71.9455 v -68.3224 m 0,-55.9001 v -95.8955 m -772.5811,198.7764 h 153.5391 m -127.2077,-75.4484 h 129.2781 M 1684.2883,82.669809 v 81.473301 m 0,54.865 v 38.8195 m 0,40.5834 v 15.5278 m -399.7027,-88.202 h 173.9115 m 581.7752,214.6356 V 98.197609 m -379.21,342.174801 h 281.9024 m 75.5687,0 h 42.4427 m 78.6742,0 h 135.6096 m -991.7095,-124.3632 h 257.7617 m 95.2372,0 h 21.4075 v 35.8547 m 0,66.7696 v 70.7446 h 155.6095 V 87.845709 m -530.0159,-24.7741 V 512.48371 h 175.9819 v -27.9501 m 0,-136.6447 v -45.0307 m 0,-57.4529 v -39.8547 m 0,-59.0057 V 70.388309 m 135.6095,819.938701 v -121.1169 h -201.8615 m 1356.3269,-127.328 v -33.2742 m 0,-90.7665 v -27.3782 h -220.7265 m -71.9455,0 h -182.7105 v -380.8785 m 74.3428,531.2622 v 63.1464 m 0,135.6095 v 44.5131 m 871.5104,0.4515 v -107.9423 h 311.1986 v 107.2103 m 194.1324,20.5475 h 369.1294 M 2274.7702,1460.6419 V 1085.184 h 40.2594 v -53.0363 m 0,-110.24749 v -37.3328 l 480.3097,0.003 -0.023,-242.6883 h -471.4029 m 1402.2272,240.6853 V 1050.9246 H 4096.002 M 1736.7591,654.72321 v 48.3112 m 0,141.2736 v 45.3833 m -454.5645,2.196 v -237.1641 h 510.1956 M 1238.9958,1084.06 h 341.6534 m 77.639,0.17 h 154.4535 v 374.9479 m -574.7599,169.7552 0,-111.7644 m 0,-73.8633 v -390.7468 m 0,-136.88169 v -24.5216 h 553.6764 M 4094.5383,1861.0393 V 541.26501 L 4196.2846,199.42671 3.0527952,3.1437083 3.0000952,1537.8666 1787.7235,1669.3558 v -209.4459 h 530.6 l -0.053,251.3927 z M 2749.6072,490.46321 v -172.5948 m -290.7265,566.2475 v -118.0114 h 215.319 m 969.3822,118.4629 h -598.345 v -47.53049 m 0,-75.00439 V 145.35706"
     inkscape:connector-curvature="0"
     sodipodi:nodetypes="cccccccccccccccccccccccccccccccccccccccccccccccccccccccccccccccccccccccccccccccccccccccccccccccccccccccccccccccccccccccccccccccccccccccccccccccccccccccccccc" />
  <text
     xml:space="preserve"
     style="font-style:normal;font-weight:normal;font-size:40px;line-height:125%;font-family:sans-serif;letter-spacing:0px;word-spacing:0px;fill:#000000;fill-opacity:1;stroke:none;stroke-width:1px;stroke-linecap:butt;stroke-linejoin:miter;stroke-opacity:1"
     x="2400.9102"
     y="1301.8927"
     id="text1064"><tspan
       sodipodi:role="line"
       id="tspan1062"
       x="2400.9102"
       y="1301.8927">KB605</tspan></text>
  <text
     xml:space="preserve"
     style="font-style:normal;font-weight:normal;font-size:40px;line-height:125%;font-family:sans-serif;letter-spacing:0px;word-spacing:0px;fill:#000000;fill-opacity:1;stroke:none;stroke-width:1px;stroke-linecap:butt;stroke-linejoin:miter;stroke-opacity:1"
     x="2794.4851"
     y="1422.728"
     id="text1068"><tspan
       sodipodi:role="line"
       id="tspan1066"
       x="2794.4851"
       y="1422.728">KB606</tspan></text>
  <text
     xml:space="preserve"
     style="font-style:normal;font-weight:normal;font-size:40px;line-height:125%;font-family:sans-serif;letter-spacing:0px;word-spacing:0px;fill:#000000;fill-opacity:1;stroke:none;stroke-width:1px;stroke-linecap:butt;stroke-linejoin:miter;stroke-opacity:1"
     x="3224.3611"
     y="1422.728"
     id="text1072"><tspan
       sodipodi:role="line"
       id="tspan1070"
       x="3224.3611"
       y="1422.728">KB607</tspan></text>
  <text
     xml:space="preserve"
     style="font-style:normal;font-weight:normal;font-size:40px;line-height:125%;font-family:sans-serif;letter-spacing:0px;word-spacing:0px;fill:#000000;fill-opacity:1;stroke:none;stroke-width:1px;stroke-linecap:butt;stroke-linejoin:miter;stroke-opacity:1"
     x="3747.2822"
     y="1422.728"
     id="text1076"><tspan
       sodipodi:role="line"
       id="tspan1074"
       x="3747.2822"
       y="1422.728">KB608</tspan></text>
  <text
     xml:space="preserve"
     style="font-style:normal;font-weight:normal;font-size:40px;line-height:125%;font-family:sans-serif;letter-spacing:0px;word-spacing:0px;fill:#000000;fill-opacity:1;stroke:none;stroke-width:1px;stroke-linecap:butt;stroke-linejoin:miter;stroke-opacity:1"
     x="3449.2439"
     y="483.3457"
     id="text1080"><tspan
       sodipodi:role="line"
       id="tspan1078"
       x="3449.2439"
       y="483.3457"
       style="font-size:48px">KB604</tspan></text>
  <path
     id="path1106"
     style="fill:none;fill-rule:evenodd;stroke:#000000;stroke-width:1px;stroke-linecap:butt;stroke-linejoin:miter;stroke-opacity:1"
     d="m 3044.7445,757.92912 v 84.10896 m 595.6145,43.03057 h 86.1916 M 3637.98,1085.4503 h 87.8386 m -292.0632,-0.366 h 72.8328 m -573.3296,0 h 85.8256 m -679.8338,0.183 h 85.0936 m -1186.6482,436.7594 v -82.815 M 2314.597,1037.3236 V 915.17151 m 33.9705,-216.8717 v 148.8081 m 401.1303,-334.7564 v 101.7463 m -91.8385,-420.893 v 84.1786 m -226.8096,-3.294 v -65.8789 m 0,206.4206 v -82.3486 m -374.7779,107.85 h 90.0345 m -207.5185,-0.366 h 84.9106 m -338.896,-186.5387 v 50.729 m 0,-145.5215 v 69.1729 m -225.1007,-17.9337 v -69.5389 m 0.3659,167.6253 v -69.9049 m 197.0345,108.2161 v 80.1527 M 1535.8284,316.21763 h 105.7722 m -321.1597,322.40178 v -106.1382 m 416.5216,317.9911 v -152.6901 m -164.5948,386.26559 h 93.1668 m -427.0351,-21.3621 V 907.92521 m 1213.4119,-417.2192 h 81.6167" />
  <text
     xml:space="preserve"
     style="font-style:normal;font-weight:normal;font-size:40px;line-height:125%;font-family:sans-serif;letter-spacing:0px;word-spacing:0px;fill:#000000;fill-opacity:1;stroke:none;stroke-width:1px;stroke-linecap:butt;stroke-linejoin:miter;stroke-opacity:1"
     x="721.09882"
     y="994.67767"
     id="text1111"><tspan
       sodipodi:role="line"
       id="tspan1109"
       x="721.09882"
       y="994.67767"
       style="font-size:48px;text-align:center;text-anchor:middle">KB603</tspan><tspan
       sodipodi:role="line"
       x="721.09882"
       y="1046.7559"
       id="tspan1113"
       style="font-size:48px;text-align:center;text-anchor:middle">Creative Fabriq 2</tspan></text>
  <text
     xml:space="preserve"
     style="font-style:normal;font-weight:normal;font-size:40px;line-height:125%;font-family:sans-serif;letter-spacing:0px;word-spacing:0px;fill:#000000;fill-opacity:1;stroke:none;stroke-width:1px;stroke-linecap:butt;stroke-linejoin:miter;stroke-opacity:1"
     x="1515.5151"
     y="1178.6364"
     id="text1117"><tspan
       sodipodi:role="line"
       id="tspan1115"
       x="1515.5151"
       y="1178.6364"
       style="font-size:32px;text-align:center;text-anchor:middle">International Programs</tspan><tspan
       sodipodi:role="line"
       x="1515.5151"
       y="1230.7145"
       id="tspan1119"
       style="font-size:32px;text-align:center;text-anchor:middle">Department (IPD)</tspan><tspan
       sodipodi:role="line"
       x="1515.5151"
       y="1282.7926"
       style="font-size:32px;text-align:center;text-anchor:middle"
       id="tspan1121" /><tspan
       sodipodi:role="line"
       x="1515.5151"
       y="1332.7926"
       style="font-style:normal;font-variant:normal;font-weight:bold;font-stretch:normal;font-size:32px;font-family:sans-serif;-inkscape-font-specification:'sans-serif Bold';text-align:center;text-anchor:middle"
       id="tspan1123">Rabih Haddad</tspan><tspan
       sodipodi:role="line"
       x="1515.5151"
       y="1384.8707"
       style="font-style:normal;font-variant:normal;font-weight:bold;font-stretch:normal;font-size:32px;font-family:sans-serif;-inkscape-font-specification:'sans-serif Bold';text-align:center;text-anchor:middle"
       id="tspan1125">Stéphanie Chatelet</tspan><tspan
       sodipodi:role="line"
       x="1515.5151"
       y="1436.9489"
       style="font-style:normal;font-variant:normal;font-weight:bold;font-stretch:normal;font-size:32px;font-family:sans-serif;-inkscape-font-specification:'sans-serif Bold';text-align:center;text-anchor:middle"
       id="tspan1127">Sadia Kifouche</tspan><tspan
       sodipodi:role="line"
       x="1515.5151"
       y="1489.027"
       style="font-style:normal;font-variant:normal;font-weight:bold;font-stretch:normal;font-size:32px;font-family:sans-serif;-inkscape-font-specification:'sans-serif Bold';text-align:center;text-anchor:middle"
       id="tspan1129">Lucile Lefebvre</tspan><tspan
       sodipodi:role="line"
       x="1515.5151"
       y="1541.1051"
       style="font-style:normal;font-variant:normal;font-weight:bold;font-stretch:normal;font-size:32px;font-family:sans-serif;-inkscape-font-specification:'sans-serif Bold';text-align:center;text-anchor:middle"
       id="tspan869">Ethan Attia</tspan></text>
  <text
     xml:space="preserve"
     style="font-style:normal;font-weight:normal;font-size:40px;line-height:125%;font-family:sans-serif;letter-spacing:0px;word-spacing:0px;fill:#000000;fill-opacity:1;stroke:none;stroke-width:1px;stroke-linecap:butt;stroke-linejoin:miter;stroke-opacity:1"
     x="2158.865"
     y="229.63861"
     id="text1133"><tspan
       sodipodi:role="line"
       id="tspan1131"
       x="2158.865"
       y="229.63861"
       style="font-size:32px;line-height:100%;text-align:center;text-anchor:middle">IPD</tspan><tspan
       sodipodi:role="line"
       x="2158.865"
       y="279.63861"
       id="tspan1135"
       style="font-size:32px;line-height:100%;text-align:center;text-anchor:middle">Break</tspan><tspan
       sodipodi:role="line"
       x="2158.865"
       y="329.63861"
       style="font-size:32px;line-height:100%;text-align:center;text-anchor:middle"
       id="tspan1145">Room</tspan></text>
  <text
     xml:space="preserve"
     style="font-style:normal;font-weight:normal;font-size:40px;line-height:125%;font-family:sans-serif;letter-spacing:0px;word-spacing:0px;fill:#000000;fill-opacity:1;stroke:none;stroke-width:1px;stroke-linecap:butt;stroke-linejoin:miter;stroke-opacity:1"
     x="1925.8864"
     y="227.56049"
     id="text1139"><tspan
       sodipodi:role="line"
       id="tspan1137"
       x="1925.8864"
       y="227.56049"
       style="font-size:32px;text-align:center;text-anchor:middle">IPD</tspan><tspan
       sodipodi:role="line"
       x="1925.8864"
       y="279.63864"
       id="tspan1141"
       style="font-size:32px;text-align:center;text-anchor:middle">Meeting</tspan><tspan
       sodipodi:role="line"
       x="1925.8864"
       y="331.71677"
       id="tspan1143"
       style="font-size:32px;text-align:center;text-anchor:middle">Room</tspan></text>
</svg>
