<?xml version="1.0" encoding="UTF-8" standalone="no"?>
<!-- Created with Inkscape (http://www.inkscape.org/) -->

<svg
   width="100%"
   height="100%"
   viewBox="0 0 1962.131 866.71429"
   id="svg2"
   version="1.1"
   inkscape:version="1.1.2 (0a00cf5339, 2022-02-04, custom)"
   sodipodi:docname="map-vj-va-1.svg"
   xmlns:inkscape="http://www.inkscape.org/namespaces/inkscape"
   xmlns:sodipodi="http://sodipodi.sourceforge.net/DTD/sodipodi-0.dtd"
   xmlns:xlink="http://www.w3.org/1999/xlink"
   xmlns="http://www.w3.org/2000/svg"
   xmlns:svg="http://www.w3.org/2000/svg"
   xmlns:rdf="http://www.w3.org/1999/02/22-rdf-syntax-ns#"
   xmlns:cc="http://creativecommons.org/ns#"
   xmlns:dc="http://purl.org/dc/elements/1.1/">
  <defs
     id="defs4">
    <clipPath
       id="clip0">
      <rect
         id="rect4906"
         height="615"
         width="613" />
    </clipPath>
    <clipPath
       id="clip0-8">
      <rect
         y="0"
         x="0"
         id="rect4906-4"
         height="615"
         width="613" />
    </clipPath>
    <clipPath
       id="clip0-3">
      <rect
         y="0"
         x="0"
         id="rect4906-0"
         height="615"
         width="613" />
    </clipPath>
  </defs>
  <sodipodi:namedview
     id="base"
     pagecolor="#ffffff"
     bordercolor="#666666"
     borderopacity="1.0"
     inkscape:pageopacity="0.0"
     inkscape:pageshadow="2"
     inkscape:zoom="0.49497475"
     inkscape:cx="1053.5891"
     inkscape:cy="496.99505"
     inkscape:document-units="px"
     inkscape:current-layer="layer1"
     showgrid="false"
     fit-margin-top="0"
     fit-margin-left="0"
     fit-margin-right="0"
     fit-margin-bottom="0"
     inkscape:window-width="1916"
     inkscape:window-height="1043"
     inkscape:window-x="0"
     inkscape:window-y="35"
     inkscape:window-maximized="0"
     inkscape:pagecheckerboard="0" />
  <metadata
     id="metadata7">
    <rdf:RDF>
      <cc:Work
         rdf:about="">
        <dc:format>image/svg+xml</dc:format>
        <dc:type
           rdf:resource="http://purl.org/dc/dcmitype/StillImage" />
        <dc:title />
      </cc:Work>
    </rdf:RDF>
  </metadata>
  <g
     inkscape:label="Layer 1"
     inkscape:groupmode="layer"
     id="layer1"
     transform="translate(534.84532,-20.790753)">
    <a
       id="a4048"
       xlink:href="http://www.evolutek.org/"
       transform="translate(4.2857143,0)">
      <text
         id="text3947"
         y="765.93323"
         x="1043.5924"
         style="font-style:normal;font-weight:normal;line-height:0%;font-family:sans-serif;letter-spacing:0px;word-spacing:0px;fill:#000000;fill-opacity:1;stroke:none"
         xml:space="preserve"><tspan
           y="765.93323"
           x="1043.5924"
           id="tspan3949"
           sodipodi:role="line"
           style="font-size:28px;line-height:1.25;font-family:sans-serif">Evolutek</tspan></text>
    </a>
    <a
       id="a4043"
       xlink:href="https://gistre.epita.fr/"
       transform="translate(-101.45251,-15.02029)">
      <text
         id="text3951"
         y="341.76846"
         x="1107.3639"
         style="font-style:normal;font-weight:normal;line-height:0%;font-family:sans-serif;text-align:center;letter-spacing:0px;word-spacing:0px;text-anchor:middle;fill:#000000;fill-opacity:1;stroke:none"
         xml:space="preserve"><tspan
           id="tspan3955"
           y="341.76846"
           x="1107.3639"
           sodipodi:role="line"
           style="font-size:32px;line-height:1.25;font-family:sans-serif">Laboratoire</tspan><tspan
           y="381.76846"
           x="1107.3639"
           sodipodi:role="line"
           style="font-size:32px;line-height:1.25;font-family:sans-serif"
           id="tspan44805">Linder -</tspan><tspan
           y="421.76846"
           x="1107.3639"
           sodipodi:role="line"
           style="font-size:32px;line-height:1.25;font-family:sans-serif"
           id="tspan55907">Picton</tspan></text>
      <text
         id="text3951-3"
         y="340.89178"
         x="916.70551"
         style="font-style:normal;font-weight:normal;line-height:0%;font-family:sans-serif;text-align:center;letter-spacing:0px;word-spacing:0px;text-anchor:middle;fill:#000000;fill-opacity:1;stroke:none"
         xml:space="preserve"><tspan
           id="tspan3955-5"
           y="340.89178"
           x="916.70551"
           sodipodi:role="line"
           style="font-size:32px;line-height:1.25;font-family:sans-serif">Laboratoire</tspan><tspan
           y="380.89178"
           x="916.70551"
           sodipodi:role="line"
           style="font-size:32px;line-height:1.25;font-family:sans-serif"
           id="tspan44805-6">Liliane -</tspan><tspan
           y="420.89178"
           x="916.70551"
           sodipodi:role="line"
           style="font-size:32px;line-height:1.25;font-family:sans-serif"
           id="tspan55907-2">Ackermann</tspan></text>
    </a>
    <text
       xml:space="preserve"
       style="font-style:normal;font-weight:normal;line-height:0%;font-family:sans-serif;text-align:center;letter-spacing:0px;word-spacing:0px;text-anchor:middle;fill:#000000;fill-opacity:1;stroke:none"
       x="330.58163"
       y="344.97379"
       id="text3957"><tspan
         sodipodi:role="line"
         x="330.58163"
         y="344.97379"
         id="tspan3961"
         style="font-size:32px;line-height:1.25;font-family:sans-serif">Reserve</tspan></text>
    <a
       id="a4441"
       xlink:href="http://www.tcom.epita.fr/"
       transform="translate(0,-3.3227997)">
      <text
         id="text3963"
         y="344.28098"
         x="-235.20866"
         style="font-style:normal;font-weight:normal;line-height:0%;font-family:sans-serif;text-align:center;letter-spacing:0px;word-spacing:0px;text-anchor:middle;fill:#000000;fill-opacity:1;stroke:none"
         xml:space="preserve"><tspan
           y="344.28098"
           x="-235.20866"
           id="tspan3965"
           sodipodi:role="line"
           style="font-size:32px;line-height:1.25;font-family:sans-serif">Laboratoire</tspan><tspan
           id="tspan3967"
           y="384.28098"
           x="-235.20866"
           sodipodi:role="line"
           style="font-size:32px;line-height:1.25;font-family:sans-serif">Marguerite - Perey</tspan></text>
    </a>
    <text
       xml:space="preserve"
       style="font-style:normal;font-weight:normal;line-height:0%;font-family:sans-serif;letter-spacing:0px;word-spacing:0px;fill:#000000;fill-opacity:1;stroke:none"
       x="-213.85641"
       y="778.66821"
       id="text3969"><tspan
         sodipodi:role="line"
         x="-213.85641"
         y="778.66821"
         id="tspan3848"
         style="font-size:32px;line-height:1.25;font-family:sans-serif">Local Bocal</tspan></text>
    <text
       xml:space="preserve"
       style="font-style:normal;font-weight:normal;line-height:0%;font-family:sans-serif;text-align:center;letter-spacing:0px;word-spacing:0px;text-anchor:middle;fill:#000000;fill-opacity:1;stroke:none"
       x="685.49902"
       y="744.32288"
       id="text3973"><tspan
         sodipodi:role="line"
         id="tspan3975"
         x="685.49902"
         y="744.32288"
         style="font-size:32px;line-height:1.25;font-family:sans-serif">Laboratoire</tspan><tspan
         sodipodi:role="line"
         x="685.49902"
         y="784.32288"
         id="tspan3977"
         style="font-size:32px;line-height:1.25;font-family:sans-serif">électronique</tspan></text>
    <text
       xml:space="preserve"
       style="font-style:normal;font-weight:normal;line-height:0%;font-family:sans-serif;text-align:center;letter-spacing:0px;word-spacing:0px;text-anchor:middle;fill:#000000;fill-opacity:1;stroke:none"
       x="30.994987"
       y="395.763"
       id="text3979"><tspan
         sodipodi:role="line"
         id="tspan3981"
         x="30.994987"
         y="395.763"
         style="font-size:24px;line-height:1.25;font-family:sans-serif">Toilettes</tspan><tspan
         sodipodi:role="line"
         x="30.994987"
         y="425.763"
         id="tspan3983"
         style="font-size:24px;line-height:1.25;font-family:sans-serif">mixtes</tspan><tspan
         sodipodi:role="line"
         x="30.994987"
         y="455.763"
         id="tspan3075"
         style="font-size:24px;line-height:1.25;font-family:sans-serif">et douches</tspan></text>
    <path
       id="path4001"
       style="fill:none;stroke:#000000;stroke-width:2;stroke-linecap:butt;stroke-linejoin:miter;stroke-miterlimit:4;stroke-opacity:1;stroke-dasharray:none"
       d="m -466.81674,289.44447 67.93276,0 m -67.80649,11.49046 67.68022,0 m -67.42768,11.49047 67.17514,0 m -67.55395,11.4905 67.93276,0 m -68.1853,11.49052 68.43783,0 m -68.18529,11.4905 67.93276,0 m -66.79634,11.49048 65.65992,0 m -67.17515,11.49045 68.69037,0 m -68.5641,11.4905 68.43783,0"
       inkscape:connector-curvature="0" />
    <path
       inkscape:connector-curvature="0"
       id="path4001-6"
       style="fill:none;stroke:#000000;stroke-width:2;stroke-linecap:butt;stroke-linejoin:miter;stroke-miterlimit:4;stroke-opacity:1;stroke-dasharray:none"
       d="m 1234.7432,289.58752 67.9327,0 m -67.8064,11.49046 67.6802,0 m -67.4277,11.49047 67.1751,0 m -67.5539,11.4905 67.9327,0 m -68.1853,11.49052 68.4379,0 m -68.1853,11.4905 67.9327,0 m -66.7963,11.49048 65.6599,0 m -67.1751,11.49045 68.6903,0 m -68.5641,11.4905 68.4379,0" />
    <path
       inkscape:connector-curvature="0"
       id="path4001-8"
       style="fill:none;stroke:#000000;stroke-width:2;stroke-linecap:butt;stroke-linejoin:miter;stroke-miterlimit:4;stroke-opacity:1;stroke-dasharray:none"
       d="m 132.33221,710.51264 67.93276,0 m -67.80649,11.49046 67.68022,0 m -67.42768,11.49047 67.17514,0 m -67.55395,11.4905 67.93276,0 m -68.1853,11.49052 68.43783,0 m -68.18529,11.4905 67.93276,0 m -66.79634,11.49048 65.65992,0 m -67.17515,11.49045 68.69037,0 m -68.5641,11.4905 68.43783,0" />
    <text
       xml:space="preserve"
       style="font-style:normal;font-weight:normal;line-height:0%;font-family:sans-serif;letter-spacing:0px;word-spacing:0px;fill:#000000;fill-opacity:1;stroke:none"
       x="1174.256"
       y="789.5199"
       id="text4029"><tspan
         sodipodi:role="line"
         id="tspan4031"
         x="1174.256"
         y="789.5199"
         style="font-size:18px;line-height:1.25;font-family:sans-serif">Reprographie</tspan></text>
    <a
       xlink:href="map-vj-va0.svg"
       id="a6841">
      <g
         transform="matrix(0.11217503,0,0,0.11217503,1174.7777,608.41748)"
         id="g4095">
        <rect
           style="fill:#ffffff;fill-opacity:1;fill-rule:evenodd;stroke:#000000;stroke-width:12.5;stroke-miterlimit:4;stroke-opacity:1;stroke-dasharray:none"
           id="rectBordo"
           width="387.5"
           height="387.5"
           x="6.3000002"
           y="6.3000002"
           rx="50"
           ry="50" />
        <rect
           style="fill:none;stroke:#000000;stroke-width:12.5;stroke-miterlimit:4;stroke-opacity:1;stroke-dasharray:none"
           id="rectAscensore"
           width="320"
           height="235"
           x="40"
           y="125" />
        <g
           id="gUomini">
          <path
             inkscape:connector-curvature="0"
             style="fill:#000000;fill-opacity:1;fill-rule:evenodd;stroke:none"
             d="m 200,156 c -8.3,0 -15,6.7 -15,15 0,8.3 6.7,15 15,15 8.3,0 15,-6.7 15,-15 0,-8.3 -6.7,-15 -15,-15 z m -20.7,33 c -5.7,0 -10.3,4.5 -10.3,10 l 0,60 c 0,5.5 4.3,10 10,10 l 0,77 c 0,4.4 3.6,8 8,8 4.4,0 8,-3.6 8,-8 l 0,-77 10,0 c 0,0 0,77 0,77 0,4.4 3.6,8 8,8 4.4,0 8,-3.6 8,-8 l 0,-77 c 5.7,0 10,-4.5 10,-10 l 0,-60 c 0,-5.5 -4.6,-10 -10.3,-10 l -41.4,0 z"
             id="pathUomo"
             sodipodi:nodetypes="csssscccccsccccscccccc" />
          <use
             height="400"
             width="400"
             id="useUomo2"
             xlink:href="#pathUomo"
             y="0"
             x="-90" />
          <use
             height="400"
             width="400"
             id="useUomo3"
             xlink:href="#pathUomo"
             y="0"
             x="90" />
        </g>
        <path
           inkscape:connector-curvature="0"
           style="fill:#000000;fill-opacity:1;fill-rule:evenodd;stroke:none"
           d="m 96,63 29,-38 29,38 -19,0 0,42 -20,0 0,-42 -19,0 z"
           id="pathFrecciaSu"
           sodipodi:nodetypes="cccccccc" />
        <use
           x="150"
           y="-134"
           xlink:href="#pathFrecciaSu"
           id="useFrecciaGiu"
           transform="scale(1,-1)"
           width="400"
           height="400" />
      </g>
    </a>
    <text
       xml:space="preserve"
       style="font-style:normal;font-weight:normal;line-height:0%;font-family:sans-serif;text-align:center;letter-spacing:0px;word-spacing:0px;text-anchor:middle;fill:#000000;fill-opacity:1;stroke:none"
       x="362.42532"
       y="728.21936"
       id="text3025"><tspan
         sodipodi:role="line"
         id="tspan3027"
         x="362.42532"
         y="728.21936"
         style="font-size:28px;line-height:1.25;font-family:sans-serif">Local</tspan><tspan
         sodipodi:role="line"
         x="362.42532"
         y="763.21936"
         id="tspan3029"
         style="font-size:28px;line-height:1.25;font-family:sans-serif">laboratoire</tspan><tspan
         sodipodi:role="line"
         x="362.42532"
         y="798.21936"
         id="tspan3031"
         style="font-size:28px;line-height:1.25;font-family:sans-serif">électronique</tspan></text>
    <text
       xml:space="preserve"
       style="font-style:normal;font-weight:normal;line-height:0%;font-family:sans-serif;text-align:center;letter-spacing:0px;word-spacing:0px;text-anchor:middle;fill:#000000;fill-opacity:1;stroke:none"
       x="30.841627"
       y="240.22963"
       id="text3025-3"><tspan
         sodipodi:role="line"
         id="tspan3027-1"
         x="30.841627"
         y="240.22963"
         style="font-size:28px;line-height:1.25;font-family:sans-serif">Local</tspan><tspan
         sodipodi:role="line"
         x="30.841627"
         y="275.22961"
         id="tspan3029-7"
         style="font-size:28px;line-height:1.25;font-family:sans-serif">laboratoire</tspan><tspan
         sodipodi:role="line"
         x="30.841627"
         y="310.22961"
         id="tspan3031-8"
         style="font-size:28px;line-height:1.25;font-family:sans-serif">électronique</tspan></text>
    <path
       style="fill:none;stroke:#000000;stroke-width:1px;stroke-linecap:butt;stroke-linejoin:miter;stroke-opacity:1"
       d="m 1115.4609,189.91208 33.8402,0"
       id="path3063"
       inkscape:connector-curvature="0"
       transform="translate(-534.84532,20.790747)" />
    <text
       xml:space="preserve"
       style="font-style:normal;font-weight:normal;line-height:0%;font-family:sans-serif;text-align:center;letter-spacing:0px;word-spacing:0px;text-anchor:middle;fill:#000000;fill-opacity:1;stroke:none"
       x="83.89016"
       y="731.45959"
       id="text3065"><tspan
         sodipodi:role="line"
         id="tspan3067"
         x="83.89016"
         y="731.45959"
         style="font-size:16px;line-height:1.25;font-family:sans-serif">Local</tspan><tspan
         sodipodi:role="line"
         x="83.89016"
         y="751.45959"
         id="tspan3069"
         style="font-size:16px;line-height:1.25;font-family:sans-serif">technique</tspan><tspan
         sodipodi:role="line"
         x="83.89016"
         y="771.45959"
         id="tspan3071"
         style="font-size:16px;line-height:1.25;font-family:sans-serif">et</tspan><tspan
         sodipodi:role="line"
         x="83.89016"
         y="791.45959"
         id="tspan3073"
         style="font-size:16px;line-height:1.25;font-family:sans-serif">entretiens</tspan></text>
    <path
       id="path3077"
       transform="translate(-534.84532,20.790747)"
       style="fill:none;stroke:#000000;stroke-width:6;stroke-linecap:butt;stroke-linejoin:miter;stroke-miterlimit:4;stroke-dasharray:none;stroke-opacity:1"
       d="M 409.11178,634.88428 V 863.7143 M 1831.9882,570.85715 H 1959.131 V 444.42857 M 1447.0131,99.200633 h 124.7538 M 470.55961,303.71429 h 195 m 0,165 V 280.32143 m 0,-54.10714 V 3.52303 M 471.20571,467.90631 V 189.60928 M 135.83506,468.41139 V 189.78572 M 3,266.38088 h 64.64977 v 100.0051 m 732.36059,103.03556 v -280.31733 -6.70462 m 0,-30.27605 V 5.142863 H 1447.7025 V 117.63671 m 0,54.73169 v 16.34589 M 1073.3864,469.42154 V 189.60929 m 183.2446,0.53357 V 443.71429 M 1704.4882,265.5 h 65.3571 v 99.64286 m -130,103.57143 v -280 m 65,280.71428 V 188.71429 m 53.9286,381.07143 v 81.78571 m -53.5715,0 h 62.1429 m 42.8572,0 h 23.5714 M 1705.5596,569.78572 V 863.7143 m -128.7419,0 V 600.74137 m -578.31236,3.53554 v 8.57833 m 0,33.57834 V 863.7143 m -197.94573,0 V 570.14286 M 667.70246,863.7143 V 570.5 M 571.27389,863.7143 V 568.71429 M 272.70246,863.7143 V 568.71429 M 1795.381,469.78572 h -7.4202 m -46.8161,0 h -48.1753 m -36.5586,0 h -31.5078 m -37.5015,-0.002 -265.7959,-0.002 c -4.0598,-3.60158 -3.1261,-2.7434 -8.5495,-6.47872 m -29.7957,-16.97575 c -16.9746,-5.93716 -33.1759,-5.6623 -49.2042,0.48966 m -27.7368,15.44722 c -4.4396,3.81136 -3.9074,3.07486 -8.0914,7.52155 H 983.93179 m -35.80097,0 h -31.76035 m -38.10353,0 H 765.41212 m -64.08524,0 H 588.15786 m -34.93258,0 h -92.07545 m -32.72231,0 h -244.0904 m -30.7502,0 h -49.9431 m -57.51925,0 H 3.25254 M 3,569.91589 l 406.1129,0.008 -0.0158,23.04313 m -0.008,32.95013 -0.008,8.66442 h 6.78237 m 46.06808,0 H 571.21058 M 1795.5155,547.96095 v 21.97082 h 38.3858 V 863.7143 H 733.84681 l -10e-4,-79.12512 V 684.079 M 675.1093,863.7143 H 190.18691 m -37.82659,0 H 3.41696 V 190.14295 h 700.8154 m 56.33808,0 h 119.13933 m 34.28652,0 h 203.96961 m 29.8419,0 h 339.842 m 58.4736,0 h 290.8087 v 279.78376 h -41.4162 v 23.73858 M 729.84532,3.52303 v 142.33412 h 70.35714 m 995.31324,424.05883 h -7.4261 m -22.4261,0 h -19.8523 m -568.9908,0 96.011,0.004 m 278.2273,31.3266 h 50.7602 m 25.3801,0 h 13.7633 l 0.011,-31.32267 75.8481,-0.008 m -571.6389,0.004 -81.9954,0.004 -0.032,35.11067 h -14.9945 m -22.5706,0 h -96.53269 l 0.0473,-35.23694 -166.21745,0.1184 m -54.91837,0 h -54.91837 m -34.51736,0 H 468.30141 v 23.68487 m 0,33.62815 v 7.91386 m 845.46439,-65.22094 196.4979,0.002 -0.1161,31.3226 h 14.3947 m -93.9921,-31.1447 v 26.43385 m 0,52.67857 v 214.5 m 17.7089,-675.10384 1.9126,282.70925 M 929.94567,469.92663 V 190.11438"
       inkscape:connector-curvature="0"
       sodipodi:nodetypes="cccccccccccccccccccccccccccccccccccccccccccccccccccccccccccccccccccccccccccccccccccccccccccccccccccccccccccccccccccccccccccccccccccccccccccccccccccccccccccccccccccc" />
    <path
       id="path3852"
       style="fill:none;stroke:#000000;stroke-width:1px;stroke-linecap:butt;stroke-linejoin:miter;stroke-opacity:1"
       d="m 409.28571,628.85715 0,-38.21429 m 860.98109,-20.66088 46.2145,0 m -439.41635,-379.81734 38.89087,0 m -242.97214,673.2164 59.88472,0 m 867.1828,-262.13458 30.052,0 m 136.1181,50.50763 44.9517,0 m -47.7297,-81.82236 26.7691,0 m 5.0507,-19.95051 0,-59.85154 m -56.0634,-20.20305 50.2551,0 m -134.0978,-0.25254 39.901,0 m -109.8541,0.25254 42.679,0 m -142.684,-279.81226 61.8718,0 m -99.7525,-14.89975 0,-60.10408 m -165.8872,330.38947 32.3215,18.39286 m -109.1072,-0.89286 30.3572,-16.60714 m -91.4877,123.03378 35.9589,0 m -155.9146,35.60788 27.5267,0 m -52.27538,42.67894 0,-36.61802 m -52.78048,-141.6739 39.7404,0 m -109.44092,0.50508 41.41625,0 m -118.18784,-286.12571 0,-33.33504 m -100.25764,318.95567 68.94291,0 m -103.24064,-187.85011 0,-57.85714 m 37.14286,-34.28572 60,0 m -146.07143,380 38.21429,0 m -503.92857,293.92858 43.21428,0 m 220.35714,-228.92858 50,0 m 4.28572,-42.85714 0,37.14286 m 83.8537,-159.04021 39.39595,0 m -164.85679,-0.0669 35.71428,0 m -310.17857,0.35711 32.85714,0 m -140.71428,-0.17857 61.42857,0 m 1446.90975,131.9658 -30.3045,0 m -92.5311,51.92301 0,-59.0572"
       inkscape:connector-curvature="0"
       sodipodi:nodetypes="cccccccccccccccccccccccccccccccccccccccccccccccccccccccccccccccccccc"
       transform="translate(-534.84532,20.790747)" />
    <a
       xlink:href="map-vj-va0.svg"
       id="a5026">
      <g
         transform="matrix(0.0965443,0,0,0.0965443,136.15977,812.27879)"
         id="surface0"
         clip-path="url(#clip0)">
        <path
           inkscape:connector-curvature="0"
           style="fill:none;stroke:#ffffff;stroke-width:0.1;stroke-linecap:butt;stroke-linejoin:miter;stroke-miterlimit:10"
           d="M 0,0 613,0 613,615 0,615 0,0 z m 0,0"
           id="path4909" />
        <path
           inkscape:connector-curvature="0"
           style="fill:#ffffff;fill-rule:nonzero;stroke:none"
           d="M 0,0 613,0 613,615 0,615 0,0 z m 0,0"
           id="path4911" />
        <path
           inkscape:connector-curvature="0"
           style="fill:none;stroke:#000000;stroke-width:0.1;stroke-linecap:butt;stroke-linejoin:miter;stroke-miterlimit:10"
           d="m 67.550919,21.773926 c 5.448104,-0.834793 10.961776,-1.168579 16.468856,-1.276489 143.988895,0.01057 287.977755,0.0014 431.966795,0.0046 11.62419,0.05846 23.40125,-0.526428 34.83319,2.038391 11.48223,2.441635 22.70526,8.151718 29.89469,17.659317 7.87158,10.112656 11.07522,23.047653 11.91118,35.635346 0.52348,5.377716 0.0126,10.766769 0.12138,16.154037 0.002,149.034142 0.006,298.068422 -0.002,447.102502 -0.47928,15.02805 -4.56612,31.11974 -16.03936,41.59946 -11.16827,10.29089 -26.92433,13.50371 -41.66755,13.81072 -152.35196,-0.0127 -304.70406,0.006 -457.05582,-0.01 -14.96405,-0.31983 -30.863922,-3.84703 -42.026993,-14.46055 -11.447678,-11.0589 -15.619858,-27.54866 -15.715225,-43.02379 0.02388,-152.35156 0.0082,-304.70306 0.0078,-457.054486 0.419311,-14.775544 4.031494,-30.317505 14.09906,-41.614258 8.437408,-9.563507 20.81102,-14.662064 33.204224,-16.565277 z m 0,0"
           id="path4913" />
        <path
           inkscape:connector-curvature="0"
           style="fill:#000000;fill-rule:nonzero;stroke:none"
           d="m 67.550919,21.773926 c 5.448104,-0.834793 10.961776,-1.168579 16.468856,-1.276489 143.988895,0.01057 287.977755,0.0014 431.966795,0.0046 11.62419,0.05846 23.40125,-0.526428 34.83319,2.038391 11.48223,2.441635 22.70526,8.151718 29.89469,17.659317 7.87158,10.112656 11.07522,23.047653 11.91118,35.635346 0.52348,5.377716 0.0126,10.766769 0.12138,16.154037 0.002,149.034142 0.006,298.068422 -0.002,447.102502 -0.47928,15.02805 -4.56612,31.11974 -16.03936,41.59946 -11.16827,10.29089 -26.92433,13.50371 -41.66755,13.81072 -152.35196,-0.0127 -304.70406,0.006 -457.05582,-0.01 -14.96405,-0.31983 -30.863922,-3.84703 -42.026993,-14.46055 -11.447678,-11.0589 -15.619858,-27.54866 -15.715225,-43.02379 0.02388,-152.35156 0.0082,-304.70306 0.0078,-457.054486 0.419311,-14.775544 4.031494,-30.317505 14.09906,-41.614258 8.437408,-9.563507 20.81102,-14.662064 33.204224,-16.565277 z m 0,0"
           id="path4915" />
        <path
           inkscape:connector-curvature="0"
           style="fill:none;stroke:#ffffff;stroke-width:0.1;stroke-linecap:butt;stroke-linejoin:miter;stroke-miterlimit:10"
           d="m 407.49925,187.74844 c -1.5e-4,-26.66621 -0.007,-53.33206 0.003,-79.99803 39.83141,-0.003 79.66283,-0.001 119.49475,-8.2e-4 0.003,13.66711 0.006,27.33421 -10e-4,41.00175 -26.41509,-0.004 -52.82955,-0.005 -79.24382,5.5e-4 -0.006,26.74794 -0.004,53.49581 -7.4e-4,80.24405 -26.75025,0.0111 -53.49995,-0.002 -80.24952,0.007 -10e-4,27.16552 0.003,54.33101 -0.002,81.49695 -26.74857,0.003 -53.49663,0.005 -80.24466,-10e-4 -0.01,26.99951 5.6e-4,53.99908 -0.005,80.99917 -26.74924,0.01 -53.49805,0.002 -80.24688,0.004 -0.007,27.16562 -3.5e-4,54.33136 -0.003,81.49768 -39.99979,9.4e-4 -79.99927,8.2e-4 -119.998884,6e-5 3.05e-4,-13.75078 -0.0043,-27.5006 0.0024,-41.24991 26.664264,5e-5 53.328384,-0.003 79.992844,0.002 0.0127,-27.16806 -0.005,-54.33557 0.009,-81.50297 26.49627,0.005 52.99247,0.002 79.48908,0.002 0.0106,-27.33293 -3.5e-4,-54.66541 0.005,-81.99784 26.99865,-0.005 53.99729,0.002 80.99642,-0.003 0.009,-26.83323 -0.006,-53.66605 0.007,-80.49889 26.66529,-0.004 53.33065,2.1e-4 79.99656,-0.002 z m 0,0"
           id="path4917" />
        <path
           inkscape:connector-curvature="0"
           style="fill:#ffffff;fill-rule:nonzero;stroke:none"
           d="m 407.49925,187.74844 c -1.5e-4,-26.66621 -0.007,-53.33206 0.003,-79.99803 39.83141,-0.003 79.66283,-0.001 119.49475,-8.2e-4 0.003,13.66711 0.006,27.33421 -10e-4,41.00175 -26.41509,-0.004 -52.82955,-0.005 -79.24382,5.5e-4 -0.006,26.74794 -0.004,53.49581 -7.4e-4,80.24405 -26.75025,0.0111 -53.49995,-0.002 -80.24952,0.007 -10e-4,27.16552 0.003,54.33101 -0.002,81.49695 -26.74857,0.003 -53.49663,0.005 -80.24466,-10e-4 -0.01,26.99951 5.6e-4,53.99908 -0.005,80.99917 -26.74924,0.01 -53.49805,0.002 -80.24688,0.004 -0.007,27.16562 -3.5e-4,54.33136 -0.003,81.49768 -39.99979,9.4e-4 -79.99927,8.2e-4 -119.998884,6e-5 3.05e-4,-13.75078 -0.0043,-27.5006 0.0024,-41.24991 26.664264,5e-5 53.328384,-0.003 79.992844,0.002 0.0127,-27.16806 -0.005,-54.33557 0.009,-81.50297 26.49627,0.005 52.99247,0.002 79.48908,0.002 0.0106,-27.33293 -3.5e-4,-54.66541 0.005,-81.99784 26.99865,-0.005 53.99729,0.002 80.99642,-0.003 0.009,-26.83323 -0.006,-53.66605 0.007,-80.49889 26.66529,-0.004 53.33065,2.1e-4 79.99656,-0.002 z m 0,0"
           id="path4919" />
        <path
           inkscape:connector-curvature="0"
           style="fill:none;stroke:#ffffff;stroke-width:0.1;stroke-linecap:butt;stroke-linejoin:miter;stroke-miterlimit:10"
           d="m 360.7312,356.46989 c 1.46202,-6.38227 7.58989,-11.00686 14.09993,-10.93734 23.41052,-0.0839 46.82446,-0.008 70.23686,-0.0374 4.21598,-0.027 8.59888,0.91733 11.97475,3.57302 4.21582,3.21745 6.23842,8.63981 6.20732,13.83815 0.0107,23.35768 -0.0168,46.71623 0.0134,70.07478 0.074,3.86874 -0.86429,7.9176 -3.52043,10.85399 -5.89498,6.60814 -17.60251,6.43582 -23.33739,-0.29379 -2.33978,-2.55329 -3.42949,-6.05492 -3.41178,-9.47422 0.006,-11.97717 0.008,-23.95382 0.004,-35.92964 -22.82657,22.80248 -45.61797,45.64095 -68.45505,68.43231 -4.11286,4.12874 -10.37816,6.35341 -16.09088,4.62 -7.06639,-1.88863 -12.2786,-9.24063 -11.30904,-16.55792 0.45856,-4.15886 2.83589,-7.81562 5.77263,-10.68064 22.73311,-22.73436 45.47359,-45.46142 68.19815,-68.20439 -12.91511,-0.0707 -25.83946,0.14642 -38.74686,-0.10112 -8.98715,-0.81616 -14.20428,-10.99373 -11.6358,-19.1758 z m 0,0"
           id="path4921" />
        <path
           inkscape:connector-curvature="0"
           style="fill:#ffffff;fill-rule:nonzero;stroke:none"
           d="m 360.7312,356.46989 c 1.46202,-6.38227 7.58989,-11.00686 14.09993,-10.93734 23.41052,-0.0839 46.82446,-0.008 70.23686,-0.0374 4.21598,-0.027 8.59888,0.91733 11.97475,3.57302 4.21582,3.21745 6.23842,8.63981 6.20732,13.83815 0.0107,23.35768 -0.0168,46.71623 0.0134,70.07478 0.074,3.86874 -0.86429,7.9176 -3.52043,10.85399 -5.89498,6.60814 -17.60251,6.43582 -23.33739,-0.29379 -2.33978,-2.55329 -3.42949,-6.05492 -3.41178,-9.47422 0.006,-11.97717 0.008,-23.95382 0.004,-35.92964 -22.82657,22.80248 -45.61797,45.64095 -68.45505,68.43231 -4.11286,4.12874 -10.37816,6.35341 -16.09088,4.62 -7.06639,-1.88863 -12.2786,-9.24063 -11.30904,-16.55792 0.45856,-4.15886 2.83589,-7.81562 5.77263,-10.68064 22.73311,-22.73436 45.47359,-45.46142 68.19815,-68.20439 -12.91511,-0.0707 -25.83946,0.14642 -38.74686,-0.10112 -8.98715,-0.81616 -14.20428,-10.99373 -11.6358,-19.1758 z m 0,0"
           id="path4923" />
      </g>
    </a>
    <a
       xlink:href="map-vj-va0.svg"
       id="a5015">
      <g
         transform="matrix(0.0965443,0,0,0.0965443,-493.72546,218.89618)"
         id="surface0-5"
         clip-path="url(#clip0-8)">
        <path
           inkscape:connector-curvature="0"
           style="fill:none;stroke:#ffffff;stroke-width:0.1;stroke-linecap:butt;stroke-linejoin:miter;stroke-miterlimit:10"
           d="M 0,0 613,0 613,615 0,615 0,0 z m 0,0"
           id="path4909-0" />
        <path
           inkscape:connector-curvature="0"
           style="fill:#ffffff;fill-rule:nonzero;stroke:none"
           d="M 0,0 613,0 613,615 0,615 0,0 z m 0,0"
           id="path4911-9" />
        <path
           inkscape:connector-curvature="0"
           style="fill:none;stroke:#000000;stroke-width:0.1;stroke-linecap:butt;stroke-linejoin:miter;stroke-miterlimit:10"
           d="m 67.550919,21.773926 c 5.448104,-0.834793 10.961776,-1.168579 16.468856,-1.276489 143.988895,0.01057 287.977755,0.0014 431.966795,0.0046 11.62419,0.05846 23.40125,-0.526428 34.83319,2.038391 11.48223,2.441635 22.70526,8.151718 29.89469,17.659317 7.87158,10.112656 11.07522,23.047653 11.91118,35.635346 0.52348,5.377716 0.0126,10.766769 0.12138,16.154037 0.002,149.034142 0.006,298.068422 -0.002,447.102502 -0.47928,15.02805 -4.56612,31.11974 -16.03936,41.59946 -11.16827,10.29089 -26.92433,13.50371 -41.66755,13.81072 -152.35196,-0.0127 -304.70406,0.006 -457.05582,-0.01 -14.96405,-0.31983 -30.863922,-3.84703 -42.026993,-14.46055 -11.447678,-11.0589 -15.619858,-27.54866 -15.715225,-43.02379 0.02388,-152.35156 0.0082,-304.70306 0.0078,-457.054486 0.419311,-14.775544 4.031494,-30.317505 14.09906,-41.614258 8.437408,-9.563507 20.81102,-14.662064 33.204224,-16.565277 z m 0,0"
           id="path4913-2" />
        <path
           inkscape:connector-curvature="0"
           style="fill:#000000;fill-rule:nonzero;stroke:none"
           d="m 67.550919,21.773926 c 5.448104,-0.834793 10.961776,-1.168579 16.468856,-1.276489 143.988895,0.01057 287.977755,0.0014 431.966795,0.0046 11.62419,0.05846 23.40125,-0.526428 34.83319,2.038391 11.48223,2.441635 22.70526,8.151718 29.89469,17.659317 7.87158,10.112656 11.07522,23.047653 11.91118,35.635346 0.52348,5.377716 0.0126,10.766769 0.12138,16.154037 0.002,149.034142 0.006,298.068422 -0.002,447.102502 -0.47928,15.02805 -4.56612,31.11974 -16.03936,41.59946 -11.16827,10.29089 -26.92433,13.50371 -41.66755,13.81072 -152.35196,-0.0127 -304.70406,0.006 -457.05582,-0.01 -14.96405,-0.31983 -30.863922,-3.84703 -42.026993,-14.46055 -11.447678,-11.0589 -15.619858,-27.54866 -15.715225,-43.02379 0.02388,-152.35156 0.0082,-304.70306 0.0078,-457.054486 0.419311,-14.775544 4.031494,-30.317505 14.09906,-41.614258 8.437408,-9.563507 20.81102,-14.662064 33.204224,-16.565277 z m 0,0"
           id="path4915-9" />
        <path
           inkscape:connector-curvature="0"
           style="fill:none;stroke:#ffffff;stroke-width:0.1;stroke-linecap:butt;stroke-linejoin:miter;stroke-miterlimit:10"
           d="m 407.49925,187.74844 c -1.5e-4,-26.66621 -0.007,-53.33206 0.003,-79.99803 39.83141,-0.003 79.66283,-0.001 119.49475,-8.2e-4 0.003,13.66711 0.006,27.33421 -10e-4,41.00175 -26.41509,-0.004 -52.82955,-0.005 -79.24382,5.5e-4 -0.006,26.74794 -0.004,53.49581 -7.4e-4,80.24405 -26.75025,0.0111 -53.49995,-0.002 -80.24952,0.007 -10e-4,27.16552 0.003,54.33101 -0.002,81.49695 -26.74857,0.003 -53.49663,0.005 -80.24466,-10e-4 -0.01,26.99951 5.6e-4,53.99908 -0.005,80.99917 -26.74924,0.01 -53.49805,0.002 -80.24688,0.004 -0.007,27.16562 -3.5e-4,54.33136 -0.003,81.49768 -39.99979,9.4e-4 -79.99927,8.2e-4 -119.998884,6e-5 3.05e-4,-13.75078 -0.0043,-27.5006 0.0024,-41.24991 26.664264,5e-5 53.328384,-0.003 79.992844,0.002 0.0127,-27.16806 -0.005,-54.33557 0.009,-81.50297 26.49627,0.005 52.99247,0.002 79.48908,0.002 0.0106,-27.33293 -3.5e-4,-54.66541 0.005,-81.99784 26.99865,-0.005 53.99729,0.002 80.99642,-0.003 0.009,-26.83323 -0.006,-53.66605 0.007,-80.49889 26.66529,-0.004 53.33065,2.1e-4 79.99656,-0.002 z m 0,0"
           id="path4917-0" />
        <path
           inkscape:connector-curvature="0"
           style="fill:#ffffff;fill-rule:nonzero;stroke:none"
           d="m 407.49925,187.74844 c -1.5e-4,-26.66621 -0.007,-53.33206 0.003,-79.99803 39.83141,-0.003 79.66283,-0.001 119.49475,-8.2e-4 0.003,13.66711 0.006,27.33421 -10e-4,41.00175 -26.41509,-0.004 -52.82955,-0.005 -79.24382,5.5e-4 -0.006,26.74794 -0.004,53.49581 -7.4e-4,80.24405 -26.75025,0.0111 -53.49995,-0.002 -80.24952,0.007 -10e-4,27.16552 0.003,54.33101 -0.002,81.49695 -26.74857,0.003 -53.49663,0.005 -80.24466,-10e-4 -0.01,26.99951 5.6e-4,53.99908 -0.005,80.99917 -26.74924,0.01 -53.49805,0.002 -80.24688,0.004 -0.007,27.16562 -3.5e-4,54.33136 -0.003,81.49768 -39.99979,9.4e-4 -79.99927,8.2e-4 -119.998884,6e-5 3.05e-4,-13.75078 -0.0043,-27.5006 0.0024,-41.24991 26.664264,5e-5 53.328384,-0.003 79.992844,0.002 0.0127,-27.16806 -0.005,-54.33557 0.009,-81.50297 26.49627,0.005 52.99247,0.002 79.48908,0.002 0.0106,-27.33293 -3.5e-4,-54.66541 0.005,-81.99784 26.99865,-0.005 53.99729,0.002 80.99642,-0.003 0.009,-26.83323 -0.006,-53.66605 0.007,-80.49889 26.66529,-0.004 53.33065,2.1e-4 79.99656,-0.002 z m 0,0"
           id="path4919-0" />
        <path
           inkscape:connector-curvature="0"
           style="fill:none;stroke:#ffffff;stroke-width:0.1;stroke-linecap:butt;stroke-linejoin:miter;stroke-miterlimit:10"
           d="m 360.7312,356.46989 c 1.46202,-6.38227 7.58989,-11.00686 14.09993,-10.93734 23.41052,-0.0839 46.82446,-0.008 70.23686,-0.0374 4.21598,-0.027 8.59888,0.91733 11.97475,3.57302 4.21582,3.21745 6.23842,8.63981 6.20732,13.83815 0.0107,23.35768 -0.0168,46.71623 0.0134,70.07478 0.074,3.86874 -0.86429,7.9176 -3.52043,10.85399 -5.89498,6.60814 -17.60251,6.43582 -23.33739,-0.29379 -2.33978,-2.55329 -3.42949,-6.05492 -3.41178,-9.47422 0.006,-11.97717 0.008,-23.95382 0.004,-35.92964 -22.82657,22.80248 -45.61797,45.64095 -68.45505,68.43231 -4.11286,4.12874 -10.37816,6.35341 -16.09088,4.62 -7.06639,-1.88863 -12.2786,-9.24063 -11.30904,-16.55792 0.45856,-4.15886 2.83589,-7.81562 5.77263,-10.68064 22.73311,-22.73436 45.47359,-45.46142 68.19815,-68.20439 -12.91511,-0.0707 -25.83946,0.14642 -38.74686,-0.10112 -8.98715,-0.81616 -14.20428,-10.99373 -11.6358,-19.1758 z m 0,0"
           id="path4921-5" />
        <path
           inkscape:connector-curvature="0"
           style="fill:#ffffff;fill-rule:nonzero;stroke:none"
           d="m 360.7312,356.46989 c 1.46202,-6.38227 7.58989,-11.00686 14.09993,-10.93734 23.41052,-0.0839 46.82446,-0.008 70.23686,-0.0374 4.21598,-0.027 8.59888,0.91733 11.97475,3.57302 4.21582,3.21745 6.23842,8.63981 6.20732,13.83815 0.0107,23.35768 -0.0168,46.71623 0.0134,70.07478 0.074,3.86874 -0.86429,7.9176 -3.52043,10.85399 -5.89498,6.60814 -17.60251,6.43582 -23.33739,-0.29379 -2.33978,-2.55329 -3.42949,-6.05492 -3.41178,-9.47422 0.006,-11.97717 0.008,-23.95382 0.004,-35.92964 -22.82657,22.80248 -45.61797,45.64095 -68.45505,68.43231 -4.11286,4.12874 -10.37816,6.35341 -16.09088,4.62 -7.06639,-1.88863 -12.2786,-9.24063 -11.30904,-16.55792 0.45856,-4.15886 2.83589,-7.81562 5.77263,-10.68064 22.73311,-22.73436 45.47359,-45.46142 68.19815,-68.20439 -12.91511,-0.0707 -25.83946,0.14642 -38.74686,-0.10112 -8.98715,-0.81616 -14.20428,-10.99373 -11.6358,-19.1758 z m 0,0"
           id="path4923-5" />
      </g>
    </a>
    <a
       xlink:href="map-vj-va0.svg"
       id="a5037">
      <g
         transform="matrix(0.0965443,0,0,0.0965443,1207.9631,218.68696)"
         id="surface0-8"
         clip-path="url(#clip0-3)">
        <path
           inkscape:connector-curvature="0"
           style="fill:none;stroke:#ffffff;stroke-width:0.1;stroke-linecap:butt;stroke-linejoin:miter;stroke-miterlimit:10"
           d="M 0,0 613,0 613,615 0,615 0,0 z m 0,0"
           id="path4909-2" />
        <path
           inkscape:connector-curvature="0"
           style="fill:#ffffff;fill-rule:nonzero;stroke:none"
           d="M 0,0 613,0 613,615 0,615 0,0 z m 0,0"
           id="path4911-3" />
        <path
           inkscape:connector-curvature="0"
           style="fill:none;stroke:#000000;stroke-width:0.1;stroke-linecap:butt;stroke-linejoin:miter;stroke-miterlimit:10"
           d="m 67.550919,21.773926 c 5.448104,-0.834793 10.961776,-1.168579 16.468856,-1.276489 143.988895,0.01057 287.977755,0.0014 431.966795,0.0046 11.62419,0.05846 23.40125,-0.526428 34.83319,2.038391 11.48223,2.441635 22.70526,8.151718 29.89469,17.659317 7.87158,10.112656 11.07522,23.047653 11.91118,35.635346 0.52348,5.377716 0.0126,10.766769 0.12138,16.154037 0.002,149.034142 0.006,298.068422 -0.002,447.102502 -0.47928,15.02805 -4.56612,31.11974 -16.03936,41.59946 -11.16827,10.29089 -26.92433,13.50371 -41.66755,13.81072 -152.35196,-0.0127 -304.70406,0.006 -457.05582,-0.01 -14.96405,-0.31983 -30.863922,-3.84703 -42.026993,-14.46055 -11.447678,-11.0589 -15.619858,-27.54866 -15.715225,-43.02379 0.02388,-152.35156 0.0082,-304.70306 0.0078,-457.054486 0.419311,-14.775544 4.031494,-30.317505 14.09906,-41.614258 8.437408,-9.563507 20.81102,-14.662064 33.204224,-16.565277 z m 0,0"
           id="path4913-5" />
        <path
           inkscape:connector-curvature="0"
           style="fill:#000000;fill-rule:nonzero;stroke:none"
           d="m 67.550919,21.773926 c 5.448104,-0.834793 10.961776,-1.168579 16.468856,-1.276489 143.988895,0.01057 287.977755,0.0014 431.966795,0.0046 11.62419,0.05846 23.40125,-0.526428 34.83319,2.038391 11.48223,2.441635 22.70526,8.151718 29.89469,17.659317 7.87158,10.112656 11.07522,23.047653 11.91118,35.635346 0.52348,5.377716 0.0126,10.766769 0.12138,16.154037 0.002,149.034142 0.006,298.068422 -0.002,447.102502 -0.47928,15.02805 -4.56612,31.11974 -16.03936,41.59946 -11.16827,10.29089 -26.92433,13.50371 -41.66755,13.81072 -152.35196,-0.0127 -304.70406,0.006 -457.05582,-0.01 -14.96405,-0.31983 -30.863922,-3.84703 -42.026993,-14.46055 -11.447678,-11.0589 -15.619858,-27.54866 -15.715225,-43.02379 0.02388,-152.35156 0.0082,-304.70306 0.0078,-457.054486 0.419311,-14.775544 4.031494,-30.317505 14.09906,-41.614258 8.437408,-9.563507 20.81102,-14.662064 33.204224,-16.565277 z m 0,0"
           id="path4915-7" />
        <path
           inkscape:connector-curvature="0"
           style="fill:none;stroke:#ffffff;stroke-width:0.1;stroke-linecap:butt;stroke-linejoin:miter;stroke-miterlimit:10"
           d="m 407.49925,187.74844 c -1.5e-4,-26.66621 -0.007,-53.33206 0.003,-79.99803 39.83141,-0.003 79.66283,-0.001 119.49475,-8.2e-4 0.003,13.66711 0.006,27.33421 -10e-4,41.00175 -26.41509,-0.004 -52.82955,-0.005 -79.24382,5.5e-4 -0.006,26.74794 -0.004,53.49581 -7.4e-4,80.24405 -26.75025,0.0111 -53.49995,-0.002 -80.24952,0.007 -10e-4,27.16552 0.003,54.33101 -0.002,81.49695 -26.74857,0.003 -53.49663,0.005 -80.24466,-10e-4 -0.01,26.99951 5.6e-4,53.99908 -0.005,80.99917 -26.74924,0.01 -53.49805,0.002 -80.24688,0.004 -0.007,27.16562 -3.5e-4,54.33136 -0.003,81.49768 -39.99979,9.4e-4 -79.99927,8.2e-4 -119.998884,6e-5 3.05e-4,-13.75078 -0.0043,-27.5006 0.0024,-41.24991 26.664264,5e-5 53.328384,-0.003 79.992844,0.002 0.0127,-27.16806 -0.005,-54.33557 0.009,-81.50297 26.49627,0.005 52.99247,0.002 79.48908,0.002 0.0106,-27.33293 -3.5e-4,-54.66541 0.005,-81.99784 26.99865,-0.005 53.99729,0.002 80.99642,-0.003 0.009,-26.83323 -0.006,-53.66605 0.007,-80.49889 26.66529,-0.004 53.33065,2.1e-4 79.99656,-0.002 z m 0,0"
           id="path4917-1" />
        <path
           inkscape:connector-curvature="0"
           style="fill:#ffffff;fill-rule:nonzero;stroke:none"
           d="m 407.49925,187.74844 c -1.5e-4,-26.66621 -0.007,-53.33206 0.003,-79.99803 39.83141,-0.003 79.66283,-0.001 119.49475,-8.2e-4 0.003,13.66711 0.006,27.33421 -10e-4,41.00175 -26.41509,-0.004 -52.82955,-0.005 -79.24382,5.5e-4 -0.006,26.74794 -0.004,53.49581 -7.4e-4,80.24405 -26.75025,0.0111 -53.49995,-0.002 -80.24952,0.007 -10e-4,27.16552 0.003,54.33101 -0.002,81.49695 -26.74857,0.003 -53.49663,0.005 -80.24466,-10e-4 -0.01,26.99951 5.6e-4,53.99908 -0.005,80.99917 -26.74924,0.01 -53.49805,0.002 -80.24688,0.004 -0.007,27.16562 -3.5e-4,54.33136 -0.003,81.49768 -39.99979,9.4e-4 -79.99927,8.2e-4 -119.998884,6e-5 3.05e-4,-13.75078 -0.0043,-27.5006 0.0024,-41.24991 26.664264,5e-5 53.328384,-0.003 79.992844,0.002 0.0127,-27.16806 -0.005,-54.33557 0.009,-81.50297 26.49627,0.005 52.99247,0.002 79.48908,0.002 0.0106,-27.33293 -3.5e-4,-54.66541 0.005,-81.99784 26.99865,-0.005 53.99729,0.002 80.99642,-0.003 0.009,-26.83323 -0.006,-53.66605 0.007,-80.49889 26.66529,-0.004 53.33065,2.1e-4 79.99656,-0.002 z m 0,0"
           id="path4919-4" />
        <path
           inkscape:connector-curvature="0"
           style="fill:none;stroke:#ffffff;stroke-width:0.1;stroke-linecap:butt;stroke-linejoin:miter;stroke-miterlimit:10"
           d="m 360.7312,356.46989 c 1.46202,-6.38227 7.58989,-11.00686 14.09993,-10.93734 23.41052,-0.0839 46.82446,-0.008 70.23686,-0.0374 4.21598,-0.027 8.59888,0.91733 11.97475,3.57302 4.21582,3.21745 6.23842,8.63981 6.20732,13.83815 0.0107,23.35768 -0.0168,46.71623 0.0134,70.07478 0.074,3.86874 -0.86429,7.9176 -3.52043,10.85399 -5.89498,6.60814 -17.60251,6.43582 -23.33739,-0.29379 -2.33978,-2.55329 -3.42949,-6.05492 -3.41178,-9.47422 0.006,-11.97717 0.008,-23.95382 0.004,-35.92964 -22.82657,22.80248 -45.61797,45.64095 -68.45505,68.43231 -4.11286,4.12874 -10.37816,6.35341 -16.09088,4.62 -7.06639,-1.88863 -12.2786,-9.24063 -11.30904,-16.55792 0.45856,-4.15886 2.83589,-7.81562 5.77263,-10.68064 22.73311,-22.73436 45.47359,-45.46142 68.19815,-68.20439 -12.91511,-0.0707 -25.83946,0.14642 -38.74686,-0.10112 -8.98715,-0.81616 -14.20428,-10.99373 -11.6358,-19.1758 z m 0,0"
           id="path4921-2" />
        <path
           inkscape:connector-curvature="0"
           style="fill:#ffffff;fill-rule:nonzero;stroke:none"
           d="m 360.7312,356.46989 c 1.46202,-6.38227 7.58989,-11.00686 14.09993,-10.93734 23.41052,-0.0839 46.82446,-0.008 70.23686,-0.0374 4.21598,-0.027 8.59888,0.91733 11.97475,3.57302 4.21582,3.21745 6.23842,8.63981 6.20732,13.83815 0.0107,23.35768 -0.0168,46.71623 0.0134,70.07478 0.074,3.86874 -0.86429,7.9176 -3.52043,10.85399 -5.89498,6.60814 -17.60251,6.43582 -23.33739,-0.29379 -2.33978,-2.55329 -3.42949,-6.05492 -3.41178,-9.47422 0.006,-11.97717 0.008,-23.95382 0.004,-35.92964 -22.82657,22.80248 -45.61797,45.64095 -68.45505,68.43231 -4.11286,4.12874 -10.37816,6.35341 -16.09088,4.62 -7.06639,-1.88863 -12.2786,-9.24063 -11.30904,-16.55792 0.45856,-4.15886 2.83589,-7.81562 5.77263,-10.68064 22.73311,-22.73436 45.47359,-45.46142 68.19815,-68.20439 -12.91511,-0.0707 -25.83946,0.14642 -38.74686,-0.10112 -8.98715,-0.81616 -14.20428,-10.99373 -11.6358,-19.1758 z m 0,0"
           id="path4923-8" />
      </g>
    </a>
    <text
       xml:space="preserve"
       style="font-style:normal;font-weight:normal;font-size:24px;line-height:0%;font-family:sans-serif;text-align:center;letter-spacing:0px;word-spacing:0px;text-anchor:middle;fill:#000000;fill-opacity:1;stroke:none"
       x="466.64816"
       y="309.76144"
       id="text3973-9"><tspan
         sodipodi:role="line"
         x="466.64816"
         y="309.76144"
         style="font-size:24px;line-height:1.25;font-family:sans-serif"
         id="tspan11010">Laboratoire</tspan><tspan
         sodipodi:role="line"
         x="466.64816"
         y="339.76144"
         style="font-size:24px;line-height:1.25;font-family:sans-serif"
         id="tspan42797">de</tspan><tspan
         sodipodi:role="line"
         x="466.64816"
         y="369.76144"
         style="font-size:24px;line-height:1.25;font-family:sans-serif"
         id="tspan42799">Louis Paster</tspan></text>
    <text
       xml:space="preserve"
       style="font-style:normal;font-weight:normal;line-height:0%;font-family:sans-serif;text-align:center;letter-spacing:0px;word-spacing:0px;text-anchor:middle;fill:#000000;fill-opacity:1;stroke:none"
       x="627.71631"
       y="316.04477"
       id="text3973-9-9"><tspan
         sodipodi:role="line"
         x="627.71631"
         y="316.04477"
         style="font-size:32px;line-height:1.25;font-family:sans-serif"
         id="tspan11010-1">Laboratoire</tspan><tspan
         sodipodi:role="line"
         x="627.71631"
         y="356.04477"
         style="font-size:32px;line-height:1.25;font-family:sans-serif"
         id="tspan42797-2">de</tspan><tspan
         sodipodi:role="line"
         x="627.71631"
         y="396.04477"
         style="font-size:32px;line-height:1.25;font-family:sans-serif"
         id="tspan42799-7">preparation</tspan></text>
    <text
       xml:space="preserve"
       style="font-style:normal;font-weight:normal;line-height:0%;font-family:sans-serif;text-align:center;letter-spacing:0px;word-spacing:0px;text-anchor:middle;fill:#000000;fill-opacity:1;stroke:none"
       x="966.54059"
       y="749.52789"
       id="text3973-0"><tspan
         sodipodi:role="line"
         id="tspan3975-10"
         x="966.54059"
         y="749.52789"
         style="font-size:21.8413px;line-height:1.25;font-family:sans-serif">Laboratoire</tspan><tspan
         sodipodi:role="line"
         x="966.54059"
         y="776.82953"
         id="tspan3977-9"
         style="font-size:21.8413px;line-height:1.25;font-family:sans-serif">Francois - Jacob</tspan></text>
    <text
       xml:space="preserve"
       style="font-style:normal;font-weight:normal;line-height:0%;font-family:sans-serif;text-align:center;letter-spacing:0px;word-spacing:0px;text-anchor:middle;fill:#000000;fill-opacity:1;stroke:none"
       x="585.16248"
       y="105.37558"
       id="text3973-9-8"><tspan
         sodipodi:role="line"
         x="585.16248"
         y="105.37558"
         id="tspan3977-3-4"
         style="font-size:32px;line-height:1.25;font-family:sans-serif">Stockage</tspan><tspan
         sodipodi:role="line"
         x="585.16248"
         y="145.37558"
         style="font-size:32px;line-height:1.25;font-family:sans-serif"
         id="tspan11010-2">ADM</tspan></text>
  </g>
</svg>
