<?xml version="1.0" encoding="UTF-8" standalone="no"?>
<!-- Created with Inkscape (http://www.inkscape.org/) -->

<svg
   xmlns:dc="http://purl.org/dc/elements/1.1/"
   xmlns:cc="http://creativecommons.org/ns#"
   xmlns:rdf="http://www.w3.org/1999/02/22-rdf-syntax-ns#"
   xmlns:svg="http://www.w3.org/2000/svg"
   xmlns="http://www.w3.org/2000/svg"
   xmlns:xlink="http://www.w3.org/1999/xlink"
   xmlns:sodipodi="http://sodipodi.sourceforge.net/DTD/sodipodi-0.dtd"
   xmlns:inkscape="http://www.inkscape.org/namespaces/inkscape"
   version="1.1"
   id="svg869"
   width="100%"
   height="100%"
   viewBox="0 0 4562.4985 2657.939"
   sodipodi:docname="map-kb-voltaire-f3.svg"
   inkscape:version="0.92.2 2405546, 2018-03-11">
  <metadata
     id="metadata875">
    <rdf:RDF>
      <cc:Work
         rdf:about="">
        <dc:format>image/svg+xml</dc:format>
        <dc:type
           rdf:resource="http://purl.org/dc/dcmitype/StillImage" />
        <dc:title />
      </cc:Work>
    </rdf:RDF>
  </metadata>
  <defs
     id="defs873">
    <clipPath
       id="clip0">
      <rect
         y="0"
         x="0"
         id="rect3978"
         height="615"
         width="613" />
    </clipPath>
    <clipPath
       id="clip0-3">
      <rect
         y="0"
         x="0"
         id="rect3978-6"
         height="615"
         width="613" />
    </clipPath>
    <clipPath
       id="clip0-0">
      <rect
         y="0"
         x="0"
         id="rect3978-9"
         height="615"
         width="613" />
    </clipPath>
    <clipPath
       id="clip0-2">
      <rect
         y="0"
         x="0"
         id="rect3978-0"
         height="615"
         width="613" />
    </clipPath>
    <clipPath
       id="clip0-2-2">
      <rect
         y="0"
         x="0"
         id="rect3978-0-9"
         height="615"
         width="613" />
    </clipPath>
  </defs>
  <sodipodi:namedview
     pagecolor="#ffffff"
     bordercolor="#666666"
     borderopacity="1"
     objecttolerance="10"
     gridtolerance="10"
     guidetolerance="10"
     inkscape:pageopacity="0"
     inkscape:pageshadow="2"
     inkscape:window-width="1918"
     inkscape:window-height="1064"
     id="namedview871"
     showgrid="false"
     inkscape:zoom="0.24150219"
     inkscape:cx="1635.8128"
     inkscape:cy="1281.8143"
     inkscape:window-x="0"
     inkscape:window-y="14"
     inkscape:window-maximized="0"
     inkscape:current-layer="svg869"
     fit-margin-top="0"
     fit-margin-left="0"
     fit-margin-right="0"
     fit-margin-bottom="0" />
  <g
     inkscape:groupmode="layer"
     id="layer1"
     inkscape:label="Layer 1"
     transform="translate(-129.70877,-784.8831)" />
  <path
     id="path931"
     style="fill:none;fill-rule:evenodd;stroke:#000000;stroke-width:2;stroke-linecap:butt;stroke-linejoin:miter;stroke-miterlimit:4;stroke-dasharray:none;stroke-opacity:1"
     d="m 2605.6702,230.3842 v 129.5619 m -705.5924,12.5102 V 233.7412 M 1350.7815,372.9739 V 233.7412 m 144.9263,157.3485 h -123.1873 m 1434.7696,1142.8467 h -140.2679"
     inkscape:connector-curvature="0"
     sodipodi:nodetypes="cccccccccc" />
  <a
     xlink:href="map-kb-voltaire-f4.svg"
     id="a4411"
     transform="matrix(1.5925281,0,0,1.5925281,894.4301,116.91246)">
    <g
       transform="matrix(0.26590626,0,0,0.26590626,303.98104,-58.910237)"
       id="g3993">
      <rect
         style="fill:#ffffff;fill-opacity:1;fill-rule:evenodd;stroke:#000000;stroke-width:12.5;stroke-miterlimit:4;stroke-dasharray:none;stroke-opacity:1"
         id="rectBordo"
         width="387.5"
         height="387.5"
         x="6.3000002"
         y="6.3000002"
         rx="50"
         ry="50" />
      <rect
         style="fill:none;stroke:#000000;stroke-width:12.5;stroke-miterlimit:4;stroke-dasharray:none;stroke-opacity:1"
         id="rectAscensore"
         width="320"
         height="235"
         x="40"
         y="125" />
      <g
         id="gUomini">
        <path
           inkscape:connector-curvature="0"
           style="fill:#000000;fill-opacity:1;fill-rule:evenodd;stroke:none"
           d="m 200,156 c -8.3,0 -15,6.7 -15,15 0,8.3 6.7,15 15,15 8.3,0 15,-6.7 15,-15 0,-8.3 -6.7,-15 -15,-15 z m -20.7,33 c -5.7,0 -10.3,4.5 -10.3,10 v 60 c 0,5.5 4.3,10 10,10 v 77 c 0,4.4 3.6,8 8,8 4.4,0 8,-3.6 8,-8 v -77 h 10 c 0,0 0,77 0,77 0,4.4 3.6,8 8,8 4.4,0 8,-3.6 8,-8 v -77 c 5.7,0 10,-4.5 10,-10 v -60 c 0,-5.5 -4.6,-10 -10.3,-10 z"
           id="pathUomo"
           sodipodi:nodetypes="csssscccccsccccscccccc" />
        <use
           height="400"
           width="400"
           id="useUomo2"
           xlink:href="#pathUomo"
           y="0"
           x="-90" />
        <use
           height="400"
           width="400"
           id="useUomo3"
           xlink:href="#pathUomo"
           y="0"
           x="90" />
      </g>
      <path
         inkscape:connector-curvature="0"
         style="fill:#000000;fill-opacity:1;fill-rule:evenodd;stroke:none"
         d="m 96,63 29,-38 29,38 h -19 v 42 H 115 V 63 Z"
         id="pathFrecciaSu"
         sodipodi:nodetypes="cccccccc" />
      <use
         x="150"
         y="-134"
         xlink:href="#pathFrecciaSu"
         id="useFrecciaGiu"
         transform="scale(1,-1)"
         width="400"
         height="400" />
    </g>
  </a>
  <a
     xlink:href="map-kb-voltaire-f5.svg"
     id="a4813"
     transform="matrix(1.2671167,0,0,1.2671167,1505.8023,744.9717)">
    <g
       transform="matrix(0.12918249,0,0,0.12918249,-74.777177,661.68664)"
       id="surface0"
       clip-path="url(#clip0)">
      <path
         inkscape:connector-curvature="0"
         style="fill:none;stroke:#ffffff;stroke-width:0.1;stroke-linecap:butt;stroke-linejoin:miter;stroke-miterlimit:10"
         d="M 0,0 H 613 V 615 H 0 Z m 0,0"
         id="path3981" />
      <path
         inkscape:connector-curvature="0"
         style="fill:#ffffff;fill-rule:nonzero;stroke:none"
         d="M 0,0 H 613 V 615 H 0 Z m 0,0"
         id="path3983" />
      <path
         inkscape:connector-curvature="0"
         style="fill:none;stroke:#000000;stroke-width:0.1;stroke-linecap:butt;stroke-linejoin:miter;stroke-miterlimit:10"
         d="m 67.550919,21.773926 c 5.448104,-0.834793 10.961776,-1.168579 16.468856,-1.276489 143.988895,0.01057 287.977755,0.0014 431.966795,0.0046 11.62419,0.05846 23.40125,-0.526428 34.83319,2.038391 11.48223,2.441635 22.70526,8.151718 29.89469,17.659317 7.87158,10.112656 11.07522,23.047653 11.91118,35.635346 0.52348,5.377716 0.0126,10.766769 0.12138,16.154037 0.002,149.034142 0.006,298.068422 -0.002,447.102502 -0.47928,15.02805 -4.56612,31.11974 -16.03936,41.59946 -11.16827,10.29089 -26.92433,13.50371 -41.66755,13.81072 -152.35196,-0.0127 -304.70406,0.006 -457.05582,-0.01 -14.96405,-0.31983 -30.863922,-3.84703 -42.026993,-14.46055 -11.447678,-11.0589 -15.619858,-27.54866 -15.715225,-43.02379 0.02388,-152.35156 0.0082,-304.70306 0.0078,-457.054486 0.419311,-14.775544 4.031494,-30.317505 14.09906,-41.614258 8.437408,-9.563507 20.81102,-14.662064 33.204224,-16.565277 z m 0,0"
         id="path3985" />
      <path
         inkscape:connector-curvature="0"
         style="fill:#000000;fill-rule:nonzero;stroke:none"
         d="m 67.550919,21.773926 c 5.448104,-0.834793 10.961776,-1.168579 16.468856,-1.276489 143.988895,0.01057 287.977755,0.0014 431.966795,0.0046 11.62419,0.05846 23.40125,-0.526428 34.83319,2.038391 11.48223,2.441635 22.70526,8.151718 29.89469,17.659317 7.87158,10.112656 11.07522,23.047653 11.91118,35.635346 0.52348,5.377716 0.0126,10.766769 0.12138,16.154037 0.002,149.034142 0.006,298.068422 -0.002,447.102502 -0.47928,15.02805 -4.56612,31.11974 -16.03936,41.59946 -11.16827,10.29089 -26.92433,13.50371 -41.66755,13.81072 -152.35196,-0.0127 -304.70406,0.006 -457.05582,-0.01 -14.96405,-0.31983 -30.863922,-3.84703 -42.026993,-14.46055 -11.447678,-11.0589 -15.619858,-27.54866 -15.715225,-43.02379 0.02388,-152.35156 0.0082,-304.70306 0.0078,-457.054486 0.419311,-14.775544 4.031494,-30.317505 14.09906,-41.614258 8.437408,-9.563507 20.81102,-14.662064 33.204224,-16.565277 z m 0,0"
         id="path3987" />
      <path
         inkscape:connector-curvature="0"
         style="fill:none;stroke:#ffffff;stroke-width:0.1;stroke-linecap:butt;stroke-linejoin:miter;stroke-miterlimit:10"
         d="m 407.49925,187.74844 c -1.5e-4,-26.66621 -0.007,-53.33206 0.003,-79.99803 39.83141,-0.003 79.66283,-0.001 119.49475,-8.2e-4 0.003,13.66711 0.006,27.33421 -10e-4,41.00175 -26.41509,-0.004 -52.82955,-0.005 -79.24382,5.5e-4 -0.006,26.74794 -0.004,53.49581 -7.4e-4,80.24405 -26.75025,0.0111 -53.49995,-0.002 -80.24952,0.007 -10e-4,27.16552 0.003,54.33101 -0.002,81.49695 -26.74857,0.003 -53.49663,0.005 -80.24466,-10e-4 -0.01,26.99951 5.6e-4,53.99908 -0.005,80.99917 -26.74924,0.01 -53.49805,0.002 -80.24688,0.004 -0.007,27.16562 -3.5e-4,54.33136 -0.003,81.49768 -39.99979,9.4e-4 -79.99927,8.2e-4 -119.998884,6e-5 3.05e-4,-13.75078 -0.0043,-27.5006 0.0024,-41.24991 26.664264,5e-5 53.328384,-0.003 79.992844,0.002 0.0127,-27.16806 -0.005,-54.33557 0.009,-81.50297 26.49627,0.005 52.99247,0.002 79.48908,0.002 0.0106,-27.33293 -3.5e-4,-54.66541 0.005,-81.99784 26.99865,-0.005 53.99729,0.002 80.99642,-0.003 0.009,-26.83323 -0.006,-53.66605 0.007,-80.49889 26.66529,-0.004 53.33065,2.1e-4 79.99656,-0.002 z m 0,0"
         id="path3989" />
      <path
         inkscape:connector-curvature="0"
         style="fill:#ffffff;fill-rule:nonzero;stroke:none"
         d="m 407.49925,187.74844 c -1.5e-4,-26.66621 -0.007,-53.33206 0.003,-79.99803 39.83141,-0.003 79.66283,-0.001 119.49475,-8.2e-4 0.003,13.66711 0.006,27.33421 -10e-4,41.00175 -26.41509,-0.004 -52.82955,-0.005 -79.24382,5.5e-4 -0.006,26.74794 -0.004,53.49581 -7.4e-4,80.24405 -26.75025,0.0111 -53.49995,-0.002 -80.24952,0.007 -10e-4,27.16552 0.003,54.33101 -0.002,81.49695 -26.74857,0.003 -53.49663,0.005 -80.24466,-10e-4 -0.01,26.99951 5.6e-4,53.99908 -0.005,80.99917 -26.74924,0.01 -53.49805,0.002 -80.24688,0.004 -0.007,27.16562 -3.5e-4,54.33136 -0.003,81.49768 -39.99979,9.4e-4 -79.99927,8.2e-4 -119.998884,6e-5 3.05e-4,-13.75078 -0.0043,-27.5006 0.0024,-41.24991 26.664264,5e-5 53.328384,-0.003 79.992844,0.002 0.0127,-27.16806 -0.005,-54.33557 0.009,-81.50297 26.49627,0.005 52.99247,0.002 79.48908,0.002 0.0106,-27.33293 -3.5e-4,-54.66541 0.005,-81.99784 26.99865,-0.005 53.99729,0.002 80.99642,-0.003 0.009,-26.83323 -0.006,-53.66605 0.007,-80.49889 26.66529,-0.004 53.33065,2.1e-4 79.99656,-0.002 z m 0,0"
         id="path3991" />
      <path
         inkscape:connector-curvature="0"
         style="fill:none;stroke:#ffffff;stroke-width:0.1;stroke-linecap:butt;stroke-linejoin:miter;stroke-miterlimit:10"
         d="m 360.7312,356.46989 c 1.46202,-6.38227 7.58989,-11.00686 14.09993,-10.93734 23.41052,-0.0839 46.82446,-0.008 70.23686,-0.0374 4.21598,-0.027 8.59888,0.91733 11.97475,3.57302 4.21582,3.21745 6.23842,8.63981 6.20732,13.83815 0.0107,23.35768 -0.0168,46.71623 0.0134,70.07478 0.074,3.86874 -0.86429,7.9176 -3.52043,10.85399 -5.89498,6.60814 -17.60251,6.43582 -23.33739,-0.29379 -2.33978,-2.55329 -3.42949,-6.05492 -3.41178,-9.47422 0.006,-11.97717 0.008,-23.95382 0.004,-35.92964 -22.82657,22.80248 -45.61797,45.64095 -68.45505,68.43231 -4.11286,4.12874 -10.37816,6.35341 -16.09088,4.62 -7.06639,-1.88863 -12.2786,-9.24063 -11.30904,-16.55792 0.45856,-4.15886 2.83589,-7.81562 5.77263,-10.68064 22.73311,-22.73436 45.47359,-45.46142 68.19815,-68.20439 -12.91511,-0.0707 -25.83946,0.14642 -38.74686,-0.10112 -8.98715,-0.81616 -14.20428,-10.99373 -11.6358,-19.1758 z m 0,0"
         id="path3993" />
      <path
         inkscape:connector-curvature="0"
         style="fill:#ffffff;fill-rule:nonzero;stroke:none"
         d="m 360.7312,356.46989 c 1.46202,-6.38227 7.58989,-11.00686 14.09993,-10.93734 23.41052,-0.0839 46.82446,-0.008 70.23686,-0.0374 4.21598,-0.027 8.59888,0.91733 11.97475,3.57302 4.21582,3.21745 6.23842,8.63981 6.20732,13.83815 0.0107,23.35768 -0.0168,46.71623 0.0134,70.07478 0.074,3.86874 -0.86429,7.9176 -3.52043,10.85399 -5.89498,6.60814 -17.60251,6.43582 -23.33739,-0.29379 -2.33978,-2.55329 -3.42949,-6.05492 -3.41178,-9.47422 0.006,-11.97717 0.008,-23.95382 0.004,-35.92964 -22.82657,22.80248 -45.61797,45.64095 -68.45505,68.43231 -4.11286,4.12874 -10.37816,6.35341 -16.09088,4.62 -7.06639,-1.88863 -12.2786,-9.24063 -11.30904,-16.55792 0.45856,-4.15886 2.83589,-7.81562 5.77263,-10.68064 22.73311,-22.73436 45.47359,-45.46142 68.19815,-68.20439 -12.91511,-0.0707 -25.83946,0.14642 -38.74686,-0.10112 -8.98715,-0.81616 -14.20428,-10.99373 -11.6358,-19.1758 z m 0,0"
         id="path3995" />
    </g>
  </a>
  <a
     xlink:href="map-kb-voltaire-f4.svg"
     id="a4813-7"
     transform="matrix(1.2671167,0,0,1.2671167,953.94113,721.2541)">
    <g
       transform="matrix(0.12918249,0,0,0.12918249,-74.777177,661.68664)"
       id="surface0-5"
       clip-path="url(#clip0-3)">
      <path
         inkscape:connector-curvature="0"
         style="fill:none;stroke:#ffffff;stroke-width:0.1;stroke-linecap:butt;stroke-linejoin:miter;stroke-miterlimit:10"
         d="M 0,0 H 613 V 615 H 0 Z m 0,0"
         id="path3981-3" />
      <path
         inkscape:connector-curvature="0"
         style="fill:#ffffff;fill-rule:nonzero;stroke:none"
         d="M 0,0 H 613 V 615 H 0 Z m 0,0"
         id="path3983-5" />
      <path
         inkscape:connector-curvature="0"
         style="fill:none;stroke:#000000;stroke-width:0.1;stroke-linecap:butt;stroke-linejoin:miter;stroke-miterlimit:10"
         d="m 67.550919,21.773926 c 5.448104,-0.834793 10.961776,-1.168579 16.468856,-1.276489 143.988895,0.01057 287.977755,0.0014 431.966795,0.0046 11.62419,0.05846 23.40125,-0.526428 34.83319,2.038391 11.48223,2.441635 22.70526,8.151718 29.89469,17.659317 7.87158,10.112656 11.07522,23.047653 11.91118,35.635346 0.52348,5.377716 0.0126,10.766769 0.12138,16.154037 0.002,149.034142 0.006,298.068422 -0.002,447.102502 -0.47928,15.02805 -4.56612,31.11974 -16.03936,41.59946 -11.16827,10.29089 -26.92433,13.50371 -41.66755,13.81072 -152.35196,-0.0127 -304.70406,0.006 -457.05582,-0.01 -14.96405,-0.31983 -30.863922,-3.84703 -42.026993,-14.46055 -11.447678,-11.0589 -15.619858,-27.54866 -15.715225,-43.02379 0.02388,-152.35156 0.0082,-304.70306 0.0078,-457.054486 0.419311,-14.775544 4.031494,-30.317505 14.09906,-41.614258 8.437408,-9.563507 20.81102,-14.662064 33.204224,-16.565277 z m 0,0"
         id="path3985-6" />
      <path
         inkscape:connector-curvature="0"
         style="fill:#000000;fill-rule:nonzero;stroke:none"
         d="m 67.550919,21.773926 c 5.448104,-0.834793 10.961776,-1.168579 16.468856,-1.276489 143.988895,0.01057 287.977755,0.0014 431.966795,0.0046 11.62419,0.05846 23.40125,-0.526428 34.83319,2.038391 11.48223,2.441635 22.70526,8.151718 29.89469,17.659317 7.87158,10.112656 11.07522,23.047653 11.91118,35.635346 0.52348,5.377716 0.0126,10.766769 0.12138,16.154037 0.002,149.034142 0.006,298.068422 -0.002,447.102502 -0.47928,15.02805 -4.56612,31.11974 -16.03936,41.59946 -11.16827,10.29089 -26.92433,13.50371 -41.66755,13.81072 -152.35196,-0.0127 -304.70406,0.006 -457.05582,-0.01 -14.96405,-0.31983 -30.863922,-3.84703 -42.026993,-14.46055 -11.447678,-11.0589 -15.619858,-27.54866 -15.715225,-43.02379 0.02388,-152.35156 0.0082,-304.70306 0.0078,-457.054486 0.419311,-14.775544 4.031494,-30.317505 14.09906,-41.614258 8.437408,-9.563507 20.81102,-14.662064 33.204224,-16.565277 z m 0,0"
         id="path3987-2" />
      <path
         inkscape:connector-curvature="0"
         style="fill:none;stroke:#ffffff;stroke-width:0.1;stroke-linecap:butt;stroke-linejoin:miter;stroke-miterlimit:10"
         d="m 407.49925,187.74844 c -1.5e-4,-26.66621 -0.007,-53.33206 0.003,-79.99803 39.83141,-0.003 79.66283,-0.001 119.49475,-8.2e-4 0.003,13.66711 0.006,27.33421 -10e-4,41.00175 -26.41509,-0.004 -52.82955,-0.005 -79.24382,5.5e-4 -0.006,26.74794 -0.004,53.49581 -7.4e-4,80.24405 -26.75025,0.0111 -53.49995,-0.002 -80.24952,0.007 -10e-4,27.16552 0.003,54.33101 -0.002,81.49695 -26.74857,0.003 -53.49663,0.005 -80.24466,-10e-4 -0.01,26.99951 5.6e-4,53.99908 -0.005,80.99917 -26.74924,0.01 -53.49805,0.002 -80.24688,0.004 -0.007,27.16562 -3.5e-4,54.33136 -0.003,81.49768 -39.99979,9.4e-4 -79.99927,8.2e-4 -119.998884,6e-5 3.05e-4,-13.75078 -0.0043,-27.5006 0.0024,-41.24991 26.664264,5e-5 53.328384,-0.003 79.992844,0.002 0.0127,-27.16806 -0.005,-54.33557 0.009,-81.50297 26.49627,0.005 52.99247,0.002 79.48908,0.002 0.0106,-27.33293 -3.5e-4,-54.66541 0.005,-81.99784 26.99865,-0.005 53.99729,0.002 80.99642,-0.003 0.009,-26.83323 -0.006,-53.66605 0.007,-80.49889 26.66529,-0.004 53.33065,2.1e-4 79.99656,-0.002 z m 0,0"
         id="path3989-9" />
      <path
         inkscape:connector-curvature="0"
         style="fill:#ffffff;fill-rule:nonzero;stroke:none"
         d="m 407.49925,187.74844 c -1.5e-4,-26.66621 -0.007,-53.33206 0.003,-79.99803 39.83141,-0.003 79.66283,-0.001 119.49475,-8.2e-4 0.003,13.66711 0.006,27.33421 -10e-4,41.00175 -26.41509,-0.004 -52.82955,-0.005 -79.24382,5.5e-4 -0.006,26.74794 -0.004,53.49581 -7.4e-4,80.24405 -26.75025,0.0111 -53.49995,-0.002 -80.24952,0.007 -10e-4,27.16552 0.003,54.33101 -0.002,81.49695 -26.74857,0.003 -53.49663,0.005 -80.24466,-10e-4 -0.01,26.99951 5.6e-4,53.99908 -0.005,80.99917 -26.74924,0.01 -53.49805,0.002 -80.24688,0.004 -0.007,27.16562 -3.5e-4,54.33136 -0.003,81.49768 -39.99979,9.4e-4 -79.99927,8.2e-4 -119.998884,6e-5 3.05e-4,-13.75078 -0.0043,-27.5006 0.0024,-41.24991 26.664264,5e-5 53.328384,-0.003 79.992844,0.002 0.0127,-27.16806 -0.005,-54.33557 0.009,-81.50297 26.49627,0.005 52.99247,0.002 79.48908,0.002 0.0106,-27.33293 -3.5e-4,-54.66541 0.005,-81.99784 26.99865,-0.005 53.99729,0.002 80.99642,-0.003 0.009,-26.83323 -0.006,-53.66605 0.007,-80.49889 26.66529,-0.004 53.33065,2.1e-4 79.99656,-0.002 z m 0,0"
         id="path3991-1" />
      <path
         inkscape:connector-curvature="0"
         style="fill:none;stroke:#ffffff;stroke-width:0.1;stroke-linecap:butt;stroke-linejoin:miter;stroke-miterlimit:10"
         d="m 360.7312,356.46989 c 1.46202,-6.38227 7.58989,-11.00686 14.09993,-10.93734 23.41052,-0.0839 46.82446,-0.008 70.23686,-0.0374 4.21598,-0.027 8.59888,0.91733 11.97475,3.57302 4.21582,3.21745 6.23842,8.63981 6.20732,13.83815 0.0107,23.35768 -0.0168,46.71623 0.0134,70.07478 0.074,3.86874 -0.86429,7.9176 -3.52043,10.85399 -5.89498,6.60814 -17.60251,6.43582 -23.33739,-0.29379 -2.33978,-2.55329 -3.42949,-6.05492 -3.41178,-9.47422 0.006,-11.97717 0.008,-23.95382 0.004,-35.92964 -22.82657,22.80248 -45.61797,45.64095 -68.45505,68.43231 -4.11286,4.12874 -10.37816,6.35341 -16.09088,4.62 -7.06639,-1.88863 -12.2786,-9.24063 -11.30904,-16.55792 0.45856,-4.15886 2.83589,-7.81562 5.77263,-10.68064 22.73311,-22.73436 45.47359,-45.46142 68.19815,-68.20439 -12.91511,-0.0707 -25.83946,0.14642 -38.74686,-0.10112 -8.98715,-0.81616 -14.20428,-10.99373 -11.6358,-19.1758 z m 0,0"
         id="path3993-2" />
      <path
         inkscape:connector-curvature="0"
         style="fill:#ffffff;fill-rule:nonzero;stroke:none"
         d="m 360.7312,356.46989 c 1.46202,-6.38227 7.58989,-11.00686 14.09993,-10.93734 23.41052,-0.0839 46.82446,-0.008 70.23686,-0.0374 4.21598,-0.027 8.59888,0.91733 11.97475,3.57302 4.21582,3.21745 6.23842,8.63981 6.20732,13.83815 0.0107,23.35768 -0.0168,46.71623 0.0134,70.07478 0.074,3.86874 -0.86429,7.9176 -3.52043,10.85399 -5.89498,6.60814 -17.60251,6.43582 -23.33739,-0.29379 -2.33978,-2.55329 -3.42949,-6.05492 -3.41178,-9.47422 0.006,-11.97717 0.008,-23.95382 0.004,-35.92964 -22.82657,22.80248 -45.61797,45.64095 -68.45505,68.43231 -4.11286,4.12874 -10.37816,6.35341 -16.09088,4.62 -7.06639,-1.88863 -12.2786,-9.24063 -11.30904,-16.55792 0.45856,-4.15886 2.83589,-7.81562 5.77263,-10.68064 22.73311,-22.73436 45.47359,-45.46142 68.19815,-68.20439 -12.91511,-0.0707 -25.83946,0.14642 -38.74686,-0.10112 -8.98715,-0.81616 -14.20428,-10.99373 -11.6358,-19.1758 z m 0,0"
         id="path3995-7" />
    </g>
  </a>
  <a
     xlink:href="map-kb-voltaire-f5.svg"
     id="a4813-3"
     transform="matrix(1.2671167,0,0,1.2671167,3083.2252,841.4086)">
    <g
       transform="matrix(0.12918249,0,0,0.12918249,-74.777177,661.68664)"
       id="surface0-6"
       clip-path="url(#clip0-0)">
      <path
         inkscape:connector-curvature="0"
         style="fill:none;stroke:#ffffff;stroke-width:0.1;stroke-linecap:butt;stroke-linejoin:miter;stroke-miterlimit:10"
         d="M 0,0 H 613 V 615 H 0 Z m 0,0"
         id="path3981-0" />
      <path
         inkscape:connector-curvature="0"
         style="fill:#ffffff;fill-rule:nonzero;stroke:none"
         d="M 0,0 H 613 V 615 H 0 Z m 0,0"
         id="path3983-6" />
      <path
         inkscape:connector-curvature="0"
         style="fill:none;stroke:#000000;stroke-width:0.1;stroke-linecap:butt;stroke-linejoin:miter;stroke-miterlimit:10"
         d="m 67.550919,21.773926 c 5.448104,-0.834793 10.961776,-1.168579 16.468856,-1.276489 143.988895,0.01057 287.977755,0.0014 431.966795,0.0046 11.62419,0.05846 23.40125,-0.526428 34.83319,2.038391 11.48223,2.441635 22.70526,8.151718 29.89469,17.659317 7.87158,10.112656 11.07522,23.047653 11.91118,35.635346 0.52348,5.377716 0.0126,10.766769 0.12138,16.154037 0.002,149.034142 0.006,298.068422 -0.002,447.102502 -0.47928,15.02805 -4.56612,31.11974 -16.03936,41.59946 -11.16827,10.29089 -26.92433,13.50371 -41.66755,13.81072 -152.35196,-0.0127 -304.70406,0.006 -457.05582,-0.01 -14.96405,-0.31983 -30.863922,-3.84703 -42.026993,-14.46055 -11.447678,-11.0589 -15.619858,-27.54866 -15.715225,-43.02379 0.02388,-152.35156 0.0082,-304.70306 0.0078,-457.054486 0.419311,-14.775544 4.031494,-30.317505 14.09906,-41.614258 8.437408,-9.563507 20.81102,-14.662064 33.204224,-16.565277 z m 0,0"
         id="path3985-2" />
      <path
         inkscape:connector-curvature="0"
         style="fill:#000000;fill-rule:nonzero;stroke:none"
         d="m 67.550919,21.773926 c 5.448104,-0.834793 10.961776,-1.168579 16.468856,-1.276489 143.988895,0.01057 287.977755,0.0014 431.966795,0.0046 11.62419,0.05846 23.40125,-0.526428 34.83319,2.038391 11.48223,2.441635 22.70526,8.151718 29.89469,17.659317 7.87158,10.112656 11.07522,23.047653 11.91118,35.635346 0.52348,5.377716 0.0126,10.766769 0.12138,16.154037 0.002,149.034142 0.006,298.068422 -0.002,447.102502 -0.47928,15.02805 -4.56612,31.11974 -16.03936,41.59946 -11.16827,10.29089 -26.92433,13.50371 -41.66755,13.81072 -152.35196,-0.0127 -304.70406,0.006 -457.05582,-0.01 -14.96405,-0.31983 -30.863922,-3.84703 -42.026993,-14.46055 -11.447678,-11.0589 -15.619858,-27.54866 -15.715225,-43.02379 0.02388,-152.35156 0.0082,-304.70306 0.0078,-457.054486 0.419311,-14.775544 4.031494,-30.317505 14.09906,-41.614258 8.437408,-9.563507 20.81102,-14.662064 33.204224,-16.565277 z m 0,0"
         id="path3987-6" />
      <path
         inkscape:connector-curvature="0"
         style="fill:none;stroke:#ffffff;stroke-width:0.1;stroke-linecap:butt;stroke-linejoin:miter;stroke-miterlimit:10"
         d="m 407.49925,187.74844 c -1.5e-4,-26.66621 -0.007,-53.33206 0.003,-79.99803 39.83141,-0.003 79.66283,-0.001 119.49475,-8.2e-4 0.003,13.66711 0.006,27.33421 -10e-4,41.00175 -26.41509,-0.004 -52.82955,-0.005 -79.24382,5.5e-4 -0.006,26.74794 -0.004,53.49581 -7.4e-4,80.24405 -26.75025,0.0111 -53.49995,-0.002 -80.24952,0.007 -10e-4,27.16552 0.003,54.33101 -0.002,81.49695 -26.74857,0.003 -53.49663,0.005 -80.24466,-10e-4 -0.01,26.99951 5.6e-4,53.99908 -0.005,80.99917 -26.74924,0.01 -53.49805,0.002 -80.24688,0.004 -0.007,27.16562 -3.5e-4,54.33136 -0.003,81.49768 -39.99979,9.4e-4 -79.99927,8.2e-4 -119.998884,6e-5 3.05e-4,-13.75078 -0.0043,-27.5006 0.0024,-41.24991 26.664264,5e-5 53.328384,-0.003 79.992844,0.002 0.0127,-27.16806 -0.005,-54.33557 0.009,-81.50297 26.49627,0.005 52.99247,0.002 79.48908,0.002 0.0106,-27.33293 -3.5e-4,-54.66541 0.005,-81.99784 26.99865,-0.005 53.99729,0.002 80.99642,-0.003 0.009,-26.83323 -0.006,-53.66605 0.007,-80.49889 26.66529,-0.004 53.33065,2.1e-4 79.99656,-0.002 z m 0,0"
         id="path3989-1" />
      <path
         inkscape:connector-curvature="0"
         style="fill:#ffffff;fill-rule:nonzero;stroke:none"
         d="m 407.49925,187.74844 c -1.5e-4,-26.66621 -0.007,-53.33206 0.003,-79.99803 39.83141,-0.003 79.66283,-0.001 119.49475,-8.2e-4 0.003,13.66711 0.006,27.33421 -10e-4,41.00175 -26.41509,-0.004 -52.82955,-0.005 -79.24382,5.5e-4 -0.006,26.74794 -0.004,53.49581 -7.4e-4,80.24405 -26.75025,0.0111 -53.49995,-0.002 -80.24952,0.007 -10e-4,27.16552 0.003,54.33101 -0.002,81.49695 -26.74857,0.003 -53.49663,0.005 -80.24466,-10e-4 -0.01,26.99951 5.6e-4,53.99908 -0.005,80.99917 -26.74924,0.01 -53.49805,0.002 -80.24688,0.004 -0.007,27.16562 -3.5e-4,54.33136 -0.003,81.49768 -39.99979,9.4e-4 -79.99927,8.2e-4 -119.998884,6e-5 3.05e-4,-13.75078 -0.0043,-27.5006 0.0024,-41.24991 26.664264,5e-5 53.328384,-0.003 79.992844,0.002 0.0127,-27.16806 -0.005,-54.33557 0.009,-81.50297 26.49627,0.005 52.99247,0.002 79.48908,0.002 0.0106,-27.33293 -3.5e-4,-54.66541 0.005,-81.99784 26.99865,-0.005 53.99729,0.002 80.99642,-0.003 0.009,-26.83323 -0.006,-53.66605 0.007,-80.49889 26.66529,-0.004 53.33065,2.1e-4 79.99656,-0.002 z m 0,0"
         id="path3991-8" />
      <path
         inkscape:connector-curvature="0"
         style="fill:none;stroke:#ffffff;stroke-width:0.1;stroke-linecap:butt;stroke-linejoin:miter;stroke-miterlimit:10"
         d="m 360.7312,356.46989 c 1.46202,-6.38227 7.58989,-11.00686 14.09993,-10.93734 23.41052,-0.0839 46.82446,-0.008 70.23686,-0.0374 4.21598,-0.027 8.59888,0.91733 11.97475,3.57302 4.21582,3.21745 6.23842,8.63981 6.20732,13.83815 0.0107,23.35768 -0.0168,46.71623 0.0134,70.07478 0.074,3.86874 -0.86429,7.9176 -3.52043,10.85399 -5.89498,6.60814 -17.60251,6.43582 -23.33739,-0.29379 -2.33978,-2.55329 -3.42949,-6.05492 -3.41178,-9.47422 0.006,-11.97717 0.008,-23.95382 0.004,-35.92964 -22.82657,22.80248 -45.61797,45.64095 -68.45505,68.43231 -4.11286,4.12874 -10.37816,6.35341 -16.09088,4.62 -7.06639,-1.88863 -12.2786,-9.24063 -11.30904,-16.55792 0.45856,-4.15886 2.83589,-7.81562 5.77263,-10.68064 22.73311,-22.73436 45.47359,-45.46142 68.19815,-68.20439 -12.91511,-0.0707 -25.83946,0.14642 -38.74686,-0.10112 -8.98715,-0.81616 -14.20428,-10.99373 -11.6358,-19.1758 z m 0,0"
         id="path3993-7" />
      <path
         inkscape:connector-curvature="0"
         style="fill:#ffffff;fill-rule:nonzero;stroke:none"
         d="m 360.7312,356.46989 c 1.46202,-6.38227 7.58989,-11.00686 14.09993,-10.93734 23.41052,-0.0839 46.82446,-0.008 70.23686,-0.0374 4.21598,-0.027 8.59888,0.91733 11.97475,3.57302 4.21582,3.21745 6.23842,8.63981 6.20732,13.83815 0.0107,23.35768 -0.0168,46.71623 0.0134,70.07478 0.074,3.86874 -0.86429,7.9176 -3.52043,10.85399 -5.89498,6.60814 -17.60251,6.43582 -23.33739,-0.29379 -2.33978,-2.55329 -3.42949,-6.05492 -3.41178,-9.47422 0.006,-11.97717 0.008,-23.95382 0.004,-35.92964 -22.82657,22.80248 -45.61797,45.64095 -68.45505,68.43231 -4.11286,4.12874 -10.37816,6.35341 -16.09088,4.62 -7.06639,-1.88863 -12.2786,-9.24063 -11.30904,-16.55792 0.45856,-4.15886 2.83589,-7.81562 5.77263,-10.68064 22.73311,-22.73436 45.47359,-45.46142 68.19815,-68.20439 -12.91511,-0.0707 -25.83946,0.14642 -38.74686,-0.10112 -8.98715,-0.81616 -14.20428,-10.99373 -11.6358,-19.1758 z m 0,0"
         id="path3995-9" />
    </g>
  </a>
  <a
     xlink:href="map-kb-voltaire-f4.svg"
     id="a4813-2"
     transform="matrix(1.3974154,0,0,1.3974154,1861.4507,-521.78468)">
    <g
       transform="matrix(0.12918249,0,0,0.12918249,-74.777177,661.68664)"
       id="surface0-3"
       clip-path="url(#clip0-2)">
      <path
         inkscape:connector-curvature="0"
         style="fill:none;stroke:#ffffff;stroke-width:0.1;stroke-linecap:butt;stroke-linejoin:miter;stroke-miterlimit:10"
         d="M 0,0 H 613 V 615 H 0 Z m 0,0"
         id="path3981-7" />
      <path
         inkscape:connector-curvature="0"
         style="fill:#ffffff;fill-rule:nonzero;stroke:none"
         d="M 0,0 H 613 V 615 H 0 Z m 0,0"
         id="path3983-59" />
      <path
         inkscape:connector-curvature="0"
         style="fill:none;stroke:#000000;stroke-width:0.1;stroke-linecap:butt;stroke-linejoin:miter;stroke-miterlimit:10"
         d="m 67.550919,21.773926 c 5.448104,-0.834793 10.961776,-1.168579 16.468856,-1.276489 143.988895,0.01057 287.977755,0.0014 431.966795,0.0046 11.62419,0.05846 23.40125,-0.526428 34.83319,2.038391 11.48223,2.441635 22.70526,8.151718 29.89469,17.659317 7.87158,10.112656 11.07522,23.047653 11.91118,35.635346 0.52348,5.377716 0.0126,10.766769 0.12138,16.154037 0.002,149.034142 0.006,298.068422 -0.002,447.102502 -0.47928,15.02805 -4.56612,31.11974 -16.03936,41.59946 -11.16827,10.29089 -26.92433,13.50371 -41.66755,13.81072 -152.35196,-0.0127 -304.70406,0.006 -457.05582,-0.01 -14.96405,-0.31983 -30.863922,-3.84703 -42.026993,-14.46055 -11.447678,-11.0589 -15.619858,-27.54866 -15.715225,-43.02379 0.02388,-152.35156 0.0082,-304.70306 0.0078,-457.054486 0.419311,-14.775544 4.031494,-30.317505 14.09906,-41.614258 8.437408,-9.563507 20.81102,-14.662064 33.204224,-16.565277 z m 0,0"
         id="path3985-22" />
      <path
         inkscape:connector-curvature="0"
         style="fill:#000000;fill-rule:nonzero;stroke:none"
         d="m 67.550919,21.773926 c 5.448104,-0.834793 10.961776,-1.168579 16.468856,-1.276489 143.988895,0.01057 287.977755,0.0014 431.966795,0.0046 11.62419,0.05846 23.40125,-0.526428 34.83319,2.038391 11.48223,2.441635 22.70526,8.151718 29.89469,17.659317 7.87158,10.112656 11.07522,23.047653 11.91118,35.635346 0.52348,5.377716 0.0126,10.766769 0.12138,16.154037 0.002,149.034142 0.006,298.068422 -0.002,447.102502 -0.47928,15.02805 -4.56612,31.11974 -16.03936,41.59946 -11.16827,10.29089 -26.92433,13.50371 -41.66755,13.81072 -152.35196,-0.0127 -304.70406,0.006 -457.05582,-0.01 -14.96405,-0.31983 -30.863922,-3.84703 -42.026993,-14.46055 -11.447678,-11.0589 -15.619858,-27.54866 -15.715225,-43.02379 0.02388,-152.35156 0.0082,-304.70306 0.0078,-457.054486 0.419311,-14.775544 4.031494,-30.317505 14.09906,-41.614258 8.437408,-9.563507 20.81102,-14.662064 33.204224,-16.565277 z m 0,0"
         id="path3987-8" />
      <path
         inkscape:connector-curvature="0"
         style="fill:none;stroke:#ffffff;stroke-width:0.1;stroke-linecap:butt;stroke-linejoin:miter;stroke-miterlimit:10"
         d="m 407.49925,187.74844 c -1.5e-4,-26.66621 -0.007,-53.33206 0.003,-79.99803 39.83141,-0.003 79.66283,-0.001 119.49475,-8.2e-4 0.003,13.66711 0.006,27.33421 -10e-4,41.00175 -26.41509,-0.004 -52.82955,-0.005 -79.24382,5.5e-4 -0.006,26.74794 -0.004,53.49581 -7.4e-4,80.24405 -26.75025,0.0111 -53.49995,-0.002 -80.24952,0.007 -10e-4,27.16552 0.003,54.33101 -0.002,81.49695 -26.74857,0.003 -53.49663,0.005 -80.24466,-10e-4 -0.01,26.99951 5.6e-4,53.99908 -0.005,80.99917 -26.74924,0.01 -53.49805,0.002 -80.24688,0.004 -0.007,27.16562 -3.5e-4,54.33136 -0.003,81.49768 -39.99979,9.4e-4 -79.99927,8.2e-4 -119.998884,6e-5 3.05e-4,-13.75078 -0.0043,-27.5006 0.0024,-41.24991 26.664264,5e-5 53.328384,-0.003 79.992844,0.002 0.0127,-27.16806 -0.005,-54.33557 0.009,-81.50297 26.49627,0.005 52.99247,0.002 79.48908,0.002 0.0106,-27.33293 -3.5e-4,-54.66541 0.005,-81.99784 26.99865,-0.005 53.99729,0.002 80.99642,-0.003 0.009,-26.83323 -0.006,-53.66605 0.007,-80.49889 26.66529,-0.004 53.33065,2.1e-4 79.99656,-0.002 z m 0,0"
         id="path3989-97" />
      <path
         inkscape:connector-curvature="0"
         style="fill:#ffffff;fill-rule:nonzero;stroke:none"
         d="m 407.49925,187.74844 c -1.5e-4,-26.66621 -0.007,-53.33206 0.003,-79.99803 39.83141,-0.003 79.66283,-0.001 119.49475,-8.2e-4 0.003,13.66711 0.006,27.33421 -10e-4,41.00175 -26.41509,-0.004 -52.82955,-0.005 -79.24382,5.5e-4 -0.006,26.74794 -0.004,53.49581 -7.4e-4,80.24405 -26.75025,0.0111 -53.49995,-0.002 -80.24952,0.007 -10e-4,27.16552 0.003,54.33101 -0.002,81.49695 -26.74857,0.003 -53.49663,0.005 -80.24466,-10e-4 -0.01,26.99951 5.6e-4,53.99908 -0.005,80.99917 -26.74924,0.01 -53.49805,0.002 -80.24688,0.004 -0.007,27.16562 -3.5e-4,54.33136 -0.003,81.49768 -39.99979,9.4e-4 -79.99927,8.2e-4 -119.998884,6e-5 3.05e-4,-13.75078 -0.0043,-27.5006 0.0024,-41.24991 26.664264,5e-5 53.328384,-0.003 79.992844,0.002 0.0127,-27.16806 -0.005,-54.33557 0.009,-81.50297 26.49627,0.005 52.99247,0.002 79.48908,0.002 0.0106,-27.33293 -3.5e-4,-54.66541 0.005,-81.99784 26.99865,-0.005 53.99729,0.002 80.99642,-0.003 0.009,-26.83323 -0.006,-53.66605 0.007,-80.49889 26.66529,-0.004 53.33065,2.1e-4 79.99656,-0.002 z m 0,0"
         id="path3991-3" />
      <path
         inkscape:connector-curvature="0"
         style="fill:none;stroke:#ffffff;stroke-width:0.1;stroke-linecap:butt;stroke-linejoin:miter;stroke-miterlimit:10"
         d="m 360.7312,356.46989 c 1.46202,-6.38227 7.58989,-11.00686 14.09993,-10.93734 23.41052,-0.0839 46.82446,-0.008 70.23686,-0.0374 4.21598,-0.027 8.59888,0.91733 11.97475,3.57302 4.21582,3.21745 6.23842,8.63981 6.20732,13.83815 0.0107,23.35768 -0.0168,46.71623 0.0134,70.07478 0.074,3.86874 -0.86429,7.9176 -3.52043,10.85399 -5.89498,6.60814 -17.60251,6.43582 -23.33739,-0.29379 -2.33978,-2.55329 -3.42949,-6.05492 -3.41178,-9.47422 0.006,-11.97717 0.008,-23.95382 0.004,-35.92964 -22.82657,22.80248 -45.61797,45.64095 -68.45505,68.43231 -4.11286,4.12874 -10.37816,6.35341 -16.09088,4.62 -7.06639,-1.88863 -12.2786,-9.24063 -11.30904,-16.55792 0.45856,-4.15886 2.83589,-7.81562 5.77263,-10.68064 22.73311,-22.73436 45.47359,-45.46142 68.19815,-68.20439 -12.91511,-0.0707 -25.83946,0.14642 -38.74686,-0.10112 -8.98715,-0.81616 -14.20428,-10.99373 -11.6358,-19.1758 z m 0,0"
         id="path3993-6" />
      <path
         inkscape:connector-curvature="0"
         style="fill:#ffffff;fill-rule:nonzero;stroke:none"
         d="m 360.7312,356.46989 c 1.46202,-6.38227 7.58989,-11.00686 14.09993,-10.93734 23.41052,-0.0839 46.82446,-0.008 70.23686,-0.0374 4.21598,-0.027 8.59888,0.91733 11.97475,3.57302 4.21582,3.21745 6.23842,8.63981 6.20732,13.83815 0.0107,23.35768 -0.0168,46.71623 0.0134,70.07478 0.074,3.86874 -0.86429,7.9176 -3.52043,10.85399 -5.89498,6.60814 -17.60251,6.43582 -23.33739,-0.29379 -2.33978,-2.55329 -3.42949,-6.05492 -3.41178,-9.47422 0.006,-11.97717 0.008,-23.95382 0.004,-35.92964 -22.82657,22.80248 -45.61797,45.64095 -68.45505,68.43231 -4.11286,4.12874 -10.37816,6.35341 -16.09088,4.62 -7.06639,-1.88863 -12.2786,-9.24063 -11.30904,-16.55792 0.45856,-4.15886 2.83589,-7.81562 5.77263,-10.68064 22.73311,-22.73436 45.47359,-45.46142 68.19815,-68.20439 -12.91511,-0.0707 -25.83946,0.14642 -38.74686,-0.10112 -8.98715,-0.81616 -14.20428,-10.99373 -11.6358,-19.1758 z m 0,0"
         id="path3995-1" />
    </g>
  </a>
  <a
     xlink:href="map-kb-voltaire-f4.svg"
     id="a4813-2-3"
     transform="matrix(1.3974154,0,0,1.3974154,2731.2438,-533.1928)">
    <g
       transform="matrix(0.12918249,0,0,0.12918249,-74.777177,661.68664)"
       id="surface0-3-1"
       clip-path="url(#clip0-2-2)">
      <path
         inkscape:connector-curvature="0"
         style="fill:none;stroke:#ffffff;stroke-width:0.1;stroke-linecap:butt;stroke-linejoin:miter;stroke-miterlimit:10"
         d="M 0,0 H 613 V 615 H 0 Z m 0,0"
         id="path3981-7-9" />
      <path
         inkscape:connector-curvature="0"
         style="fill:#ffffff;fill-rule:nonzero;stroke:none"
         d="M 0,0 H 613 V 615 H 0 Z m 0,0"
         id="path3983-59-4" />
      <path
         inkscape:connector-curvature="0"
         style="fill:none;stroke:#000000;stroke-width:0.1;stroke-linecap:butt;stroke-linejoin:miter;stroke-miterlimit:10"
         d="m 67.550919,21.773926 c 5.448104,-0.834793 10.961776,-1.168579 16.468856,-1.276489 143.988895,0.01057 287.977755,0.0014 431.966795,0.0046 11.62419,0.05846 23.40125,-0.526428 34.83319,2.038391 11.48223,2.441635 22.70526,8.151718 29.89469,17.659317 7.87158,10.112656 11.07522,23.047653 11.91118,35.635346 0.52348,5.377716 0.0126,10.766769 0.12138,16.154037 0.002,149.034142 0.006,298.068422 -0.002,447.102502 -0.47928,15.02805 -4.56612,31.11974 -16.03936,41.59946 -11.16827,10.29089 -26.92433,13.50371 -41.66755,13.81072 -152.35196,-0.0127 -304.70406,0.006 -457.05582,-0.01 -14.96405,-0.31983 -30.863922,-3.84703 -42.026993,-14.46055 -11.447678,-11.0589 -15.619858,-27.54866 -15.715225,-43.02379 0.02388,-152.35156 0.0082,-304.70306 0.0078,-457.054486 0.419311,-14.775544 4.031494,-30.317505 14.09906,-41.614258 8.437408,-9.563507 20.81102,-14.662064 33.204224,-16.565277 z m 0,0"
         id="path3985-22-7" />
      <path
         inkscape:connector-curvature="0"
         style="fill:#000000;fill-rule:nonzero;stroke:none"
         d="m 67.550919,21.773926 c 5.448104,-0.834793 10.961776,-1.168579 16.468856,-1.276489 143.988895,0.01057 287.977755,0.0014 431.966795,0.0046 11.62419,0.05846 23.40125,-0.526428 34.83319,2.038391 11.48223,2.441635 22.70526,8.151718 29.89469,17.659317 7.87158,10.112656 11.07522,23.047653 11.91118,35.635346 0.52348,5.377716 0.0126,10.766769 0.12138,16.154037 0.002,149.034142 0.006,298.068422 -0.002,447.102502 -0.47928,15.02805 -4.56612,31.11974 -16.03936,41.59946 -11.16827,10.29089 -26.92433,13.50371 -41.66755,13.81072 -152.35196,-0.0127 -304.70406,0.006 -457.05582,-0.01 -14.96405,-0.31983 -30.863922,-3.84703 -42.026993,-14.46055 -11.447678,-11.0589 -15.619858,-27.54866 -15.715225,-43.02379 0.02388,-152.35156 0.0082,-304.70306 0.0078,-457.054486 0.419311,-14.775544 4.031494,-30.317505 14.09906,-41.614258 8.437408,-9.563507 20.81102,-14.662064 33.204224,-16.565277 z m 0,0"
         id="path3987-8-8" />
      <path
         inkscape:connector-curvature="0"
         style="fill:none;stroke:#ffffff;stroke-width:0.1;stroke-linecap:butt;stroke-linejoin:miter;stroke-miterlimit:10"
         d="m 407.49925,187.74844 c -1.5e-4,-26.66621 -0.007,-53.33206 0.003,-79.99803 39.83141,-0.003 79.66283,-0.001 119.49475,-8.2e-4 0.003,13.66711 0.006,27.33421 -10e-4,41.00175 -26.41509,-0.004 -52.82955,-0.005 -79.24382,5.5e-4 -0.006,26.74794 -0.004,53.49581 -7.4e-4,80.24405 -26.75025,0.0111 -53.49995,-0.002 -80.24952,0.007 -10e-4,27.16552 0.003,54.33101 -0.002,81.49695 -26.74857,0.003 -53.49663,0.005 -80.24466,-10e-4 -0.01,26.99951 5.6e-4,53.99908 -0.005,80.99917 -26.74924,0.01 -53.49805,0.002 -80.24688,0.004 -0.007,27.16562 -3.5e-4,54.33136 -0.003,81.49768 -39.99979,9.4e-4 -79.99927,8.2e-4 -119.998884,6e-5 3.05e-4,-13.75078 -0.0043,-27.5006 0.0024,-41.24991 26.664264,5e-5 53.328384,-0.003 79.992844,0.002 0.0127,-27.16806 -0.005,-54.33557 0.009,-81.50297 26.49627,0.005 52.99247,0.002 79.48908,0.002 0.0106,-27.33293 -3.5e-4,-54.66541 0.005,-81.99784 26.99865,-0.005 53.99729,0.002 80.99642,-0.003 0.009,-26.83323 -0.006,-53.66605 0.007,-80.49889 26.66529,-0.004 53.33065,2.1e-4 79.99656,-0.002 z m 0,0"
         id="path3989-97-4" />
      <path
         inkscape:connector-curvature="0"
         style="fill:#ffffff;fill-rule:nonzero;stroke:none"
         d="m 407.49925,187.74844 c -1.5e-4,-26.66621 -0.007,-53.33206 0.003,-79.99803 39.83141,-0.003 79.66283,-0.001 119.49475,-8.2e-4 0.003,13.66711 0.006,27.33421 -10e-4,41.00175 -26.41509,-0.004 -52.82955,-0.005 -79.24382,5.5e-4 -0.006,26.74794 -0.004,53.49581 -7.4e-4,80.24405 -26.75025,0.0111 -53.49995,-0.002 -80.24952,0.007 -10e-4,27.16552 0.003,54.33101 -0.002,81.49695 -26.74857,0.003 -53.49663,0.005 -80.24466,-10e-4 -0.01,26.99951 5.6e-4,53.99908 -0.005,80.99917 -26.74924,0.01 -53.49805,0.002 -80.24688,0.004 -0.007,27.16562 -3.5e-4,54.33136 -0.003,81.49768 -39.99979,9.4e-4 -79.99927,8.2e-4 -119.998884,6e-5 3.05e-4,-13.75078 -0.0043,-27.5006 0.0024,-41.24991 26.664264,5e-5 53.328384,-0.003 79.992844,0.002 0.0127,-27.16806 -0.005,-54.33557 0.009,-81.50297 26.49627,0.005 52.99247,0.002 79.48908,0.002 0.0106,-27.33293 -3.5e-4,-54.66541 0.005,-81.99784 26.99865,-0.005 53.99729,0.002 80.99642,-0.003 0.009,-26.83323 -0.006,-53.66605 0.007,-80.49889 26.66529,-0.004 53.33065,2.1e-4 79.99656,-0.002 z m 0,0"
         id="path3991-3-5" />
      <path
         inkscape:connector-curvature="0"
         style="fill:none;stroke:#ffffff;stroke-width:0.1;stroke-linecap:butt;stroke-linejoin:miter;stroke-miterlimit:10"
         d="m 360.7312,356.46989 c 1.46202,-6.38227 7.58989,-11.00686 14.09993,-10.93734 23.41052,-0.0839 46.82446,-0.008 70.23686,-0.0374 4.21598,-0.027 8.59888,0.91733 11.97475,3.57302 4.21582,3.21745 6.23842,8.63981 6.20732,13.83815 0.0107,23.35768 -0.0168,46.71623 0.0134,70.07478 0.074,3.86874 -0.86429,7.9176 -3.52043,10.85399 -5.89498,6.60814 -17.60251,6.43582 -23.33739,-0.29379 -2.33978,-2.55329 -3.42949,-6.05492 -3.41178,-9.47422 0.006,-11.97717 0.008,-23.95382 0.004,-35.92964 -22.82657,22.80248 -45.61797,45.64095 -68.45505,68.43231 -4.11286,4.12874 -10.37816,6.35341 -16.09088,4.62 -7.06639,-1.88863 -12.2786,-9.24063 -11.30904,-16.55792 0.45856,-4.15886 2.83589,-7.81562 5.77263,-10.68064 22.73311,-22.73436 45.47359,-45.46142 68.19815,-68.20439 -12.91511,-0.0707 -25.83946,0.14642 -38.74686,-0.10112 -8.98715,-0.81616 -14.20428,-10.99373 -11.6358,-19.1758 z m 0,0"
         id="path3993-6-0" />
      <path
         inkscape:connector-curvature="0"
         style="fill:#ffffff;fill-rule:nonzero;stroke:none"
         d="m 360.7312,356.46989 c 1.46202,-6.38227 7.58989,-11.00686 14.09993,-10.93734 23.41052,-0.0839 46.82446,-0.008 70.23686,-0.0374 4.21598,-0.027 8.59888,0.91733 11.97475,3.57302 4.21582,3.21745 6.23842,8.63981 6.20732,13.83815 0.0107,23.35768 -0.0168,46.71623 0.0134,70.07478 0.074,3.86874 -0.86429,7.9176 -3.52043,10.85399 -5.89498,6.60814 -17.60251,6.43582 -23.33739,-0.29379 -2.33978,-2.55329 -3.42949,-6.05492 -3.41178,-9.47422 0.006,-11.97717 0.008,-23.95382 0.004,-35.92964 -22.82657,22.80248 -45.61797,45.64095 -68.45505,68.43231 -4.11286,4.12874 -10.37816,6.35341 -16.09088,4.62 -7.06639,-1.88863 -12.2786,-9.24063 -11.30904,-16.55792 0.45856,-4.15886 2.83589,-7.81562 5.77263,-10.68064 22.73311,-22.73436 45.47359,-45.46142 68.19815,-68.20439 -12.91511,-0.0707 -25.83946,0.14642 -38.74686,-0.10112 -8.98715,-0.81616 -14.20428,-10.99373 -11.6358,-19.1758 z m 0,0"
         id="path3995-1-3" />
    </g>
  </a>
  <path
     id="path5472"
     style="fill:none;fill-rule:evenodd;stroke:#000000;stroke-width:12;stroke-linecap:butt;stroke-linejoin:miter;stroke-miterlimit:4;stroke-dasharray:none;stroke-opacity:1"
     d="m 2606.2912,516.8649 h 376.2906 m -1492.7401,4.6584 h 247.4098 v 132.4931 h -80.7446 m 243.5147,-261.8629 v -27.9644 m 0,-122.6768 v -29.51 m -902.52887,1461.1301 -157.3774,-7.3198 4.3919,-118.5821 160.30537,8.7839 m 547.527,140.5417 -162.5014,-6.5879 6.5879,-120.778 161.0374,9.5158 m 1397.3408,207.2985 167.1827,8.2815 4.1407,-119.5641 -167.1827,-8.2815 M 3141.4854,216.4764 H 2918.9611 V 5.808 m 225.3082,374.6337 h -538.3109 m 538.2851,267.3744 h -538.3866 v 157.341 M 1350.7951,392.1535 h 28.4073 m 107.1118,0 h 413.7074 V 804.9947 M 1351.2991,204.7559 h 223.7321 v -31.6924 m 0,-131.0704 V 9.6639 M 1897.878,213.0374 H 1768.276 V 9.6639 m -416.9769,195.092 v 39.485 m 0,119.2929 v 28.5264 261.967 h 306.4155 v 209.1079 h 242.2338 v -57.9705 h 705.9977 V 1664.37 H 1899.9484 V 863.1351 m 2656.2906,795.0238 h -737.0534 v -124.2225 h -1022.765 m -122.152,0 h -66.252 M 575.40063,1670.5811 h 129.9417 V 1438.6992 H 1152.5432 V 204.7559 h 198.7559 V 10.1407 h 546.5789 v 202.8967 h 707.6459 V 6 h 538.7196 V 647.8161 H 4556.239 l 0.2588,2003.9932 L 6.0732286,2651.9387 17.977929,1670.5811 H 413.99033 l 0.108,-269.7482 h 161.3023 z M 2605.5239,213.0374 v 26.1202 m 0,112.0407 v 298.615"
     inkscape:connector-curvature="0"
     sodipodi:nodetypes="ccccccccccccccccccccccccccccccccccccccccccccccccccccccccccccccccccccccccccccccccccccccc" />
  <a
     xlink:href="map-kb-voltaire-f2.svg"
     transform="matrix(1.7418305,0,0,1.7418305,2904.6022,777.5175)"
     id="a4282">
    <g
       transform="matrix(0.10782306,0,0,0.10782306,-160.57207,-144.62855)"
       id="g1316-6-3">
      <path
         inkscape:connector-curvature="0"
         sodipodi:nodetypes="cccccc"
         style="fill:#fdfdfd"
         d="M 62.40424,310.33656 465.34714,42.54834 578.96135,151.48943 564.70342,480.90306 54.046553,504.37433 Z"
         id="path1312-4-9" />
      <path
         inkscape:connector-curvature="0"
         style="fill:#000000"
         d="M 57.084732,591.97784 C 37.448964,586.83359 25.569946,574.94077 20.149799,555 c -1.666029,-6.12934 -1.76678,-20.15756 -1.76678,-246 0,-226.296256 0.09805,-239.882347 1.778603,-246.435382 5.475058,-21.349139 18.692691,-34.471825 39.823475,-39.537408 8.294498,-1.988401 11.310529,-2.013066 244.897923,-2.002836 261.24259,0.01144 243.63479,-0.428185 257.57555,6.431071 12.85097,6.32305 21.67778,17.977043 26.16425,34.544559 1.65731,6.120091 1.7602,20.527402 1.7602,246.499996 0,224.5541 -0.1117,240.43442 -1.73561,246.75002 -3.94138,15.32848 -12.71072,26.75866 -25.0462,32.64584 -13.54197,6.46299 3.2459,6.07311 -259.71819,6.03171 C 71.332524,593.89097 64.171247,593.8344 57.084732,591.97784 Z M 192.88302,439 l 0.5,-40.5 39.73867,-0.26146 39.73866,-0.26147 0.26133,-40.23853 0.26134,-40.23854 39.44826,-0.26179 c 30.03221,-0.1993 39.63599,-0.55734 40.23469,-1.5 0.43253,-0.68101 0.79332,-18.90071 0.80174,-40.48821 l 0.0153,-39.25 h 38.87756 c 31.24771,0 39.09549,-0.26261 39.9881,-1.33813 0.76179,-0.91791 1.19279,-13.55785 1.37244,-40.25 l 0.2619,-38.91187 39,-0.5 39,-0.5 v -20 -20 l -58.5,-0.26079 c -54.10883,-0.24122 -58.59383,-0.13305 -59.75,1.44113 -0.94863,1.29159 -1.25,10.93805 -1.25,40.01079 V 194 h -38.94098 c -30.05465,0 -39.1256,0.28525 -39.75,1.25 -0.44496,0.6875 -1.03403,18.8 -1.30902,40.25 l -0.5,39 -39.75,0.26147 c -21.8625,0.14382 -39.84971,0.36882 -39.97156,0.5 -0.12185,0.13119 -0.45935,18.46353 -0.75,40.73853 l -0.52844,40.5 -39,0.5 -39,0.5 -0.5,40 -0.5,40 -39.50001,0.5 -39.499991,0.5 -0.272365,19.47053 c -0.149801,10.70879 -0.05005,20.04986 0.221663,20.75794 0.396742,1.03389 12.16732,1.23662 59.772363,1.02947 l 59.27834,-0.25794 0.5,-40.5 z m 224.71693,37.33004 c 9.81916,-4.6595 10.48563,-20.57807 1.10109,-26.29963 -3.01742,-1.83966 -5.01136,-2.02327 -22.009,-2.02667 -12.57694,-0.003 -18.91467,-0.36567 -19.3748,-1.11018 -0.39923,-0.64596 13.89884,-15.73269 34.35503,-36.25 39.18121,-39.29829 39.15526,-39.26342 35.78733,-48.08221 -3.01512,-7.89498 -9.84711,-11.65705 -18.32658,-10.09163 -3.25687,0.60126 -8.35668,5.2842 -38.78136,35.61129 C 371.0844,407.28645 354.7719,423 354.10166,423 c -0.91314,0 -1.21864,-4.52061 -1.21864,-18.03212 0,-20.12595 -0.67685,-23.17746 -5.9782,-26.95236 -7.0166,-4.99626 -18.24336,-2.89806 -22.54364,4.21324 -1.88115,3.11081 -1.97816,5.18392 -1.97816,42.27124 0,21.45 0.33737,40.20282 0.7497,41.67293 1.04242,3.71655 5.56236,8.83571 9.20072,10.42047 2.35984,1.02789 11.94923,1.33717 42.39844,1.36746 34.73793,0.0345 39.76126,-0.15655 42.86807,-1.63082 z"
         id="path1310-9-8" />
    </g>
  </a>
  <a
     xlink:href="map-kb-voltaire-f2.svg"
     transform="matrix(1.7418305,0,0,1.7418305,2034.8091,774.699)"
     id="a4282-6">
    <g
       transform="matrix(0.10782306,0,0,0.10782306,-160.57207,-144.62855)"
       id="g1316-6-3-1">
      <path
         inkscape:connector-curvature="0"
         sodipodi:nodetypes="cccccc"
         style="fill:#fdfdfd"
         d="M 62.40424,310.33656 465.34714,42.54834 578.96135,151.48943 564.70342,480.90306 54.046553,504.37433 Z"
         id="path1312-4-9-0" />
      <path
         inkscape:connector-curvature="0"
         style="fill:#000000"
         d="M 57.084732,591.97784 C 37.448964,586.83359 25.569946,574.94077 20.149799,555 c -1.666029,-6.12934 -1.76678,-20.15756 -1.76678,-246 0,-226.296256 0.09805,-239.882347 1.778603,-246.435382 5.475058,-21.349139 18.692691,-34.471825 39.823475,-39.537408 8.294498,-1.988401 11.310529,-2.013066 244.897923,-2.002836 261.24259,0.01144 243.63479,-0.428185 257.57555,6.431071 12.85097,6.32305 21.67778,17.977043 26.16425,34.544559 1.65731,6.120091 1.7602,20.527402 1.7602,246.499996 0,224.5541 -0.1117,240.43442 -1.73561,246.75002 -3.94138,15.32848 -12.71072,26.75866 -25.0462,32.64584 -13.54197,6.46299 3.2459,6.07311 -259.71819,6.03171 C 71.332524,593.89097 64.171247,593.8344 57.084732,591.97784 Z M 192.88302,439 l 0.5,-40.5 39.73867,-0.26146 39.73866,-0.26147 0.26133,-40.23853 0.26134,-40.23854 39.44826,-0.26179 c 30.03221,-0.1993 39.63599,-0.55734 40.23469,-1.5 0.43253,-0.68101 0.79332,-18.90071 0.80174,-40.48821 l 0.0153,-39.25 h 38.87756 c 31.24771,0 39.09549,-0.26261 39.9881,-1.33813 0.76179,-0.91791 1.19279,-13.55785 1.37244,-40.25 l 0.2619,-38.91187 39,-0.5 39,-0.5 v -20 -20 l -58.5,-0.26079 c -54.10883,-0.24122 -58.59383,-0.13305 -59.75,1.44113 -0.94863,1.29159 -1.25,10.93805 -1.25,40.01079 V 194 h -38.94098 c -30.05465,0 -39.1256,0.28525 -39.75,1.25 -0.44496,0.6875 -1.03403,18.8 -1.30902,40.25 l -0.5,39 -39.75,0.26147 c -21.8625,0.14382 -39.84971,0.36882 -39.97156,0.5 -0.12185,0.13119 -0.45935,18.46353 -0.75,40.73853 l -0.52844,40.5 -39,0.5 -39,0.5 -0.5,40 -0.5,40 -39.50001,0.5 -39.499991,0.5 -0.272365,19.47053 c -0.149801,10.70879 -0.05005,20.04986 0.221663,20.75794 0.396742,1.03389 12.16732,1.23662 59.772363,1.02947 l 59.27834,-0.25794 0.5,-40.5 z m 224.71693,37.33004 c 9.81916,-4.6595 10.48563,-20.57807 1.10109,-26.29963 -3.01742,-1.83966 -5.01136,-2.02327 -22.009,-2.02667 -12.57694,-0.003 -18.91467,-0.36567 -19.3748,-1.11018 -0.39923,-0.64596 13.89884,-15.73269 34.35503,-36.25 39.18121,-39.29829 39.15526,-39.26342 35.78733,-48.08221 -3.01512,-7.89498 -9.84711,-11.65705 -18.32658,-10.09163 -3.25687,0.60126 -8.35668,5.2842 -38.78136,35.61129 C 371.0844,407.28645 354.7719,423 354.10166,423 c -0.91314,0 -1.21864,-4.52061 -1.21864,-18.03212 0,-20.12595 -0.67685,-23.17746 -5.9782,-26.95236 -7.0166,-4.99626 -18.24336,-2.89806 -22.54364,4.21324 -1.88115,3.11081 -1.97816,5.18392 -1.97816,42.27124 0,21.45 0.33737,40.20282 0.7497,41.67293 1.04242,3.71655 5.56236,8.83571 9.20072,10.42047 2.35984,1.02789 11.94923,1.33717 42.39844,1.36746 34.73793,0.0345 39.76126,-0.15655 42.86807,-1.63082 z"
         id="path1310-9-8-6" />
    </g>
  </a>
  <path
     id="path5511-3-2-6"
     style="fill:none;fill-rule:evenodd;stroke:#000000;stroke-width:4;stroke-linecap:butt;stroke-linejoin:miter;stroke-miterlimit:4;stroke-dasharray:none;stroke-opacity:1"
     d="M 1518.3094,654.2861 V 393.4189 M 1544.3,654.2861 V 393.4189 m 25.9906,260.8672 V 393.4189 m 25.9906,260.8672 V 393.4189 m 25.9904,260.8672 V 393.4189 m 25.9907,260.8672 V 393.4189 m 25.9906,260.8672 V 393.4189 m 25.9906,260.8672 V 393.4189"
     inkscape:connector-curvature="0" />
  <path
     id="path5511-3-2-6-1"
     style="fill:none;fill-rule:evenodd;stroke:#000000;stroke-width:4;stroke-linecap:butt;stroke-linejoin:miter;stroke-miterlimit:4;stroke-dasharray:none;stroke-opacity:1"
     d="M 2767.9099,646.2634 V 377.3962 m 25.9906,268.8672 V 377.3962 m 25.9906,268.8672 V 377.3962 m 25.9906,268.8672 V 377.3962 m 25.9904,268.8672 V 377.3962 m 25.9907,268.8672 V 377.3962 m 25.9906,268.8672 V 377.3962 m 25.9906,268.8672 V 377.3962"
     inkscape:connector-curvature="0"
     sodipodi:nodetypes="cccccccccccccccc" />
  <a
     xlink:href="map-kb-voltaire-f0.svg"
     id="a4282-6-5"
     transform="matrix(2.0617637,0,0,2.0617637,758.42261,1711.3241)">
    <g
       transform="matrix(0.10782306,0,0,0.10782306,-160.57207,-144.62855)"
       id="g1316-6-3-1-5">
      <path
         inkscape:connector-curvature="0"
         sodipodi:nodetypes="cccccc"
         style="fill:#fdfdfd"
         d="M 62.40424,310.33656 465.34714,42.54834 578.96135,151.48943 564.70342,480.90306 54.046553,504.37433 Z"
         id="path1312-4-9-0-4" />
      <path
         inkscape:connector-curvature="0"
         style="fill:#000000"
         d="M 57.084732,591.97784 C 37.448964,586.83359 25.569946,574.94077 20.149799,555 c -1.666029,-6.12934 -1.76678,-20.15756 -1.76678,-246 0,-226.296256 0.09805,-239.882347 1.778603,-246.435382 5.475058,-21.349139 18.692691,-34.471825 39.823475,-39.537408 8.294498,-1.988401 11.310529,-2.013066 244.897923,-2.002836 261.24259,0.01144 243.63479,-0.428185 257.57555,6.431071 12.85097,6.32305 21.67778,17.977043 26.16425,34.544559 1.65731,6.120091 1.7602,20.527402 1.7602,246.499996 0,224.5541 -0.1117,240.43442 -1.73561,246.75002 -3.94138,15.32848 -12.71072,26.75866 -25.0462,32.64584 -13.54197,6.46299 3.2459,6.07311 -259.71819,6.03171 C 71.332524,593.89097 64.171247,593.8344 57.084732,591.97784 Z M 192.88302,439 l 0.5,-40.5 39.73867,-0.26146 39.73866,-0.26147 0.26133,-40.23853 0.26134,-40.23854 39.44826,-0.26179 c 30.03221,-0.1993 39.63599,-0.55734 40.23469,-1.5 0.43253,-0.68101 0.79332,-18.90071 0.80174,-40.48821 l 0.0153,-39.25 h 38.87756 c 31.24771,0 39.09549,-0.26261 39.9881,-1.33813 0.76179,-0.91791 1.19279,-13.55785 1.37244,-40.25 l 0.2619,-38.91187 39,-0.5 39,-0.5 v -20 -20 l -58.5,-0.26079 c -54.10883,-0.24122 -58.59383,-0.13305 -59.75,1.44113 -0.94863,1.29159 -1.25,10.93805 -1.25,40.01079 V 194 h -38.94098 c -30.05465,0 -39.1256,0.28525 -39.75,1.25 -0.44496,0.6875 -1.03403,18.8 -1.30902,40.25 l -0.5,39 -39.75,0.26147 c -21.8625,0.14382 -39.84971,0.36882 -39.97156,0.5 -0.12185,0.13119 -0.45935,18.46353 -0.75,40.73853 l -0.52844,40.5 -39,0.5 -39,0.5 -0.5,40 -0.5,40 -39.50001,0.5 -39.499991,0.5 -0.272365,19.47053 c -0.149801,10.70879 -0.05005,20.04986 0.221663,20.75794 0.396742,1.03389 12.16732,1.23662 59.772363,1.02947 l 59.27834,-0.25794 0.5,-40.5 z m 224.71693,37.33004 c 9.81916,-4.6595 10.48563,-20.57807 1.10109,-26.29963 -3.01742,-1.83966 -5.01136,-2.02327 -22.009,-2.02667 -12.57694,-0.003 -18.91467,-0.36567 -19.3748,-1.11018 -0.39923,-0.64596 13.89884,-15.73269 34.35503,-36.25 39.18121,-39.29829 39.15526,-39.26342 35.78733,-48.08221 -3.01512,-7.89498 -9.84711,-11.65705 -18.32658,-10.09163 -3.25687,0.60126 -8.35668,5.2842 -38.78136,35.61129 C 371.0844,407.28645 354.7719,423 354.10166,423 c -0.91314,0 -1.21864,-4.52061 -1.21864,-18.03212 0,-20.12595 -0.67685,-23.17746 -5.9782,-26.95236 -7.0166,-4.99626 -18.24336,-2.89806 -22.54364,4.21324 -1.88115,3.11081 -1.97816,5.18392 -1.97816,42.27124 0,21.45 0.33737,40.20282 0.7497,41.67293 1.04242,3.71655 5.56236,8.83571 9.20072,10.42047 2.35984,1.02789 11.94923,1.33717 42.39844,1.36746 34.73793,0.0345 39.76126,-0.15655 42.86807,-1.63082 z"
         id="path1310-9-8-6-7" />
    </g>
  </a>
  <text
     xml:space="preserve"
     style="font-style:normal;font-weight:normal;font-size:40px;line-height:125%;font-family:sans-serif;letter-spacing:0px;word-spacing:0px;fill:#000000;fill-opacity:1;stroke:none;stroke-width:1px;stroke-linecap:butt;stroke-linejoin:miter;stroke-opacity:1"
     x="2146.7798"
     y="1233.7322"
     id="text5630"><tspan
       sodipodi:role="line"
       id="tspan5628"
       x="2146.7798"
       y="1233.7322"
       style="font-size:74.66666412px">Patio</tspan></text>
  <text
     xml:space="preserve"
     style="font-style:normal;font-weight:normal;font-size:40px;line-height:125%;font-family:sans-serif;letter-spacing:0px;word-spacing:0px;fill:#000000;fill-opacity:1;stroke:none;stroke-width:1px;stroke-linecap:butt;stroke-linejoin:miter;stroke-opacity:1"
     x="2087.6626"
     y="2237.864"
     id="text5634"><tspan
       sodipodi:role="line"
       id="tspan5632"
       x="2087.6626"
       y="2237.864"
       style="font-size:74.66666412px">Terrasse</tspan></text>
  <text
     xml:space="preserve"
     style="font-style:normal;font-weight:normal;font-size:40px;line-height:125%;font-family:sans-serif;letter-spacing:0px;word-spacing:0px;fill:#000000;fill-opacity:1;stroke:none;stroke-width:1px;stroke-linecap:butt;stroke-linejoin:miter;stroke-opacity:1"
     x="3356.802"
     y="1090.8762"
     id="text5638"><tspan
       sodipodi:role="line"
       id="tspan5636"
       x="3356.802"
       y="1090.8762"
       style="font-size:74.66666412px">Amphi 401</tspan></text>
</svg>
