<?xml version="1.0" encoding="UTF-8" standalone="no"?>
<svg
   width="100%"
   height="100%"
   viewBox="0 0 2300 1150"
   id="svg2"
   version="1.1"
   inkscape:version="1.2.1 (2ed6d7ae0b, 2022-08-22, custom)"
   sodipodi:docname="vj-va-f-1.svg"
   xml:space="preserve"
   xmlns:inkscape="http://www.inkscape.org/namespaces/inkscape"
   xmlns:sodipodi="http://sodipodi.sourceforge.net/DTD/sodipodi-0.dtd"
   xmlns:xlink="http://www.w3.org/1999/xlink"
   xmlns="http://www.w3.org/2000/svg"
   xmlns:svg="http://www.w3.org/2000/svg"
   xmlns:rdf="http://www.w3.org/1999/02/22-rdf-syntax-ns#"
   xmlns:cc="http://creativecommons.org/ns#"
   xmlns:dc="http://purl.org/dc/elements/1.1/"><defs
     id="defs4"><inkscape:perspective
       sodipodi:type="inkscape:persp3d"
       inkscape:vp_x="0 : -235.86013 : 1"
       inkscape:vp_y="0 : 0.72137596 : 0"
       inkscape:vp_z="0.32089484 : -235.86013 : 1"
       inkscape:persp3d-origin="0.16044742 : -235.98665 : 1"
       id="perspective2390" /><inkscape:perspective
       id="perspective10"
       inkscape:persp3d-origin="0.16044742 : -235.98665 : 1"
       inkscape:vp_z="0.32089484 : -235.86013 : 1"
       inkscape:vp_y="0 : 0.72137596 : 0"
       inkscape:vp_x="0 : -235.86013 : 1"
       sodipodi:type="inkscape:persp3d" /><linearGradient
       id="linearGradient15662"><stop
         style="stop-color:#ffffff;stop-opacity:0.0000000;"
         offset="0.0000000"
         id="stop15664" /><stop
         style="stop-color:#f8f8f8;stop-opacity:1.0000000;"
         offset="1.0000000"
         id="stop15666" /></linearGradient><linearGradient
       id="linearGradient259"><stop
         style="stop-color:#e0e0e0;stop-opacity:1.0000000;"
         offset="0.0000000"
         id="stop260" /><stop
         id="stop4886"
         offset="0.40546969"
         style="stop-color:#ffffff;stop-opacity:1.0000000;" /><stop
         id="stop4884"
         offset="0.53448278"
         style="stop-color:#cdcdcd;stop-opacity:1.0000000;" /><stop
         style="stop-color:#494949;stop-opacity:1.0000000;"
         offset="1.0000000"
         id="stop261" /></linearGradient><linearGradient
       id="linearGradient4668"><stop
         style="stop-color:#8e8d87;stop-opacity:1;"
         offset="0"
         id="stop4670" /><stop
         id="stop4676"
         offset="0.27586207"
         style="stop-color:#cbc9c1;stop-opacity:1.0000000;" /><stop
         style="stop-color:#8e8d87;stop-opacity:1.0000000;"
         offset="1.0000000"
         id="stop4672" /></linearGradient><linearGradient
       id="linearGradient4688"><stop
         style="stop-color:#666666;stop-opacity:1.0000000;"
         offset="0.0000000"
         id="stop4690" /><stop
         style="stop-color:#000000;stop-opacity:0;"
         offset="1"
         id="stop4692" /></linearGradient><linearGradient
       id="linearGradient4698"><stop
         style="stop-color:#fffffd;stop-opacity:1.0000000;"
         offset="0.0000000"
         id="stop4700" /><stop
         id="stop4706"
         offset="0.50000000"
         style="stop-color:#bbbbb9;stop-opacity:1.0000000;" /><stop
         style="stop-color:#000000;stop-opacity:1.0000000;"
         offset="1.0000000"
         id="stop4702" /></linearGradient><linearGradient
       id="linearGradient4733"><stop
         style="stop-color:#000000;stop-opacity:0.23711340;"
         offset="0.0000000"
         id="stop4735" /><stop
         style="stop-color:#000000;stop-opacity:0;"
         offset="1"
         id="stop4737" /></linearGradient><linearGradient
       id="linearGradient4741"><stop
         style="stop-color:#dcdcda;stop-opacity:1.0000000;"
         offset="0.0000000"
         id="stop4743" /><stop
         style="stop-color:#bab9b7;stop-opacity:1.0000000;"
         offset="1.0000000"
         id="stop4745" /></linearGradient><linearGradient
       id="linearGradient4762"><stop
         id="stop4764"
         offset="0.0000000"
         style="stop-color:#ffffff;stop-opacity:0.12371134;" /><stop
         style="stop-color:#ffffff;stop-opacity:1.0000000;"
         offset="0.10344828"
         id="stop4768" /><stop
         id="stop4766"
         offset="1"
         style="stop-color:#ffffff;stop-opacity:0;" /></linearGradient><radialGradient
       id="shadowGradient"
       cx="32.5"
       cy="29.5"
       fx="32.5"
       fy="29.5"
       r="26.5"
       gradientUnits="userSpaceOnUse"><stop
         id="stop5223"
         stop-color="#C0C0C0"
         offset="0.0" /><stop
         id="stop5225"
         stop-color="#C0C0C0"
         offset="0.88" /><stop
         id="stop5227"
         stop-opacity="0.0"
         stop-color="#C0C0C0"
         offset="1.0" /></radialGradient><linearGradient
       y2="16.248501"
       x2="9.5471001"
       y1="42.752899"
       x1="55.454102"
       gradientUnits="userSpaceOnUse"
       id="edgeGradient"><stop
         id="stop5218"
         stop-color="#3057A7"
         offset="0.0" /><stop
         id="stop5220"
         stop-color="#5A7AC6"
         offset="1.0" /></linearGradient><linearGradient
       y2="51.987099"
       x2="22.0144"
       y1="7.0127001"
       x1="42.986301"
       gradientUnits="userSpaceOnUse"
       id="fieldGradient"><stop
         id="stop5213"
         stop-color="#BCD6FE"
         offset="0.0" /><stop
         id="stop5215"
         stop-color="#6787D3"
         offset="1.0" /></linearGradient><radialGradient
       id="shadowGradient-4"
       cx="32.5"
       cy="29.5"
       fx="32.5"
       fy="29.5"
       r="26.5"
       gradientUnits="userSpaceOnUse"><stop
         id="stop5223-5"
         stop-color="#C0C0C0"
         offset="0.0" /><stop
         id="stop5225-4"
         stop-color="#C0C0C0"
         offset="0.88" /><stop
         id="stop5227-5"
         stop-opacity="0.0"
         stop-color="#C0C0C0"
         offset="1.0" /></radialGradient><linearGradient
       y2="51.987099"
       x2="22.0144"
       y1="7.0127001"
       x1="42.986301"
       gradientUnits="userSpaceOnUse"
       id="fieldGradient-2"><stop
         id="stop5213-4"
         stop-color="#BCD6FE"
         offset="0.0" /><stop
         id="stop5215-4"
         stop-color="#6787D3"
         offset="1.0" /></linearGradient><linearGradient
       y2="16.248501"
       x2="9.5471001"
       y1="42.752899"
       x1="55.454102"
       gradientUnits="userSpaceOnUse"
       id="edgeGradient-1"><stop
         id="stop5218-2"
         stop-color="#3057A7"
         offset="0.0" /><stop
         id="stop5220-1"
         stop-color="#5A7AC6"
         offset="1.0" /></linearGradient><radialGradient
       id="shadowGradient-4-2"
       cx="32.5"
       cy="29.5"
       fx="32.5"
       fy="29.5"
       r="26.5"
       gradientUnits="userSpaceOnUse"><stop
         id="stop5223-5-3"
         stop-color="#C0C0C0"
         offset="0.0" /><stop
         id="stop5225-4-7"
         stop-color="#C0C0C0"
         offset="0.88" /><stop
         id="stop5227-5-8"
         stop-opacity="0.0"
         stop-color="#C0C0C0"
         offset="1.0" /></radialGradient><linearGradient
       y2="51.987099"
       x2="22.0144"
       y1="7.0127001"
       x1="42.986301"
       gradientUnits="userSpaceOnUse"
       id="fieldGradient-2-6"><stop
         id="stop5213-4-9"
         stop-color="#BCD6FE"
         offset="0.0" /><stop
         id="stop5215-4-6"
         stop-color="#6787D3"
         offset="1.0" /></linearGradient><linearGradient
       y2="16.248501"
       x2="9.5471001"
       y1="42.752899"
       x1="55.454102"
       gradientUnits="userSpaceOnUse"
       id="edgeGradient-1-8"><stop
         id="stop5218-2-6"
         stop-color="#3057A7"
         offset="0.0" /><stop
         id="stop5220-1-7"
         stop-color="#5A7AC6"
         offset="1.0" /></linearGradient><radialGradient
       id="shadowGradient-2"
       cx="32.5"
       cy="29.5"
       fx="32.5"
       fy="29.5"
       r="26.5"
       gradientUnits="userSpaceOnUse"><stop
         id="stop5223-1"
         stop-color="#C0C0C0"
         offset="0.0" /><stop
         id="stop5225-43"
         stop-color="#C0C0C0"
         offset="0.88" /><stop
         id="stop5227-3"
         stop-opacity="0.0"
         stop-color="#C0C0C0"
         offset="1.0" /></radialGradient><linearGradient
       y2="51.987099"
       x2="22.0144"
       y1="7.0127001"
       x1="42.986301"
       gradientUnits="userSpaceOnUse"
       id="fieldGradient-5"><stop
         id="stop5213-9"
         stop-color="#BCD6FE"
         offset="0.0" /><stop
         id="stop5215-5"
         stop-color="#6787D3"
         offset="1.0" /></linearGradient><linearGradient
       y2="16.248501"
       x2="9.5471001"
       y1="42.752899"
       x1="55.454102"
       gradientUnits="userSpaceOnUse"
       id="edgeGradient-4"><stop
         id="stop5218-0"
         stop-color="#3057A7"
         offset="0.0" /><stop
         id="stop5220-13"
         stop-color="#5A7AC6"
         offset="1.0" /></linearGradient><clipPath
       id="clip0"><rect
         id="rect6402"
         height="615"
         width="613"
         x="0"
         y="0" /></clipPath><clipPath
       id="clip0-3"><rect
         y="0"
         x="0"
         id="rect6402-0"
         height="615"
         width="613" /></clipPath><clipPath
       id="clip0-3-0"><rect
         y="0"
         x="0"
         id="rect6402-0-6"
         height="615"
         width="613" /></clipPath><clipPath
       id="clip0-0"><rect
         y="0"
         x="0"
         id="rect6402-1"
         height="615"
         width="613" /></clipPath></defs><sodipodi:namedview
     id="base"
     pagecolor="#ffffff"
     bordercolor="#666666"
     borderopacity="1.0"
     inkscape:pageopacity="0.0"
     inkscape:pageshadow="2"
     inkscape:zoom="0.72167735"
     inkscape:cx="618.00471"
     inkscape:cy="557.03563"
     inkscape:document-units="px"
     inkscape:current-layer="layer1"
     showgrid="false"
     fit-margin-top="0"
     fit-margin-left="0"
     fit-margin-right="0"
     fit-margin-bottom="0"
     inkscape:window-width="1920"
     inkscape:window-height="1043"
     inkscape:window-x="0"
     inkscape:window-y="0"
     inkscape:window-maximized="1"
     inkscape:document-rotation="0"
     inkscape:pagecheckerboard="0"
     inkscape:showpageshadow="0"
     inkscape:deskcolor="#d1d1d1" /><metadata
     id="metadata7"><rdf:RDF><cc:Work
         rdf:about=""><dc:format>image/svg+xml</dc:format><dc:type
           rdf:resource="http://purl.org/dc/dcmitype/StillImage" /></cc:Work></rdf:RDF></metadata><g
     inkscape:label="Layer 1"
     inkscape:groupmode="layer"
     id="layer1"
     transform="translate(255.85714,58.0522)"><path
       style="fill:none;stroke:#000000;stroke-width:3;stroke-linecap:butt;stroke-linejoin:miter;stroke-miterlimit:4;stroke-dasharray:none;stroke-opacity:1"
       d="m 1844.5039,657.97389 23.3832,-0.003 0.2508,103.50276 h -79.3572 l -0.024,-103.539 18.3673,0.0348"
       id="path156274"
       sodipodi:nodetypes="cccccc" /><path
       style="fill:none;stroke:#000000;stroke-width:3;stroke-linecap:butt;stroke-linejoin:miter;stroke-miterlimit:4;stroke-dasharray:none;stroke-opacity:1"
       d="m -214.14286,664.21933 240.090171,-0.004"
       id="path156262"
       sodipodi:nodetypes="cc" /><path
       style="fill:none;stroke:#000000;stroke-width:8;stroke-linecap:butt;stroke-linejoin:miter;stroke-miterlimit:4;stroke-dasharray:none;stroke-opacity:1"
       d="m 1946.2486,627.00737 -0.07,343.34013 H 826.53473"
       id="path156254" /><path
       style="fill:none;stroke:#000000;stroke-width:8;stroke-linecap:butt;stroke-linejoin:miter;stroke-miterlimit:4;stroke-dasharray:none;stroke-opacity:1"
       d="m 1945.9259,551.91844 h 78.028 V 833.9744 h -76.5128"
       id="path156246"
       sodipodi:nodetypes="cccc" /><path
       style="fill:none;stroke:#000000;stroke-width:3;stroke-linecap:butt;stroke-linejoin:miter;stroke-miterlimit:4;stroke-dasharray:none;stroke-opacity:1"
       d="m 1486.1772,551.91525 350.0758,0.003 m 76.7753,0.006 31.668,-0.004"
       id="path156244"
       sodipodi:nodetypes="cccc" /><path
       style="fill:none;stroke:#000000;stroke-width:3;stroke-linecap:butt;stroke-linejoin:miter;stroke-miterlimit:4;stroke-dasharray:none;stroke-opacity:1"
       d="m -57.96449,240.18433 -0.0043,312.29889 308.459537,0.006"
       id="path215747"
       sodipodi:nodetypes="ccc" /><path
       style="fill:#d35f5f;stroke:#000000;stroke-width:3;stroke-linecap:butt;stroke-linejoin:miter;stroke-miterlimit:4;stroke-dasharray:none;stroke-opacity:1"
       d="m -91.061523,552.46999 31.808033,0.0171"
       id="path215745"
       sodipodi:nodetypes="cc" /><path
       style="fill:none;stroke:#000000;stroke-width:3;stroke-linecap:butt;stroke-linejoin:miter;stroke-miterlimit:4;stroke-dasharray:none;stroke-opacity:1"
       d="m -212.68876,552.63388 29.88891,-0.0571"
       id="path215741"
       sodipodi:nodetypes="cc" /><path
       style="fill:none;stroke:#000000;stroke-width:3;stroke-linecap:butt;stroke-linejoin:miter;stroke-miterlimit:4;stroke-dasharray:none;stroke-opacity:1"
       d="m -136.21541,515.10045 0.006,-273.48412"
       id="path156204"
       sodipodi:nodetypes="cc" /><path
       style="fill:none;stroke:#000000;stroke-width:3;stroke-linecap:butt;stroke-linejoin:miter;stroke-miterlimit:4;stroke-dasharray:none;stroke-opacity:1"
       d="m 541.56598,662.97483 18.75723,0.0222 m 78.38804,129.15157 0.0785,178.69873 m -29.27367,-307.8423 -49.19287,-0.008 L 560.5,969.5461"
       id="path156202"
       sodipodi:nodetypes="ccccccc" /><path
       style="fill:none;stroke:#000000;stroke-width:3;stroke-linecap:butt;stroke-linejoin:miter;stroke-miterlimit:4;stroke-dasharray:none;stroke-opacity:1"
       d="m 484.60393,969.59436 -0.13677,-306.5804 19.83968,0.0509 m 164.85918,-0.0443 41.95553,0.0574 m 153.15786,0.0433 -153.15786,-0.0433 -0.0306,307.45525"
       id="path156196"
       sodipodi:nodetypes="cccccccc" /><path
       style="fill:none;stroke:#000000;stroke-width:3;stroke-linecap:butt;stroke-linejoin:miter;stroke-miterlimit:4;stroke-dasharray:none;stroke-opacity:1"
       d="m 1793.7859,550.52544 -0.01,-309.76651"
       id="path156152"
       sodipodi:nodetypes="cc" /><path
       style="fill:none;stroke:#000000;stroke-width:3;stroke-linecap:butt;stroke-linejoin:miter;stroke-miterlimit:4;stroke-dasharray:none;stroke-opacity:1"
       d="m 1870.0911,476.08954 0.02,-234.8126"
       id="path156136"
       sodipodi:nodetypes="cc" /><text
       xml:space="preserve"
       style="font-style:normal;font-variant:normal;font-weight:bold;font-stretch:normal;font-size:20px;line-height:0%;font-family:'Atkinson Hyperlegible';-inkscape-font-specification:'Atkinson Hyperlegible Bold';font-variant-ligatures:normal;font-variant-caps:normal;font-variant-numeric:normal;font-variant-east-asian:normal;text-align:center;letter-spacing:0px;word-spacing:0px;text-anchor:middle;fill:#000000;fill-opacity:1;stroke:none"
       x="1905.0637"
       y="792.8252"
       id="text4488-5"><tspan
         sodipodi:role="line"
         id="tspan4490-8"
         x="1905.0637"
         y="792.8252"
         style="font-style:italic;font-variant:normal;font-weight:normal;font-stretch:normal;font-size:20px;line-height:1.25;font-family:'Atkinson Hyperlegible';-inkscape-font-specification:'Atkinson Hyperlegible Italic';font-variant-ligatures:normal;font-variant-caps:normal;font-variant-numeric:normal;font-variant-east-asian:normal">Toilettes</tspan><tspan
         sodipodi:role="line"
         x="1905.0637"
         y="817.8252"
         id="tspan4492-2"
         style="font-style:italic;font-variant:normal;font-weight:normal;font-stretch:normal;font-size:20px;line-height:1.25;font-family:'Atkinson Hyperlegible';-inkscape-font-specification:'Atkinson Hyperlegible Italic';font-variant-ligatures:normal;font-variant-caps:normal;font-variant-numeric:normal;font-variant-east-asian:normal">femme</tspan></text><path
       id="path4248"
       style="fill:none;stroke:#000000;stroke-width:8;stroke-linecap:butt;stroke-linejoin:miter;stroke-miterlimit:4;stroke-dasharray:none;stroke-opacity:1"
       d="m 826.53473,970.3475 c -383.53124,0.0104 -690.44595,0 -1041.07247,0 V 241.35076 c 694.88548,-0.0224 1389.77094,-0.0558 2084.65644,-0.0679 l 76.3381,-0.01 -0.1392,388.53729"
       sodipodi:nodetypes="cccccc" /><path
       id="path4945"
       style="fill:none;stroke:#000000;stroke-width:2;stroke-linecap:butt;stroke-linejoin:miter;stroke-miterlimit:4;stroke-dasharray:none;stroke-opacity:1"
       d="M -214.79067,455.61607 H -58.004954 M -215.50496,441.40971 H -57.290665 M -214.96924,427.20337 H -57.826385 M -214.6121,412.997 H -58.183526 M -214.79067,398.79069 H -58.004955 M -215.14781,384.58433 H -57.647814 M -214.43353,370.378 H -58.362096 M -214.43353,356.17164 H -58.362096 M -215.50496,341.96527 H -57.290665 M -216.04067,327.75893 h 159.285715"
       inkscape:connector-curvature="0" /><path
       inkscape:connector-curvature="0"
       id="path4945-9"
       style="fill:none;stroke:#000000;stroke-width:2;stroke-linecap:butt;stroke-linejoin:miter;stroke-miterlimit:4;stroke-dasharray:none;stroke-opacity:1"
       d="M 561.36832,923.0152 H 710.5779 M 560.65403,908.8089 H 711.29218 M 561.18975,894.6025 H 710.75646 M 561.54689,880.3962 h 148.85243 m -149.031,-14.2064 H 710.57789 M 561.01118,851.9835 H 710.93504 M 561.72546,837.7772 H 710.22075 M 561.72546,823.5708 H 710.22075 M 560.65403,809.36447 H 711.29218 M 560.11832,795.15813 h 151.70957"
       sodipodi:nodetypes="cccccccccccccccccccc" /><path
       inkscape:connector-curvature="0"
       id="path4945-8"
       style="fill:none;stroke:#000000;stroke-width:2;stroke-linecap:butt;stroke-linejoin:miter;stroke-miterlimit:4;stroke-dasharray:none;stroke-opacity:1"
       d="m 1793.9947,460.4862 h 152.1428 m -152.8571,-14.20636 h 153.5714 M 1793.8161,432.0735 h 152.5 m -152.1428,-14.20637 h 151.7856 m -151.9642,-14.20631 h 152.1428 m -152.5,-14.20636 h 152.8571 m -152.1428,-14.20633 h 151.4286 m -151.4286,-14.20636 h 151.4286 m -152.5,-14.20637 h 153.5714 m -154.1071,-14.20634 h 154.6428"
       sodipodi:nodetypes="cccccccccccccccccccc" /><path
       inkscape:connector-curvature="0"
       id="path4945-0"
       style="fill:none;stroke:#000000;stroke-width:1.41523;stroke-linecap:butt;stroke-linejoin:miter;stroke-miterlimit:4;stroke-dasharray:none;stroke-opacity:1"
       d="m 1945.6601,755.97649 h 75.7238 m -76.0815,-14.20636 h 76.4392 m -76.1709,-14.20634 h 75.9026 m -75.7238,-14.20637 h 75.545 m -75.6344,-14.20631 h 75.7238 m -75.9026,-14.20636 h 76.0815 m -75.7238,-14.20633 h 75.3661 m -75.3661,-14.20636 h 75.3661 m -75.9027,-14.20637 h 76.4392 m -76.7074,-14.20634 h 76.9756"
       sodipodi:nodetypes="cccccccccccccccccccc" /><g
       id="g5250-0-9"
       transform="matrix(0.36878225,0,0,0.36878225,1865.743,946.93181)" /><path
       style="fill:none;stroke:#000000;stroke-width:3;stroke-linecap:butt;stroke-linejoin:miter;stroke-miterlimit:4;stroke-dasharray:none;stroke-opacity:1"
       d="m 1924.1723,645.2363 h 20"
       id="path217910" /><path
       style="fill:none;stroke:#000000;stroke-width:3;stroke-linecap:butt;stroke-linejoin:miter;stroke-miterlimit:4;stroke-dasharray:none;stroke-opacity:1"
       d="m 1868.1145,968.01841 -0.047,-322.5875 16.3461,-0.0101"
       id="path217910-0"
       sodipodi:nodetypes="ccc" /><path
       style="fill:none;stroke:#000000;stroke-width:3;stroke-linecap:butt;stroke-linejoin:miter;stroke-miterlimit:4;stroke-dasharray:none;stroke-opacity:1"
       d="m 1788.7808,761.47321 80.419,0.25926"
       id="path1154"
       sodipodi:nodetypes="cc" /><path
       style="fill:none;stroke:#000000;stroke-width:1px;stroke-linecap:butt;stroke-linejoin:miter;stroke-opacity:1"
       d="m 1872.2876,645.11469 h 58.0838"
       id="path1156" /><path
       style="fill:none;stroke:#000000;stroke-width:1px;stroke-linecap:butt;stroke-linejoin:miter;stroke-opacity:1"
       d="m 1794.712,658.12974 h 58.0838"
       id="path1156-3" /><path
       style="fill:none;stroke:#000000;stroke-width:1px;stroke-linecap:butt;stroke-linejoin:miter;stroke-opacity:1"
       d="m 1836.1647,552.08061 77.9994,-0.0308"
       id="path1156-4"
       sodipodi:nodetypes="cc" /><path
       style="fill:none;stroke:#000000;stroke-width:1px;stroke-linecap:butt;stroke-linejoin:miter;stroke-opacity:1"
       d="m 599.56041,663.30574 77.9994,-0.0308"
       id="path1156-4-7"
       sodipodi:nodetypes="cc" /><path
       style="fill:none;stroke:#000000;stroke-width:1px;stroke-linecap:butt;stroke-linejoin:miter;stroke-opacity:1"
       d="m -183.38452,552.58279 93.640751,0.0163"
       id="path1156-7"
       sodipodi:nodetypes="cc" /><a
       id="a16176-9"
       xlink:href="vj-va-f0.svg"
       transform="matrix(-3.1047118,0,0,3.1047118,64.789524,-417.79127)"><path
         id="rect1968-4-8-4-3-6"
         style="fill:#111111;fill-opacity:1;stroke:none;stroke-width:1.11227;stroke-linecap:round;stroke-linejoin:round;stroke-miterlimit:4;stroke-dasharray:none;stroke-opacity:1;paint-order:markers stroke fill"
         d="m 60.231385,217.00422 c 1.160259,0 2.094268,0.93471 2.094268,2.09498 v 15.56112 c 0,1.16027 -0.934009,2.09427 -2.094268,2.09427 H 43.879818 c -1.160266,0 -2.094268,-0.934 -2.094268,-2.09427 V 219.0992 c 0,-1.16027 0.934002,-2.09498 2.094268,-2.09498 z m -13.621865,3.02639 -1.42096,0.0161 0.04769,3.87292 3.10423,0.0393 0.0526,3.23959 h 3.196809 v 3.23118 h 3.181382 l 0.0077,3.19681 3.798581,0.0477 0.01893,-1.42096 -2.399361,-0.0316 -0.0077,-3.21294 h -3.178578 v -3.23118 h -3.220657 l -0.0526,-3.22346 -3.096517,-0.0393 z m 9.693531,0.14307 h -3.215044 v 3.21575 a 0.51514613,0.51514613 0 0 0 0.516903,0.5141 0.51514613,0.51514613 0 0 0 0.514099,-0.5141 v -1.44972 l 3.517332,3.5517 a 0.51514613,0.51514613 0 0 0 0.729417,0.003 0.51514613,0.51514613 0 0 0 0.0028,-0.72661 L 54.8393,221.20488 h 1.463743 a 0.51514613,0.51514613 0 0 0 0.516907,-0.5141 0.51514613,0.51514613 0 0 0 -0.516907,-0.51691 z" /></a><a
       id="a16176-9-3"
       xlink:href="vj-va-f0.svg"
       transform="matrix(-3.1047118,0,0,3.1047118,2070.0837,-414.3889)"><path
         id="rect1968-4-8-4-3-6-2"
         style="fill:#111111;fill-opacity:1;stroke:none;stroke-width:1.11227;stroke-linecap:round;stroke-linejoin:round;stroke-miterlimit:4;stroke-dasharray:none;stroke-opacity:1;paint-order:markers stroke fill"
         d="m 60.231385,217.00422 c 1.160259,0 2.094268,0.93471 2.094268,2.09498 v 15.56112 c 0,1.16027 -0.934009,2.09427 -2.094268,2.09427 H 43.879818 c -1.160266,0 -2.094268,-0.934 -2.094268,-2.09427 V 219.0992 c 0,-1.16027 0.934002,-2.09498 2.094268,-2.09498 z m -13.621865,3.02639 -1.42096,0.0161 0.04769,3.87292 3.10423,0.0393 0.0526,3.23959 h 3.196809 v 3.23118 h 3.181382 l 0.0077,3.19681 3.798581,0.0477 0.01893,-1.42096 -2.399361,-0.0316 -0.0077,-3.21294 h -3.178578 v -3.23118 h -3.220657 l -0.0526,-3.22346 -3.096517,-0.0393 z m 9.693531,0.14307 h -3.215044 v 3.21575 a 0.51514613,0.51514613 0 0 0 0.516903,0.5141 0.51514613,0.51514613 0 0 0 0.514099,-0.5141 v -1.44972 l 3.517332,3.5517 a 0.51514613,0.51514613 0 0 0 0.729417,0.003 0.51514613,0.51514613 0 0 0 0.0028,-0.72661 L 54.8393,221.20488 h 1.463743 a 0.51514613,0.51514613 0 0 0 0.516907,-0.5141 0.51514613,0.51514613 0 0 0 -0.516907,-0.51691 z" /></a><a
       id="a26760"
       xlink:href="vj-va-f0.svg"
       transform="matrix(2.1855327,0,0,2.1855327,471.38788,333.72379)"
       style="fill:#111111;fill-opacity:1"><path
         id="rect1968-4-8-1-4"
         style="fill:#111111;fill-opacity:1;stroke:none;stroke-width:1.57662;stroke-linecap:round;stroke-linejoin:round;stroke-miterlimit:4;stroke-dasharray:none;stroke-opacity:1;paint-order:markers stroke fill"
         d="m 609.67256,161.78629 c -1.64466,0 -2.96865,1.32401 -2.96865,2.96865 v 22.05807 c 0,1.6446 1.32399,2.96863 2.96865,2.96863 h 0.56638 V 169.432 a 0.68362117,0.68362117 0 0 1 0.6842,-0.6838 h 20.66988 a 0.68362117,0.68362117 0 0 1 0.68378,0.6838 v 20.34964 h 0.57352 c 1.64465,0 2.96866,-1.32403 2.96866,-2.96863 v -22.05807 c 0,-1.64464 -1.32401,-2.96865 -2.96866,-2.96865 z m 12.70817,2.37408 3.65706,0.0122 -1.84387,2.58739 z m -3.79843,0.0122 1.84389,2.58739 -3.65665,0.0122 z m -6.97539,5.94317 v 19.66588 h 8.20409 v -5.40415 l -1.33894,-0.52473 v -3.93224 c 0,-1.15024 1.4955,-2.15438 2.96234,-2.15275 1.66738,0.002 3.05039,0.96209 3.04142,2.08036 l -0.0194,4.13508 -1.32127,0.38459 v 5.41384 h 3.25267 v -19.65956 h 0.70273 v 19.65956 h 3.81865 v -19.66588 h -14.49149 v 19.44583 h -0.70314 v -19.44583 z m 9.94868,4.08711 a 1.4846464,1.4846464 0 0 1 1.48453,1.48452 1.4846464,1.4846464 0 0 1 -1.48453,1.48496 1.4846464,1.4846464 0 0 1 -1.48456,-1.48496 1.4846464,1.4846464 0 0 1 1.48456,-1.48452 z" /></a><path
       style="fill:none;stroke:#000000;stroke-width:3;stroke-linecap:butt;stroke-linejoin:miter;stroke-miterlimit:4;stroke-dasharray:none;stroke-opacity:1"
       d="m 1789.3043,664.57501 -147.0214,0.0867"
       id="path215743-3-3-8-1"
       sodipodi:nodetypes="cc" /><a
       id="a16176-9-0"
       xlink:href="vj-va-f0.svg"
       transform="matrix(-3.1047118,0,0,3.1047118,832.81125,23.773874)"><path
         id="rect1968-4-8-4-3-6-6"
         style="fill:#111111;fill-opacity:1;stroke:none;stroke-width:1.11227;stroke-linecap:round;stroke-linejoin:round;stroke-miterlimit:4;stroke-dasharray:none;stroke-opacity:1;paint-order:markers stroke fill"
         d="m 60.231385,217.00422 c 1.160259,0 2.094268,0.93471 2.094268,2.09498 v 15.56112 c 0,1.16027 -0.934009,2.09427 -2.094268,2.09427 H 43.879818 c -1.160266,0 -2.094268,-0.934 -2.094268,-2.09427 V 219.0992 c 0,-1.16027 0.934002,-2.09498 2.094268,-2.09498 z m -13.621865,3.02639 -1.42096,0.0161 0.04769,3.87292 3.10423,0.0393 0.0526,3.23959 h 3.196809 v 3.23118 h 3.181382 l 0.0077,3.19681 3.798581,0.0477 0.01893,-1.42096 -2.399361,-0.0316 -0.0077,-3.21294 h -3.178578 v -3.23118 h -3.220657 l -0.0526,-3.22346 -3.096517,-0.0393 z m 9.693531,0.14307 h -3.215044 v 3.21575 a 0.51514613,0.51514613 0 0 0 0.516903,0.5141 0.51514613,0.51514613 0 0 0 0.514099,-0.5141 v -1.44972 l 3.517332,3.5517 a 0.51514613,0.51514613 0 0 0 0.729417,0.003 0.51514613,0.51514613 0 0 0 0.0028,-0.72661 L 54.8393,221.20488 h 1.463743 a 0.51514613,0.51514613 0 0 0 0.516907,-0.5141 0.51514613,0.51514613 0 0 0 -0.516907,-0.51691 z" /></a></g></svg>
