<?xml version="1.0" encoding="UTF-8" standalone="no"?>
<svg
   width="100%"
   height="100%"
   viewBox="0 0 2300 1150"
   id="svg2"
   version="1.1"
   inkscape:version="1.1.2 (b8e25be833, 2022-02-05)"
   sodipodi:docname="vj-va-f0.svg"
   xmlns:inkscape="http://www.inkscape.org/namespaces/inkscape"
   xmlns:sodipodi="http://sodipodi.sourceforge.net/DTD/sodipodi-0.dtd"
   xmlns:xlink="http://www.w3.org/1999/xlink"
   xmlns="http://www.w3.org/2000/svg"
   xmlns:svg="http://www.w3.org/2000/svg"
   xmlns:rdf="http://www.w3.org/1999/02/22-rdf-syntax-ns#"
   xmlns:cc="http://creativecommons.org/ns#"
   xmlns:dc="http://purl.org/dc/elements/1.1/">
  <defs
     id="defs4">
    <inkscape:perspective
       sodipodi:type="inkscape:persp3d"
       inkscape:vp_x="0 : -235.86013 : 1"
       inkscape:vp_y="0 : 0.72137596 : 0"
       inkscape:vp_z="0.32089484 : -235.86013 : 1"
       inkscape:persp3d-origin="0.16044742 : -235.98665 : 1"
       id="perspective2390" />
    <inkscape:perspective
       id="perspective10"
       inkscape:persp3d-origin="0.16044742 : -235.98665 : 1"
       inkscape:vp_z="0.32089484 : -235.86013 : 1"
       inkscape:vp_y="0 : 0.72137596 : 0"
       inkscape:vp_x="0 : -235.86013 : 1"
       sodipodi:type="inkscape:persp3d" />
    <linearGradient
       id="linearGradient15662">
      <stop
         style="stop-color:#ffffff;stop-opacity:0.0000000;"
         offset="0.0000000"
         id="stop15664" />
      <stop
         style="stop-color:#f8f8f8;stop-opacity:1.0000000;"
         offset="1.0000000"
         id="stop15666" />
    </linearGradient>
    <linearGradient
       id="linearGradient259">
      <stop
         style="stop-color:#e0e0e0;stop-opacity:1.0000000;"
         offset="0.0000000"
         id="stop260" />
      <stop
         id="stop4886"
         offset="0.40546969"
         style="stop-color:#ffffff;stop-opacity:1.0000000;" />
      <stop
         id="stop4884"
         offset="0.53448278"
         style="stop-color:#cdcdcd;stop-opacity:1.0000000;" />
      <stop
         style="stop-color:#494949;stop-opacity:1.0000000;"
         offset="1.0000000"
         id="stop261" />
    </linearGradient>
    <linearGradient
       id="linearGradient4668">
      <stop
         style="stop-color:#8e8d87;stop-opacity:1;"
         offset="0"
         id="stop4670" />
      <stop
         id="stop4676"
         offset="0.27586207"
         style="stop-color:#cbc9c1;stop-opacity:1.0000000;" />
      <stop
         style="stop-color:#8e8d87;stop-opacity:1.0000000;"
         offset="1.0000000"
         id="stop4672" />
    </linearGradient>
    <linearGradient
       id="linearGradient4688">
      <stop
         style="stop-color:#666666;stop-opacity:1.0000000;"
         offset="0.0000000"
         id="stop4690" />
      <stop
         style="stop-color:#000000;stop-opacity:0;"
         offset="1"
         id="stop4692" />
    </linearGradient>
    <linearGradient
       id="linearGradient4698">
      <stop
         style="stop-color:#fffffd;stop-opacity:1.0000000;"
         offset="0.0000000"
         id="stop4700" />
      <stop
         id="stop4706"
         offset="0.50000000"
         style="stop-color:#bbbbb9;stop-opacity:1.0000000;" />
      <stop
         style="stop-color:#000000;stop-opacity:1.0000000;"
         offset="1.0000000"
         id="stop4702" />
    </linearGradient>
    <linearGradient
       id="linearGradient4733">
      <stop
         style="stop-color:#000000;stop-opacity:0.23711340;"
         offset="0.0000000"
         id="stop4735" />
      <stop
         style="stop-color:#000000;stop-opacity:0;"
         offset="1"
         id="stop4737" />
    </linearGradient>
    <linearGradient
       id="linearGradient4741">
      <stop
         style="stop-color:#dcdcda;stop-opacity:1.0000000;"
         offset="0.0000000"
         id="stop4743" />
      <stop
         style="stop-color:#bab9b7;stop-opacity:1.0000000;"
         offset="1.0000000"
         id="stop4745" />
    </linearGradient>
    <linearGradient
       id="linearGradient4762">
      <stop
         id="stop4764"
         offset="0.0000000"
         style="stop-color:#ffffff;stop-opacity:0.12371134;" />
      <stop
         style="stop-color:#ffffff;stop-opacity:1.0000000;"
         offset="0.10344828"
         id="stop4768" />
      <stop
         id="stop4766"
         offset="1"
         style="stop-color:#ffffff;stop-opacity:0;" />
    </linearGradient>
    <radialGradient
       id="shadowGradient"
       cx="32.5"
       cy="29.5"
       fx="32.5"
       fy="29.5"
       r="26.5"
       gradientUnits="userSpaceOnUse">
      <stop
         id="stop5223"
         stop-color="#C0C0C0"
         offset="0.0" />
      <stop
         id="stop5225"
         stop-color="#C0C0C0"
         offset="0.88" />
      <stop
         id="stop5227"
         stop-opacity="0.0"
         stop-color="#C0C0C0"
         offset="1.0" />
    </radialGradient>
    <linearGradient
       y2="16.248501"
       x2="9.5471001"
       y1="42.752899"
       x1="55.454102"
       gradientUnits="userSpaceOnUse"
       id="edgeGradient">
      <stop
         id="stop5218"
         stop-color="#3057A7"
         offset="0.0" />
      <stop
         id="stop5220"
         stop-color="#5A7AC6"
         offset="1.0" />
    </linearGradient>
    <linearGradient
       y2="51.987099"
       x2="22.0144"
       y1="7.0127001"
       x1="42.986301"
       gradientUnits="userSpaceOnUse"
       id="fieldGradient">
      <stop
         id="stop5213"
         stop-color="#BCD6FE"
         offset="0.0" />
      <stop
         id="stop5215"
         stop-color="#6787D3"
         offset="1.0" />
    </linearGradient>
    <radialGradient
       id="shadowGradient-4"
       cx="32.5"
       cy="29.5"
       fx="32.5"
       fy="29.5"
       r="26.5"
       gradientUnits="userSpaceOnUse">
      <stop
         id="stop5223-5"
         stop-color="#C0C0C0"
         offset="0.0" />
      <stop
         id="stop5225-4"
         stop-color="#C0C0C0"
         offset="0.88" />
      <stop
         id="stop5227-5"
         stop-opacity="0.0"
         stop-color="#C0C0C0"
         offset="1.0" />
    </radialGradient>
    <linearGradient
       y2="51.987099"
       x2="22.0144"
       y1="7.0127001"
       x1="42.986301"
       gradientUnits="userSpaceOnUse"
       id="fieldGradient-2">
      <stop
         id="stop5213-4"
         stop-color="#BCD6FE"
         offset="0.0" />
      <stop
         id="stop5215-4"
         stop-color="#6787D3"
         offset="1.0" />
    </linearGradient>
    <linearGradient
       y2="16.248501"
       x2="9.5471001"
       y1="42.752899"
       x1="55.454102"
       gradientUnits="userSpaceOnUse"
       id="edgeGradient-1">
      <stop
         id="stop5218-2"
         stop-color="#3057A7"
         offset="0.0" />
      <stop
         id="stop5220-1"
         stop-color="#5A7AC6"
         offset="1.0" />
    </linearGradient>
    <radialGradient
       id="shadowGradient-4-2"
       cx="32.5"
       cy="29.5"
       fx="32.5"
       fy="29.5"
       r="26.5"
       gradientUnits="userSpaceOnUse">
      <stop
         id="stop5223-5-3"
         stop-color="#C0C0C0"
         offset="0.0" />
      <stop
         id="stop5225-4-7"
         stop-color="#C0C0C0"
         offset="0.88" />
      <stop
         id="stop5227-5-8"
         stop-opacity="0.0"
         stop-color="#C0C0C0"
         offset="1.0" />
    </radialGradient>
    <linearGradient
       y2="51.987099"
       x2="22.0144"
       y1="7.0127001"
       x1="42.986301"
       gradientUnits="userSpaceOnUse"
       id="fieldGradient-2-6">
      <stop
         id="stop5213-4-9"
         stop-color="#BCD6FE"
         offset="0.0" />
      <stop
         id="stop5215-4-6"
         stop-color="#6787D3"
         offset="1.0" />
    </linearGradient>
    <linearGradient
       y2="16.248501"
       x2="9.5471001"
       y1="42.752899"
       x1="55.454102"
       gradientUnits="userSpaceOnUse"
       id="edgeGradient-1-8">
      <stop
         id="stop5218-2-6"
         stop-color="#3057A7"
         offset="0.0" />
      <stop
         id="stop5220-1-7"
         stop-color="#5A7AC6"
         offset="1.0" />
    </linearGradient>
    <radialGradient
       id="shadowGradient-2"
       cx="32.5"
       cy="29.5"
       fx="32.5"
       fy="29.5"
       r="26.5"
       gradientUnits="userSpaceOnUse">
      <stop
         id="stop5223-1"
         stop-color="#C0C0C0"
         offset="0.0" />
      <stop
         id="stop5225-43"
         stop-color="#C0C0C0"
         offset="0.88" />
      <stop
         id="stop5227-3"
         stop-opacity="0.0"
         stop-color="#C0C0C0"
         offset="1.0" />
    </radialGradient>
    <linearGradient
       y2="51.987099"
       x2="22.0144"
       y1="7.0127001"
       x1="42.986301"
       gradientUnits="userSpaceOnUse"
       id="fieldGradient-5">
      <stop
         id="stop5213-9"
         stop-color="#BCD6FE"
         offset="0.0" />
      <stop
         id="stop5215-5"
         stop-color="#6787D3"
         offset="1.0" />
    </linearGradient>
    <linearGradient
       y2="16.248501"
       x2="9.5471001"
       y1="42.752899"
       x1="55.454102"
       gradientUnits="userSpaceOnUse"
       id="edgeGradient-4">
      <stop
         id="stop5218-0"
         stop-color="#3057A7"
         offset="0.0" />
      <stop
         id="stop5220-13"
         stop-color="#5A7AC6"
         offset="1.0" />
    </linearGradient>
    <clipPath
       id="clip0">
      <rect
         id="rect6402"
         height="615"
         width="613"
         x="0"
         y="0" />
    </clipPath>
    <clipPath
       id="clip0-3">
      <rect
         y="0"
         x="0"
         id="rect6402-0"
         height="615"
         width="613" />
    </clipPath>
    <clipPath
       id="clip0-3-0">
      <rect
         y="0"
         x="0"
         id="rect6402-0-6"
         height="615"
         width="613" />
    </clipPath>
    <clipPath
       id="clip0-0">
      <rect
         y="0"
         x="0"
         id="rect6402-1"
         height="615"
         width="613" />
    </clipPath>
  </defs>
  <sodipodi:namedview
     id="base"
     pagecolor="#ffffff"
     bordercolor="#666666"
     borderopacity="1.0"
     inkscape:pageopacity="0.0"
     inkscape:pageshadow="2"
     inkscape:zoom="2.8"
     inkscape:cx="2175.7143"
     inkscape:cy="844.46428"
     inkscape:document-units="px"
     inkscape:current-layer="layer1"
     showgrid="false"
     fit-margin-top="0"
     fit-margin-left="0"
     fit-margin-right="0"
     fit-margin-bottom="0"
     inkscape:window-width="1920"
     inkscape:window-height="1001"
     inkscape:window-x="-9"
     inkscape:window-y="-9"
     inkscape:window-maximized="1"
     inkscape:document-rotation="0"
     inkscape:pagecheckerboard="0" />
  <metadata
     id="metadata7">
    <rdf:RDF>
      <cc:Work
         rdf:about="">
        <dc:format>image/svg+xml</dc:format>
        <dc:type
           rdf:resource="http://purl.org/dc/dcmitype/StillImage" />
      </cc:Work>
    </rdf:RDF>
  </metadata>
  <g
     inkscape:label="Layer 1"
     inkscape:groupmode="layer"
     id="layer1"
     transform="translate(255.85714,58.0522)">
    <path
       id="path4248"
       style="fill:none;stroke:#000000;stroke-width:6;stroke-linecap:butt;stroke-linejoin:miter;stroke-miterlimit:4;stroke-dasharray:none;stroke-opacity:1"
       d="m 634.74762,789.52764 -0.0443,180.82426 H -72.97507 m -141.45846,-0.1604 v 103 h 285 M 1870.1112,462.37852 V 241.27694 m -154.9019,308.33913 v -90.71428 m -232.1429,-11.42858 h 33.9286 m 37.6786,0 h 37.6786 v 101.42858 m 162.8571,-308.14286 v 47.67857 m 0,36.25 v 52.5 m 39.2857,2.85714 h -80.7143 v -53.57143 m 0,-35.35714 v -51.07143 m 80,309.57143 V 240.75893 m -448.8959,-0.31267 V 550.48187 H 1485.296 M 711.51921,747.92755 V 967.3946 1074.1161 M 1788.7807,911.9732 V 780.60714 l -103.6664,-5.00132 m 103.6664,181.54598 v 13.0357 M 1636.6379,771.90179 V 917.6875 m 0,39.4643 v 14.4643 M 1480.2093,764.75893 V 914.8304 m 0,42.6785 v 11.9643 M 1328.7807,757.61607 V 913.7589 m 0,44.2858 v 12.8571 M 1022.3522,742.61607 V 915.5446 m 0,40.8929 v 10.8929 m 622.2506,-194.14098 -18.0356,-0.64864 m -38.5966,-1.80234 -212.8064,-10.9283 m -39.0099,-1.4312 -36.2813,-1.17619 m -49.9912,-2.40576 -218.9822,-11.35979 m 0,0 -14.8632,-0.56972 m -36.07627,-2.08494 -110.4651,-5.30933 V 970.1875 M 558.78076,791.90179 c 3.31547,-71.32411 92.9569,-86.76326 133.0373,-58.59088 51.47233,36.17973 67.59178,48.8443 134.76737,58.8817 m 31.386,-0.60487 9.3808,-0.40024 M -56.44926,663.4205 v 305.9163 19.9221 H 70.7898 M 485.14286,791.93361 V 970.8521 m -77.5,-178.56135 h 10.08785 m 35.46793,-0.25254 62.67892,0.12627 m 36.83216,0.12627 H 560.5 V 969.5461 M -136.20957,517.1479 V 241.61633 m -78.64757,275.88871 h 14.19643 m 55.05357,0 h 18.69643 m 56.91964,0 h 11.91964 M 481.78571,370.43361 V 477.86218 M 322.86302,371.98893 V 518.1952 m 0,0 v 36.49176 M 255.94929,242.20464 v 128.28937 h 173.67644 m 36.2501,0 h 15.96438 v -67.32615 m 0,-36.68339 v -26.80521 m -539.8047,0.50507 v 315.51278 h 161.11933 m 44.19417,0 h 268.44804 c 6.18717,-6.49515 12.37434,-12.08983 18.56152,-16.81726 m 18.56155,-11.61373 c 12.37437,-6.05227 24.74876,-8.76839 37.12315,-8.41408 12.37438,0.3543 24.74877,3.77903 37.12315,10.00845 m 18.56154,11.41444 c 6.18718,4.48384 12.37435,9.63564 18.56152,15.42218 h 178.29194 m 44.63831,0 h 85.1663 V 372.51432 l 37.8807,-37.88072 -8.1521,-7.88425 m -18.0939,-18.40642 -11.1296,-11.08498 V 240.68941 M 718.71429,572.85629 V 300.09514 m 0,-40.4061 V -37.0522 m 765.69791,342.16053 -0.019,-144.13701 152.4813,0.002 m -152.4625,182.17212 0.032,208.4615 28.9419,0.0779 m 44.6562,0.0779 278.2276,0.0779 m 66.971,0.0389 42.6852,0.0389 h 78.028 V 833.9744 h -76.5128 M 1566.4125,665.50515 718.71459,665.49325 V 653.5695 m 416.44921,-412.27264 84.2722,-0.002 m 74.2721,-0.002 576.4106,-0.01 76.3381,-0.01 -0.1392,336.53729 m -0.069,49.19722 -0.07,343.34013 H 826.53473 m 0,0 H 702.29301 m -905.33515,0 h -11.4956 V 241.35076 l 1128.35447,-0.0389 m 71.4015,-0.005 79.97277,-0.005 M -214.14286,664.21933 h 19.06 m 123.32984,0 H 31.26865 m 43.40879,0 H 408 v 29.84932 m 0,43.91024 V 969.505 M 718.84282,434.47881 H 873.39613 M 1638.3343,47.08929 833.22103,46.90431 V -37.0522 M 1851.4593,674.04464 h 16.6786 v 87.42857 h -79.3572 v -87.42857 h 14.1964"
       inkscape:connector-curvature="0"
       sodipodi:nodetypes="cccccccccccccccccccccccccccccccccccccccccccccccccccccccccccccccccccsccccccccccccccccccccccccccccccccccccccccccccccccccscccccccccccccccccccccccccccccccccccccccccccccccccccccccccccccccc" />
    <path
       id="path4290"
       style="fill:none;stroke:#000000;stroke-width:1px;stroke-linecap:butt;stroke-linejoin:miter;stroke-opacity:1"
       d="m 1642.3748,773.11266 44.6992,2.27284 m -100.5102,-4.54569 41.6688,1.76777 m -294.2069,-14.39467 44.1942,2.0203 m -128.3381,-5.43622 49.9912,2.40576 m -321.42097,-16.16244 39.39587,2.02031 m -194.78147,48.48402 h 37.1429 M 1788.4236,958.5804 v -50 m -151.4286,50.1785 v -43.3928 m -156.9643,43.9285 v -46.25 m -150.8928,46.7858 v -48.9286 m -306.7857,47.1428 V 913.5804 M 512.26663,792.81063 h 41.41625 m -138.13836,0 h 40.15356 M 407.71584,690.02761 v 51.77032 m 226.7649,227.80087 h 69.71487"
       inkscape:connector-curvature="0"
       sodipodi:nodetypes="cccccccccccccccccccccccccccccc" />
    <text
       xml:space="preserve"
       style="font-style:normal;font-weight:normal;line-height:0%;font-family:sans-serif;text-align:center;letter-spacing:0px;word-spacing:0px;text-anchor:middle;fill:#000000;fill-opacity:1;stroke:none"
       x="446.15485"
       y="897.51251"
       id="text4488"><tspan
         sodipodi:role="line"
         id="tspan4490"
         x="446.15485"
         y="897.51251"
         style="font-size:16px;line-height:1.25;font-family:sans-serif">Toilettes</tspan><tspan
         sodipodi:role="line"
         x="446.15485"
         y="917.51251"
         id="tspan4492"
         style="font-size:16px;line-height:1.25;font-family:sans-serif">mixtes</tspan></text>
    <text
       xml:space="preserve"
       style="font-style:normal;font-weight:normal;line-height:0%;font-family:sans-serif;letter-spacing:0px;word-spacing:0px;fill:#000000;fill-opacity:1;stroke:none"
       x="523.44238"
       y="887.51251"
       id="text4494"><tspan
         sodipodi:role="line"
         id="tspan4496"
         x="523.44238"
         y="887.51251"
         style="font-size:16px;line-height:1.25;font-family:sans-serif;text-align:center;text-anchor:middle">Toilettes</tspan><tspan
         sodipodi:role="line"
         x="523.44238"
         y="907.51251"
         id="tspan4500"
         style="font-size:16px;line-height:1.25;font-family:sans-serif;text-align:center;text-anchor:middle">du per-</tspan><tspan
         sodipodi:role="line"
         x="523.44238"
         y="927.51251"
         style="font-size:16px;line-height:1.25;font-family:sans-serif;text-align:center;text-anchor:middle"
         id="tspan4504">sonnel</tspan></text>
    <path
       id="path4945"
       style="fill:none;stroke:#000000;stroke-width:2;stroke-linecap:butt;stroke-linejoin:miter;stroke-miterlimit:4;stroke-dasharray:none;stroke-opacity:1"
       d="M -214.79067,455.61607 H -58.004954 M -215.50496,441.40971 H -57.290665 M -214.96924,427.20337 H -57.826385 M -214.6121,412.997 H -58.183526 M -214.79067,398.79069 H -58.004955 M -215.14781,384.58433 H -57.647814 M -214.43353,370.378 H -58.362096 M -214.43353,356.17164 H -58.362096 M -215.50496,341.96527 H -57.290665 M -216.04067,327.75893 h 159.285715"
       inkscape:connector-curvature="0" />
    <path
       inkscape:connector-curvature="0"
       id="path4945-9"
       style="fill:none;stroke:#000000;stroke-width:2;stroke-linecap:butt;stroke-linejoin:miter;stroke-miterlimit:4;stroke-dasharray:none;stroke-opacity:1"
       d="M 561.36832,923.0152 H 710.5779 M 560.65403,908.8089 H 711.29218 M 561.18975,894.6025 H 710.75646 M 561.54689,880.3962 h 148.85243 m -149.031,-14.2064 H 710.57789 M 561.01118,851.9835 H 710.93504 M 561.72546,837.7772 H 710.22075 M 561.72546,823.5708 H 710.22075 M 560.65403,809.36447 H 711.29218 M 560.11832,795.15813 h 151.70957"
       sodipodi:nodetypes="cccccccccccccccccccc" />
    <path
       inkscape:connector-curvature="0"
       id="path4945-8"
       style="fill:none;stroke:#000000;stroke-width:2;stroke-linecap:butt;stroke-linejoin:miter;stroke-miterlimit:4;stroke-dasharray:none;stroke-opacity:1"
       d="m 1793.9947,460.4862 h 152.1428 m -152.8571,-14.20636 h 153.5714 M 1793.8161,432.0735 h 152.5 m -152.1428,-14.20637 h 151.7856 m -151.9642,-14.20631 h 152.1428 m -152.5,-14.20636 h 152.8571 m -152.1428,-14.20633 h 151.4286 m -151.4286,-14.20636 h 151.4286 m -152.5,-14.20637 h 153.5714 m -154.1071,-14.20634 h 154.6428"
       sodipodi:nodetypes="cccccccccccccccccccc" />
    <path
       inkscape:connector-curvature="0"
       id="path4945-0"
       style="fill:none;stroke:#000000;stroke-width:1.41523;stroke-linecap:butt;stroke-linejoin:miter;stroke-miterlimit:4;stroke-dasharray:none;stroke-opacity:1"
       d="m 1945.6601,755.97649 h 75.7238 m -76.0815,-14.20636 h 76.4392 m -76.1709,-14.20634 h 75.9026 m -75.7238,-14.20637 h 75.545 m -75.6344,-14.20631 h 75.7238 m -75.9026,-14.20636 h 76.0815 m -75.7238,-14.20633 h 75.3661 m -75.3661,-14.20636 h 75.3661 m -75.9027,-14.20637 h 76.4392 m -76.7074,-14.20634 h 76.9756"
       sodipodi:nodetypes="cccccccccccccccccccc" />
    <path
       id="path5034"
       style="fill:none;stroke:#000000;stroke-width:2;stroke-linecap:butt;stroke-linejoin:miter;stroke-miterlimit:4;stroke-dasharray:none;stroke-opacity:1"
       d="m 1607.2361,45.44997 v 114.2857 m -13.6549,-113.75 v 113.2143 M 1579.9263,47.05712 v 111.0714 m -13.6548,-111.0714 v 111.0714 m -13.6551,-111.7857 v 112.5 M 1538.9615,46.69997 v 111.7857 M 1525.3066,46.87852 v 111.4286 m -13.6549,-111.7857 v 112.1428 m -13.655,-112.67855 v 113.2143 m -13.6549,-112.5 v 111.7857 m 136.5494,0.36002 V 46.33995 m 13.6549,113.07395 V 45.77174"
       inkscape:connector-curvature="0" />
    <path
       inkscape:connector-curvature="0"
       id="path5034-9"
       style="fill:none;stroke:#000000;stroke-width:2;stroke-linecap:butt;stroke-linejoin:miter;stroke-miterlimit:4;stroke-dasharray:none;stroke-opacity:1"
       d="m 720.56648,-27.12781 h 112.5 m -112.14285,13.6549 h 111.7857 M 721.10218,0.18199 h 111.4286 m -111.7857,13.6549 h 112.1428 M 720.20933,27.4919 h 113.2143 m -112.5,13.6549 h 111.7857"
       sodipodi:nodetypes="cccccccccccc" />
    <path
       inkscape:connector-curvature="0"
       id="path5034-0"
       style="fill:none;stroke:#000000;stroke-width:2.62102;stroke-linecap:butt;stroke-linejoin:miter;stroke-miterlimit:4;stroke-dasharray:none;stroke-opacity:1"
       d="M 711.26301,1074.1161 H 562.82686 m 147.82268,-13.6549 H 563.44015 m 146.90283,-13.6549 H 563.74689 m 147.20939,-13.6549 H 563.13359 m 148.74272,-13.655 H 562.21338"
       sodipodi:nodetypes="cccccccccc" />
    <path
       inkscape:connector-curvature="0"
       id="path5034-0-6"
       style="fill:none;stroke:#000000;stroke-width:2;stroke-linecap:butt;stroke-linejoin:miter;stroke-miterlimit:4;stroke-dasharray:none;stroke-opacity:1"
       d="m 52.790144,988.7232 v 84.6429 m -13.6549,-84.1072 v 83.5715 m -13.6549,-82.5001 v 81.4286 m -13.6548,-81.4286 v 81.4286 m -13.6551,-82.1429 v 82.8572 m -13.6549,-82.5 v 82.1429 m -13.6549,-81.9644 v 81.7858 m -13.6549,-82.1429 v 82.5 M -56.44926,989.2589 v 83.5715 m 122.894504,-0.3543 v -82.8629"
       sodipodi:nodetypes="cccccccccccccccccccc" />
    <path
       style="fill:none;stroke:#000000;stroke-width:6;stroke-linecap:butt;stroke-linejoin:miter;stroke-miterlimit:4;stroke-dasharray:none;stroke-opacity:1"
       d="m 1023.1512,531.61771 c 39.8513,-62.52547 112.7208,-64.67081 151.5045,0 m 0.01,26.37955 -151.5137,0.002"
       id="path5134"
       inkscape:connector-curvature="0"
       sodipodi:nodetypes="cccc" />
    <g
       id="g5250-0-9"
       transform="matrix(0.36878225,0,0,0.36878225,1865.743,946.93181)" />
    <path
       style="fill:none;stroke:#000000;stroke-width:6;stroke-linecap:butt;stroke-linejoin:miter;stroke-miterlimit:4;stroke-dasharray:none;stroke-opacity:1"
       d="m 1788.7808,780.60714 v -19.13393 h 88.3621 m 47.1428,0 h 20"
       id="path1154"
       sodipodi:nodetypes="ccccc" />
    <path
       style="fill:none;stroke:#000000;stroke-width:1px;stroke-linecap:butt;stroke-linejoin:miter;stroke-opacity:1"
       d="m 1872.401,761.3516 h 58.0838"
       id="path1156" />
    <text
       xml:space="preserve"
       style="font-size:18.6667px;line-height:1.25;font-family:Bahagia;-inkscape-font-specification:Bahagia"
       x="1799.0925"
       y="859.69952"
       id="text1160"><tspan
         sodipodi:role="line"
         id="tspan1158"
         x="1799.0925"
         y="859.69952"
         style="font-style:normal;font-variant:normal;font-weight:bold;font-stretch:normal;font-size:18.6667px;font-family:'Atkinson Hyperlegible';-inkscape-font-specification:'Atkinson Hyperlegible Bold'">Mathématiques</tspan></text>
    <text
       xml:space="preserve"
       style="font-size:18.6667px;line-height:1.25;font-family:Bahagia;-inkscape-font-specification:Bahagia"
       x="1067.4739"
       y="858.80322"
       id="text1160-4"><tspan
         sodipodi:role="line"
         id="tspan1158-3"
         x="1067.4739"
         y="858.80322"
         style="font-style:normal;font-variant:normal;font-weight:bold;font-stretch:normal;font-size:18.6667px;font-family:'Atkinson Hyperlegible';-inkscape-font-specification:'Atkinson Hyperlegible Bold'">Secrétariat Pédagogique</tspan></text>
    <text
       xml:space="preserve"
       style="font-size:18.6667px;line-height:17.93px;font-family:Bahagia;-inkscape-font-specification:Bahagia"
       x="1176.6416"
       y="896.89972"
       id="text1160-4-7"><tspan
         style="font-style:normal;font-variant:normal;font-weight:normal;font-stretch:normal;font-size:18.6667px;font-family:'Atkinson Hyperlegible';-inkscape-font-specification:'Atkinson Hyperlegible';text-align:center;text-anchor:middle"
         sodipodi:role="line"
         id="tspan1200"
         x="1176.6416"
         y="896.89972">Chantal Schmitt</tspan><tspan
         sodipodi:role="line"
         x="1176.6416"
         y="916.88806"
         style="font-style:normal;font-variant:normal;font-weight:normal;font-stretch:normal;font-size:18.6667px;font-family:'Atkinson Hyperlegible';-inkscape-font-specification:'Atkinson Hyperlegible';text-align:center;text-anchor:middle"
         id="tspan1198">Marie Beaune</tspan></text>
    <text
       xml:space="preserve"
       style="font-size:18.6667px;line-height:1.25;font-family:Bahagia;-inkscape-font-specification:Bahagia"
       x="1362.7545"
       y="859.34381"
       id="text1160-4-0"><tspan
         sodipodi:role="line"
         id="tspan1158-3-8"
         x="1362.7545"
         y="859.34381"
         style="font-style:normal;font-variant:normal;font-weight:bold;font-stretch:normal;font-size:18.6667px;font-family:'Atkinson Hyperlegible';-inkscape-font-specification:'Atkinson Hyperlegible Bold'">Direction</tspan></text>
    <text
       xml:space="preserve"
       style="font-size:18.6667px;line-height:17.93px;font-family:Bahagia;-inkscape-font-specification:Bahagia"
       x="1402.739"
       y="896.69287"
       id="text1160-4-7-7"><tspan
         sodipodi:role="line"
         x="1402.739"
         y="896.69287"
         style="font-style:normal;font-variant:normal;font-weight:normal;font-stretch:normal;font-size:18.6667px;font-family:'Atkinson Hyperlegible';-inkscape-font-specification:'Atkinson Hyperlegible';text-align:center;text-anchor:middle"
         id="tspan1198-6">Claudine</tspan><tspan
         sodipodi:role="line"
         x="1402.739"
         y="916.68121"
         style="font-style:normal;font-variant:normal;font-weight:normal;font-stretch:normal;font-size:18.6667px;font-family:'Atkinson Hyperlegible';-inkscape-font-specification:'Atkinson Hyperlegible';text-align:center;text-anchor:middle"
         id="tspan1243">Cavatorta</tspan></text>
    <text
       xml:space="preserve"
       style="font-size:18.6667px;line-height:17.93px;font-family:Bahagia;-inkscape-font-specification:Bahagia"
       x="1559.6575"
       y="888.94238"
       id="text1160-4-0-9"><tspan
         style="font-style:normal;font-variant:normal;font-weight:bold;font-stretch:normal;font-size:18.6667px;font-family:'Atkinson Hyperlegible';-inkscape-font-specification:'Atkinson Hyperlegible Bold';text-align:center;text-anchor:middle"
         sodipodi:role="line"
         id="tspan1278"
         x="1559.6575"
         y="888.94238">Sciences de </tspan><tspan
         sodipodi:role="line"
         x="1559.6575"
         y="908.93073"
         style="font-style:normal;font-variant:normal;font-weight:bold;font-stretch:normal;font-size:18.6667px;font-family:'Atkinson Hyperlegible';-inkscape-font-specification:'Atkinson Hyperlegible Bold';text-align:center;text-anchor:middle"
         id="tspan1272">l'ingénieur</tspan></text>
    <text
       xml:space="preserve"
       style="font-size:18.6667px;line-height:17.93px;font-family:Bahagia;-inkscape-font-specification:Bahagia"
       x="1557.4736"
       y="929.70508"
       id="text1160-4-7-7-2"><tspan
         sodipodi:role="line"
         x="1557.4736"
         y="929.70508"
         style="font-style:normal;font-variant:normal;font-weight:normal;font-stretch:normal;font-size:18.6667px;font-family:'Atkinson Hyperlegible';-inkscape-font-specification:'Atkinson Hyperlegible';text-align:center;text-anchor:middle"
         id="tspan1243-1">Anne-Sophie</tspan><tspan
         sodipodi:role="line"
         x="1557.4736"
         y="949.69342"
         style="font-style:normal;font-variant:normal;font-weight:normal;font-stretch:normal;font-size:18.6667px;font-family:'Atkinson Hyperlegible';-inkscape-font-specification:'Atkinson Hyperlegible';text-align:center;text-anchor:middle"
         id="tspan1276">Dujardin</tspan></text>
    <text
       xml:space="preserve"
       style="font-size:18.6667px;line-height:17.93px;font-family:Bahagia;-inkscape-font-specification:Bahagia"
       x="1560.0776"
       y="812.65216"
       id="text1160-4-0-9-0"><tspan
         sodipodi:role="line"
         x="1560.0776"
         y="812.65216"
         style="font-style:normal;font-variant:normal;font-weight:bold;font-stretch:normal;font-size:18.6667px;font-family:'Atkinson Hyperlegible';-inkscape-font-specification:'Atkinson Hyperlegible Bold';text-align:center;text-anchor:middle"
         id="tspan1272-4">Algorithmique</tspan></text>
    <text
       xml:space="preserve"
       style="font-size:18.6667px;line-height:17.93px;font-family:Bahagia;-inkscape-font-specification:Bahagia"
       x="1557.8938"
       y="835.41492"
       id="text1160-4-7-7-2-2"><tspan
         sodipodi:role="line"
         x="1557.8938"
         y="835.41492"
         style="font-style:normal;font-variant:normal;font-weight:normal;font-stretch:normal;font-size:18.6667px;font-family:'Atkinson Hyperlegible';-inkscape-font-specification:'Atkinson Hyperlegible';text-align:center;text-anchor:middle"
         id="tspan1276-4">Nathalie</tspan><tspan
         sodipodi:role="line"
         x="1557.8938"
         y="855.40326"
         style="font-style:normal;font-variant:normal;font-weight:normal;font-stretch:normal;font-size:18.6667px;font-family:'Atkinson Hyperlegible';-inkscape-font-specification:'Atkinson Hyperlegible';text-align:center;text-anchor:middle"
         id="tspan1314">Bouquet</tspan></text>
    <text
       xml:space="preserve"
       style="font-size:18.6667px;line-height:17.93px;font-family:Bahagia;-inkscape-font-specification:Bahagia"
       x="1712.1001"
       y="859.46143"
       id="text1160-4-0-9-0-5"><tspan
         sodipodi:role="line"
         x="1712.1001"
         y="859.46143"
         style="font-style:normal;font-variant:normal;font-weight:bold;font-stretch:normal;font-size:18.6667px;font-family:'Atkinson Hyperlegible';-inkscape-font-specification:'Atkinson Hyperlegible Bold';text-align:center;text-anchor:middle"
         id="tspan1272-4-7">Algorithmique</tspan></text>
    <text
       xml:space="preserve"
       style="font-size:18.6667px;line-height:17.93px;font-family:Bahagia;-inkscape-font-specification:Bahagia"
       x="1711.7335"
       y="897.37653"
       id="text1160-4-7-7-2-2-4"><tspan
         sodipodi:role="line"
         x="1711.7335"
         y="897.37653"
         style="font-style:normal;font-variant:normal;font-weight:normal;font-stretch:normal;font-size:18.6667px;font-family:'Atkinson Hyperlegible';-inkscape-font-specification:'Atkinson Hyperlegible';text-align:center;text-anchor:middle"
         id="tspan1314-2">Christophe</tspan><tspan
         sodipodi:role="line"
         x="1711.7335"
         y="917.36487"
         style="font-style:normal;font-variant:normal;font-weight:normal;font-stretch:normal;font-size:18.6667px;font-family:'Atkinson Hyperlegible';-inkscape-font-specification:'Atkinson Hyperlegible';text-align:center;text-anchor:middle"
         id="tspan1345">Boullay</tspan></text>
    <text
       xml:space="preserve"
       style="font-size:18.6667px;line-height:17.93px;font-family:Bahagia;-inkscape-font-specification:Bahagia"
       x="1866.2823"
       y="897.82758"
       id="text1160-4-7-7-2-2-4-4"><tspan
         sodipodi:role="line"
         x="1866.2823"
         y="897.82758"
         style="font-style:normal;font-variant:normal;font-weight:normal;font-stretch:normal;font-size:18.6667px;font-family:'Atkinson Hyperlegible';-inkscape-font-specification:'Atkinson Hyperlegible';text-align:center;text-anchor:middle"
         id="tspan1345-4">Tremoulet</tspan><tspan
         sodipodi:role="line"
         x="1866.2823"
         y="917.81592"
         style="font-style:normal;font-variant:normal;font-weight:normal;font-stretch:normal;font-size:18.6667px;font-family:'Atkinson Hyperlegible';-inkscape-font-specification:'Atkinson Hyperlegible';text-align:center;text-anchor:middle"
         id="tspan1370">Euvrard</tspan></text>
    <text
       xml:space="preserve"
       style="font-size:18.6667px;line-height:1.25;font-family:Bahagia;-inkscape-font-specification:Bahagia"
       x="898.00507"
       y="856.58081"
       id="text1160-4-0-3"><tspan
         sodipodi:role="line"
         id="tspan1158-3-8-2"
         x="898.00507"
         y="856.58081"
         style="font-style:normal;font-variant:normal;font-weight:bold;font-stretch:normal;font-size:18.6667px;font-family:'Atkinson Hyperlegible';-inkscape-font-specification:'Atkinson Hyperlegible Bold'">SupBiotech</tspan></text>
    <path
       style="fill:none;stroke:#000000;stroke-width:6;stroke-linecap:butt;stroke-linejoin:miter;stroke-miterlimit:4;stroke-dasharray:none;stroke-opacity:1"
       d="m 634.70332,970.3519 h 11.11996"
       id="path1289" />
    <path
       style="fill:none;stroke:#000000;stroke-width:6;stroke-linecap:butt;stroke-linejoin:miter;stroke-miterlimit:4;stroke-dasharray:none;stroke-opacity:1"
       d="M 562.82686,1074.1161 V 970.3313"
       id="path1291" />
    <path
       style="fill:none;stroke:#000000;stroke-width:1px;stroke-linecap:butt;stroke-linejoin:miter;stroke-opacity:1"
       d="m -203.04214,970.3475 64.82786,2e-4 m 10.71429,0 54.52492,2e-4"
       id="path1293"
       sodipodi:nodetypes="cccc" />
    <path
       style="fill:none;stroke:#000000;stroke-width:6;stroke-linecap:butt;stroke-linejoin:miter;stroke-miterlimit:4;stroke-dasharray:none;stroke-opacity:1"
       d="m -138.21428,970.3477 h 10.71429"
       id="path1295" />
    <path
       style="fill:none;stroke:#000000;stroke-width:1px;stroke-linecap:butt;stroke-linejoin:miter;stroke-opacity:1"
       d="M 31.26865,664.21933 H 74.67744"
       id="path1297" />
    <path
       style="fill:none;stroke:#000000;stroke-width:6;stroke-linecap:butt;stroke-linejoin:miter;stroke-miterlimit:4;stroke-dasharray:none;stroke-opacity:1"
       d="m 321.56432,489.49874 110.55885,-5.59084 m 39.87567,-2.01647 30.35466,-1.535 m 36.87843,-1.8649 118.59398,-5.99717 m 37.886,-1.91585 25.36773,-1.28282"
       id="path1299"
       sodipodi:nodetypes="cccccccc" />
    <path
       style="fill:none;stroke:#000000;stroke-width:6;stroke-linecap:butt;stroke-linejoin:miter;stroke-miterlimit:4;stroke-dasharray:none;stroke-opacity:1"
       d="m 482.93618,309.69159 h 18.18275 m 38.13326,0 H 651.8842 m 38.63833,0 h 28.53681"
       id="path1301"
       sodipodi:nodetypes="cccccc" />
    <path
       style="fill:none;stroke:#000000;stroke-width:6;stroke-linecap:butt;stroke-linejoin:miter;stroke-miterlimit:4;stroke-dasharray:none;stroke-opacity:1"
       d="m 597.08342,309.69159 v 164.9074"
       id="path1303" />
    <text
       xml:space="preserve"
       style="font-size:18.6667px;line-height:1.25;font-family:Bahagia;-inkscape-font-specification:Bahagia"
       x="1410.5277"
       y="397.05334"
       id="text1160-4-0-4"><tspan
         sodipodi:role="line"
         id="tspan1158-3-8-4"
         x="1410.5277"
         y="397.05334"
         style="font-style:normal;font-variant:normal;font-weight:bold;font-stretch:normal;font-size:18.6667px;font-family:'Atkinson Hyperlegible';-inkscape-font-specification:'Atkinson Hyperlegible Bold';text-align:center;text-anchor:middle">Crocus</tspan><tspan
         sodipodi:role="line"
         x="1410.5277"
         y="422.44504"
         style="font-style:normal;font-variant:normal;font-weight:bold;font-stretch:normal;font-size:18.6667px;font-family:'Atkinson Hyperlegible';-inkscape-font-specification:'Atkinson Hyperlegible Bold';text-align:center;text-anchor:middle"
         id="tspan1355">Cafeteria</tspan></text>
    <text
       xml:space="preserve"
       style="font-size:18.6667px;line-height:1.25;font-family:Bahagia;-inkscape-font-specification:Bahagia"
       x="765.69293"
       y="346.33905"
       id="text1160-4-0-6"><tspan
         sodipodi:role="line"
         id="tspan1158-3-8-8"
         x="765.69293"
         y="346.33905"
         style="font-style:normal;font-variant:normal;font-weight:bold;font-stretch:normal;font-size:18.6667px;font-family:'Atkinson Hyperlegible';-inkscape-font-specification:'Atkinson Hyperlegible Bold'">Accueil</tspan></text>
    <text
       xml:space="preserve"
       style="font-size:32px;line-height:1.25;font-family:Bahagia;-inkscape-font-specification:Bahagia"
       x="132.35199"
       y="828.29651"
       id="text1160-4-0-6-3"><tspan
         sodipodi:role="line"
         id="tspan1158-3-8-8-9"
         x="132.35199"
         y="828.29651"
         style="font-style:normal;font-variant:normal;font-weight:bold;font-stretch:normal;font-size:32px;font-family:'Atkinson Hyperlegible';-inkscape-font-specification:'Atkinson Hyperlegible Bold'">VA01</tspan></text>
    <text
       xml:space="preserve"
       style="font-size:32px;line-height:1.25;font-family:Bahagia;-inkscape-font-specification:Bahagia"
       x="51.563175"
       y="405.87958"
       id="text1160-4-0-6-3-5"><tspan
         sodipodi:role="line"
         x="51.563175"
         y="405.87958"
         style="font-style:normal;font-variant:normal;font-weight:bold;font-stretch:normal;font-size:32px;font-family:'Atkinson Hyperlegible';-inkscape-font-specification:'Atkinson Hyperlegible Bold'"
         id="tspan1403">Refectoire</tspan></text>
    <text
       xml:space="preserve"
       style="font-size:32px;line-height:1.25;font-family:Bahagia;-inkscape-font-specification:Bahagia"
       x="84.429443"
       y="441.93188"
       id="text1160-4-0-6-3-5-2"><tspan
         sodipodi:role="line"
         x="84.429443"
         y="441.93188"
         style="font-style:normal;font-variant:normal;font-weight:bold;font-stretch:normal;font-size:32px;font-family:'Atkinson Hyperlegible';-inkscape-font-specification:'Atkinson Hyperlegible Bold'"
         id="tspan1403-8">VA02</tspan></text>
    <path
       style="fill:none;stroke:#000000;stroke-width:1px;stroke-linecap:butt;stroke-linejoin:miter;stroke-opacity:1"
       d="m 434.35857,538.87985 18.56155,-11.61373"
       id="path2479" />
    <path
       style="fill:none;stroke:#000000;stroke-width:1px;stroke-linecap:butt;stroke-linejoin:miter;stroke-opacity:1"
       d="m 527.16642,528.86049 18.56154,11.41444"
       id="path2481" />
    <path
       style="fill:none;stroke:#000000;stroke-width:1px;stroke-linecap:butt;stroke-linejoin:miter;stroke-opacity:1"
       d="M 147.34901,555.69711 H 103.15484"
       id="path2483" />
    <path
       style="fill:none;stroke:#000000;stroke-width:1px;stroke-linecap:butt;stroke-linejoin:miter;stroke-opacity:1"
       d="M 787.21976,555.69711 H 742.58142"
       id="path2485" />
    <path
       style="fill:none;stroke:#000000;stroke-width:1px;stroke-linecap:butt;stroke-linejoin:miter;stroke-opacity:1"
       d="m 902.11466,326.74935 -18.0939,-18.40642"
       id="path2487" />
    <path
       style="fill:none;stroke:#000000;stroke-width:1px;stroke-linecap:butt;stroke-linejoin:miter;stroke-opacity:1"
       d="m 1513.3859,551.68484 44.6562,0.0779"
       id="path2489" />
    <path
       style="fill:none;stroke:#000000;stroke-width:1px;stroke-linecap:butt;stroke-linejoin:miter;stroke-opacity:1"
       d="M 1554.6736,447.47321 H 1516.995"
       id="path2491" />
    <path
       style="fill:none;stroke:#000000;stroke-width:1px;stroke-linecap:butt;stroke-linejoin:miter;stroke-opacity:1"
       d="m 985.21826,241.30686 -71.4015,0.005"
       id="path2493" />
    <path
       style="fill:none;stroke:#000000;stroke-width:1px;stroke-linecap:butt;stroke-linejoin:miter;stroke-opacity:1"
       d="m 1065.191,241.30186 69.9728,-0.005"
       id="path2495" />
    <path
       style="fill:none;stroke:#000000;stroke-width:1px;stroke-linecap:butt;stroke-linejoin:miter;stroke-opacity:1"
       d="m 1219.436,241.29486 74.2721,-0.002"
       id="path2497" />
    <a
       id="a5575"
       xlink:href="vj-va-f-1.svg"
       transform="matrix(3.0754589,0,0,3.0754589,-337.06737,-415.12501)">
      <path
         id="rect1968-4-8-1-4-1"
         style="fill:#111111;fill-opacity:1;stroke:none;stroke-width:1.11803;stroke-linecap:round;stroke-linejoin:round;stroke-miterlimit:4;stroke-dasharray:none;stroke-opacity:1;paint-order:markers stroke fill"
         d="m 60.543363,217.84993 c 1.1662,0 2.10641,0.94022 2.10641,2.10648 v 15.64071 c 0,1.16626 -0.94021,2.10647 -2.10641,2.10647 h -16.43493 c -1.16619,0 -2.1064,-0.94021 -2.1064,-2.10647 v -15.64071 c 0,-1.16626 0.94021,-2.10648 2.1064,-2.10648 z m -1.33386,3.04168 -3.81892,0.0491 -0.009,3.21184 h -3.19804 v 3.24864 h -3.21342 l -0.0537,3.25631 -3.11679,0.0399 -0.0491,3.89101 1.42892,0.0184 0.0307,-2.49895 3.11223,-0.0399 0.0535,-3.23791 h 3.23791 v -3.24711 h 3.19497 l 0.008,-3.23178 2.4116,-0.0307 z m -1.29697,7.90314 a 0.51781066,0.51781066 0 0 0 -0.44616,0.14717 l -3.53682,3.57059 v -1.45798 a 0.51781066,0.51781066 0 0 0 -0.51665,-0.51665 0.51781066,0.51781066 0 0 0 -0.51823,0.51665 v 2.68753 a 0.51781066,0.51781066 0 0 0 0,0.0567 v 0.48753 h 3.23179 a 0.51781066,0.51781066 0 0 0 0.51665,-0.51819 0.51781066,0.51781066 0 0 0 -0.51665,-0.51666 h -1.4764 l 3.54914,-3.58132 a 0.51781066,0.51781066 0 0 0 0,-0.73129 0.51781066,0.51781066 0 0 0 -0.28667,-0.14411 z" />
    </a>
    <a
       id="a16176-9"
       xlink:href="vj-va-f1.svg"
       transform="matrix(-3.1047118,0,0,3.1047118,64.205213,-418.87207)">
      <path
         id="rect1968-4-8-4-3-6"
         style="fill:#111111;fill-opacity:1;stroke:none;stroke-width:1.11227;stroke-linecap:round;stroke-linejoin:round;stroke-miterlimit:4;stroke-dasharray:none;stroke-opacity:1;paint-order:markers stroke fill"
         d="m 60.231385,217.00422 c 1.160259,0 2.094268,0.93471 2.094268,2.09498 v 15.56112 c 0,1.16027 -0.934009,2.09427 -2.094268,2.09427 H 43.879818 c -1.160266,0 -2.094268,-0.934 -2.094268,-2.09427 V 219.0992 c 0,-1.16027 0.934002,-2.09498 2.094268,-2.09498 z m -13.621865,3.02639 -1.42096,0.0161 0.04769,3.87292 3.10423,0.0393 0.0526,3.23959 h 3.196809 v 3.23118 h 3.181382 l 0.0077,3.19681 3.798581,0.0477 0.01893,-1.42096 -2.399361,-0.0316 -0.0077,-3.21294 h -3.178578 v -3.23118 h -3.220657 l -0.0526,-3.22346 -3.096517,-0.0393 z m 9.693531,0.14307 h -3.215044 v 3.21575 a 0.51514613,0.51514613 0 0 0 0.516903,0.5141 0.51514613,0.51514613 0 0 0 0.514099,-0.5141 v -1.44972 l 3.517332,3.5517 a 0.51514613,0.51514613 0 0 0 0.729417,0.003 0.51514613,0.51514613 0 0 0 0.0028,-0.72661 L 54.8393,221.20488 h 1.463743 a 0.51514613,0.51514613 0 0 0 0.516907,-0.5141 0.51514613,0.51514613 0 0 0 -0.516907,-0.51691 z" />
    </a>
    <a
       id="a26760"
       xlink:href="vj-va-f1.svg"
       transform="matrix(2.1855327,0,0,2.1855327,470.56465,333.78695)"
       style="fill:#111111;fill-opacity:1">
      <path
         id="rect1968-4-8-1-4"
         style="fill:#111111;fill-opacity:1;stroke:none;stroke-width:1.57662;stroke-linecap:round;stroke-linejoin:round;stroke-miterlimit:4;stroke-dasharray:none;stroke-opacity:1;paint-order:markers stroke fill"
         d="m 609.67256,161.78629 c -1.64466,0 -2.96865,1.32401 -2.96865,2.96865 v 22.05807 c 0,1.6446 1.32399,2.96863 2.96865,2.96863 h 0.56638 V 169.432 a 0.68362117,0.68362117 0 0 1 0.6842,-0.6838 h 20.66988 a 0.68362117,0.68362117 0 0 1 0.68378,0.6838 v 20.34964 h 0.57352 c 1.64465,0 2.96866,-1.32403 2.96866,-2.96863 v -22.05807 c 0,-1.64464 -1.32401,-2.96865 -2.96866,-2.96865 z m 12.70817,2.37408 3.65706,0.0122 -1.84387,2.58739 z m -3.79843,0.0122 1.84389,2.58739 -3.65665,0.0122 z m -6.97539,5.94317 v 19.66588 h 8.20409 v -5.40415 l -1.33894,-0.52473 v -3.93224 c 0,-1.15024 1.4955,-2.15438 2.96234,-2.15275 1.66738,0.002 3.05039,0.96209 3.04142,2.08036 l -0.0194,4.13508 -1.32127,0.38459 v 5.41384 h 3.25267 v -19.65956 h 0.70273 v 19.65956 h 3.81865 v -19.66588 h -14.49149 v 19.44583 h -0.70314 v -19.44583 z m 9.94868,4.08711 a 1.4846464,1.4846464 0 0 1 1.48453,1.48452 1.4846464,1.4846464 0 0 1 -1.48453,1.48496 1.4846464,1.4846464 0 0 1 -1.48456,-1.48496 1.4846464,1.4846464 0 0 1 1.48456,-1.48452 z" />
    </a>
    <a
       id="a5575-3"
       xlink:href="vj-va-f-1.svg"
       transform="matrix(3.0754589,0,0,3.0754589,1671.1661,-411.20784)">
      <path
         id="rect1968-4-8-1-4-1-4"
         style="fill:#111111;fill-opacity:1;stroke:none;stroke-width:1.11803;stroke-linecap:round;stroke-linejoin:round;stroke-miterlimit:4;stroke-dasharray:none;stroke-opacity:1;paint-order:markers stroke fill"
         d="m 60.543363,217.84993 c 1.1662,0 2.10641,0.94022 2.10641,2.10648 v 15.64071 c 0,1.16626 -0.94021,2.10647 -2.10641,2.10647 h -16.43493 c -1.16619,0 -2.1064,-0.94021 -2.1064,-2.10647 v -15.64071 c 0,-1.16626 0.94021,-2.10648 2.1064,-2.10648 z m -1.33386,3.04168 -3.81892,0.0491 -0.009,3.21184 h -3.19804 v 3.24864 h -3.21342 l -0.0537,3.25631 -3.11679,0.0399 -0.0491,3.89101 1.42892,0.0184 0.0307,-2.49895 3.11223,-0.0399 0.0535,-3.23791 h 3.23791 v -3.24711 h 3.19497 l 0.008,-3.23178 2.4116,-0.0307 z m -1.29697,7.90314 a 0.51781066,0.51781066 0 0 0 -0.44616,0.14717 l -3.53682,3.57059 v -1.45798 a 0.51781066,0.51781066 0 0 0 -0.51665,-0.51665 0.51781066,0.51781066 0 0 0 -0.51823,0.51665 v 2.68753 a 0.51781066,0.51781066 0 0 0 0,0.0567 v 0.48753 h 3.23179 a 0.51781066,0.51781066 0 0 0 0.51665,-0.51819 0.51781066,0.51781066 0 0 0 -0.51665,-0.51666 h -1.4764 l 3.54914,-3.58132 a 0.51781066,0.51781066 0 0 0 0,-0.73129 0.51781066,0.51781066 0 0 0 -0.28667,-0.14411 z" />
    </a>
    <a
       id="a16176-9-3"
       xlink:href="vj-va-f1.svg"
       transform="matrix(-3.1047118,0,0,3.1047118,2070.4387,-414.9549)">
      <path
         id="rect1968-4-8-4-3-6-2"
         style="fill:#111111;fill-opacity:1;stroke:none;stroke-width:1.11227;stroke-linecap:round;stroke-linejoin:round;stroke-miterlimit:4;stroke-dasharray:none;stroke-opacity:1;paint-order:markers stroke fill"
         d="m 60.231385,217.00422 c 1.160259,0 2.094268,0.93471 2.094268,2.09498 v 15.56112 c 0,1.16027 -0.934009,2.09427 -2.094268,2.09427 H 43.879818 c -1.160266,0 -2.094268,-0.934 -2.094268,-2.09427 V 219.0992 c 0,-1.16027 0.934002,-2.09498 2.094268,-2.09498 z m -13.621865,3.02639 -1.42096,0.0161 0.04769,3.87292 3.10423,0.0393 0.0526,3.23959 h 3.196809 v 3.23118 h 3.181382 l 0.0077,3.19681 3.798581,0.0477 0.01893,-1.42096 -2.399361,-0.0316 -0.0077,-3.21294 h -3.178578 v -3.23118 h -3.220657 l -0.0526,-3.22346 -3.096517,-0.0393 z m 9.693531,0.14307 h -3.215044 v 3.21575 a 0.51514613,0.51514613 0 0 0 0.516903,0.5141 0.51514613,0.51514613 0 0 0 0.514099,-0.5141 v -1.44972 l 3.517332,3.5517 a 0.51514613,0.51514613 0 0 0 0.729417,0.003 0.51514613,0.51514613 0 0 0 0.0028,-0.72661 L 54.8393,221.20488 h 1.463743 a 0.51514613,0.51514613 0 0 0 0.516907,-0.5141 0.51514613,0.51514613 0 0 0 -0.516907,-0.51691 z" />
    </a>
    <a
       id="a5575-3-4"
       xlink:href="vj-va-f-1.svg"
       transform="matrix(-3.0754589,0,0,3.0754589,2145.8414,95.056133)">
      <path
         id="rect1968-4-8-1-4-1-4-8"
         style="fill:#111111;fill-opacity:1;stroke:none;stroke-width:1.11803;stroke-linecap:round;stroke-linejoin:round;stroke-miterlimit:4;stroke-dasharray:none;stroke-opacity:1;paint-order:markers stroke fill"
         d="m 60.543363,217.84993 c 1.1662,0 2.10641,0.94022 2.10641,2.10648 v 15.64071 c 0,1.16626 -0.94021,2.10647 -2.10641,2.10647 h -16.43493 c -1.16619,0 -2.1064,-0.94021 -2.1064,-2.10647 v -15.64071 c 0,-1.16626 0.94021,-2.10648 2.1064,-2.10648 z m -1.33386,3.04168 -3.81892,0.0491 -0.009,3.21184 h -3.19804 v 3.24864 h -3.21342 l -0.0537,3.25631 -3.11679,0.0399 -0.0491,3.89101 1.42892,0.0184 0.0307,-2.49895 3.11223,-0.0399 0.0535,-3.23791 h 3.23791 v -3.24711 h 3.19497 l 0.008,-3.23178 2.4116,-0.0307 z m -1.29697,7.90314 a 0.51781066,0.51781066 0 0 0 -0.44616,0.14717 l -3.53682,3.57059 v -1.45798 a 0.51781066,0.51781066 0 0 0 -0.51665,-0.51665 0.51781066,0.51781066 0 0 0 -0.51823,0.51665 v 2.68753 a 0.51781066,0.51781066 0 0 0 0,0.0567 v 0.48753 h 3.23179 a 0.51781066,0.51781066 0 0 0 0.51665,-0.51819 0.51781066,0.51781066 0 0 0 -0.51665,-0.51666 h -1.4764 l 3.54914,-3.58132 a 0.51781066,0.51781066 0 0 0 0,-0.73129 0.51781066,0.51781066 0 0 0 -0.28667,-0.14411 z" />
    </a>
  </g>
</svg>
