<?xml version="1.0" encoding="UTF-8" standalone="no"?>
<!-- Created with Inkscape (http://www.inkscape.org/) -->

<svg
   width="3600"
   height="1600"
   viewBox="0 0 952.49997 423.33334"
   version="1.1"
   id="svg5"
   inkscape:version="1.1.2 (b8e25be833, 2022-02-05)"
   sodipodi:docname="vj-vjc-f0.svg"
   xmlns:inkscape="http://www.inkscape.org/namespaces/inkscape"
   xmlns:sodipodi="http://sodipodi.sourceforge.net/DTD/sodipodi-0.dtd"
   xmlns:xlink="http://www.w3.org/1999/xlink"
   xmlns="http://www.w3.org/2000/svg"
   xmlns:svg="http://www.w3.org/2000/svg">
  <sodipodi:namedview
     id="namedview7"
     pagecolor="#ffffff"
     bordercolor="#111111"
     borderopacity="1"
     inkscape:pageshadow="0"
     inkscape:pageopacity="0"
     inkscape:pagecheckerboard="1"
     inkscape:document-units="mm"
     showgrid="false"
     units="px"
     inkscape:zoom="0.35355339"
     inkscape:cx="2066.166"
     inkscape:cy="618.01133"
     inkscape:window-width="1920"
     inkscape:window-height="1001"
     inkscape:window-x="-9"
     inkscape:window-y="-9"
     inkscape:window-maximized="1"
     inkscape:current-layer="layer1"
     width="3600px" />
  <defs
     id="defs2" />
  <g
     inkscape:label="Calque 1"
     inkscape:groupmode="layer"
     id="layer1">
    <text
       xml:space="preserve"
       style="font-size:7.71774px;line-height:0.75;font-family:Bahagia;-inkscape-font-specification:Bahagia;text-align:start;text-anchor:start;stroke-width:0.192945"
       x="605.72211"
       y="287.10706"
       id="text1813-5-2-2-4-9-7-8"><tspan
         sodipodi:role="line"
         x="605.72211"
         y="287.10706"
         style="font-style:normal;font-variant:normal;font-weight:bold;font-stretch:normal;font-family:'Atkinson Hyperlegible';-inkscape-font-specification:'Atkinson Hyperlegible Bold';text-align:start;text-anchor:start;stroke-width:0.192945"
         id="tspan1247-0-4-2-2">Accueil</tspan></text>
    <text
       xml:space="preserve"
       style="font-size:7.71774px;line-height:0.75;font-family:Bahagia;-inkscape-font-specification:Bahagia;text-align:start;text-anchor:start;stroke-width:0.192945"
       x="722.02161"
       y="206.13126"
       id="text1813-5-2-2-4-9-7-8-0"><tspan
         sodipodi:role="line"
         x="722.02161"
         y="206.13126"
         style="font-style:normal;font-variant:normal;font-weight:bold;font-stretch:normal;font-family:'Atkinson Hyperlegible';-inkscape-font-specification:'Atkinson Hyperlegible Bold';text-align:start;text-anchor:start;stroke-width:0.192945"
         id="tspan1247-0-4-2-2-7">Hall</tspan></text>
    <text
       xml:space="preserve"
       style="font-size:7.71774px;line-height:0.75;font-family:Bahagia;-inkscape-font-specification:Bahagia;text-align:start;text-anchor:start;stroke-width:0.192945"
       x="873.8559"
       y="249.01216"
       id="text1813-5-2-2-4-9-7-8-0-7"><tspan
         sodipodi:role="line"
         x="873.8559"
         y="249.01216"
         style="font-style:normal;font-variant:normal;font-weight:bold;font-stretch:normal;font-family:'Atkinson Hyperlegible';-inkscape-font-specification:'Atkinson Hyperlegible Bold';text-align:center;text-anchor:middle;stroke-width:0.192945"
         id="tspan1247-0-4-2-2-7-7">Salle</tspan><tspan
         sodipodi:role="line"
         x="873.8559"
         y="254.9641"
         style="font-style:normal;font-variant:normal;font-weight:bold;font-stretch:normal;font-family:'Atkinson Hyperlegible';-inkscape-font-specification:'Atkinson Hyperlegible Bold';text-align:center;text-anchor:middle;stroke-width:0.192945"
         id="tspan11791">de</tspan><tspan
         sodipodi:role="line"
         x="873.8559"
         y="260.91602"
         style="font-style:normal;font-variant:normal;font-weight:bold;font-stretch:normal;font-family:'Atkinson Hyperlegible';-inkscape-font-specification:'Atkinson Hyperlegible Bold';text-align:center;text-anchor:middle;stroke-width:0.192945"
         id="tspan11793">réunion</tspan></text>
    <text
       xml:space="preserve"
       style="font-size:7.71774px;line-height:0.75;font-family:Bahagia;-inkscape-font-specification:Bahagia;text-align:start;text-anchor:start;stroke-width:0.192945"
       x="324.3653"
       y="208.373"
       id="text1813-5-2-2-4-9-7-8-0-4"><tspan
         sodipodi:role="line"
         x="324.3653"
         y="208.373"
         style="font-style:normal;font-variant:normal;font-weight:bold;font-stretch:normal;font-family:'Atkinson Hyperlegible';-inkscape-font-specification:'Atkinson Hyperlegible Bold';text-align:start;text-anchor:start;stroke-width:0.192945"
         id="tspan1247-0-4-2-2-7-6">Amphithéatre</tspan></text>
    <text
       xml:space="preserve"
       style="font-size:7.71774px;line-height:0.75;font-family:Bahagia;-inkscape-font-specification:Bahagia;text-align:start;text-anchor:start;stroke-width:0.192945"
       x="183.45757"
       y="209.24806"
       id="text1813-5-2-2-4-9-7-8-0-4-0"><tspan
         sodipodi:role="line"
         x="183.45757"
         y="209.24806"
         style="font-style:normal;font-variant:normal;font-weight:bold;font-stretch:normal;font-family:'Atkinson Hyperlegible';-inkscape-font-specification:'Atkinson Hyperlegible Bold';text-align:start;text-anchor:start;stroke-width:0.192945"
         id="tspan1247-0-4-2-2-7-6-5">Salle de cours</tspan></text>
    <text
       xml:space="preserve"
       style="font-size:6.52227px;line-height:1.25;font-family:Bahagia;-inkscape-font-specification:Bahagia;stroke-width:0.20382"
       x="608.4928"
       y="136.828"
       id="text1809-2"><tspan
         sodipodi:role="line"
         id="tspan1807-5"
         x="608.4928"
         y="136.828"
         style="font-style:italic;font-variant:normal;font-weight:normal;font-stretch:normal;font-size:6.52227px;font-family:'Atkinson Hyperlegible';-inkscape-font-specification:'Atkinson Hyperlegible Italic';stroke-width:0.20382">Toilettes</tspan></text>
    <path
       style="fill:none;fill-opacity:1;stroke:#000000;stroke-width:3.31081;stroke-linecap:butt;stroke-linejoin:miter;stroke-miterlimit:4;stroke-dasharray:none;stroke-opacity:1"
       d="m 905.23782,88.921213 v 22.711957 m 0,16.11469 V 321.71809 H 123.31257 V 298.14535 H 33.908619 v -89.69142 h 51.712078"
       id="path874"
       sodipodi:nodetypes="ccccccccc" />
    <path
       style="fill:none;stroke:#000000;stroke-width:3.31081;stroke-linecap:butt;stroke-linejoin:miter;stroke-miterlimit:4;stroke-dasharray:none;stroke-opacity:1"
       d="M 123.31257,297.32011 V 160.23714 m 0,-28.07074 V 90.590181 h 8.85383 m 15.72481,0 h 113.0627 m 30.40997,0 h 23.52224 m 29.76018,0 h 169.33414 m 0,0 h 170.24384 m 31.44962,0 h 5.58816 m 30.92979,0 h 153.25371"
       id="path1229"
       sodipodi:nodetypes="ccccccccccccccccc" />
    <path
       style="fill:none;stroke:#000000;stroke-width:1.32292;stroke-linecap:butt;stroke-linejoin:miter;stroke-miterlimit:4;stroke-dasharray:none;stroke-opacity:1"
       d="m 293.87562,90.836789 v 35.287131 m 0,16.17327 v 130.07534 m 0,15.66785 0,33.21953"
       id="path3749"
       sodipodi:nodetypes="cccccc" />
    <path
       style="fill:none;stroke:#000000;stroke-width:1.32292;stroke-linecap:butt;stroke-linejoin:miter;stroke-miterlimit:4;stroke-dasharray:none;stroke-opacity:1"
       d="M 464.79766,90.974629 V 194.07921 h 98.8264 m 16.43958,0 h 26.64121 m 23.00241,0 h 20.53159 v -37.125 H 559.63182 V 90.790841"
       id="path4521"
       sodipodi:nodetypes="cccccccccc" />
    <path
       style="fill:none;stroke:#000000;stroke-width:1.32292;stroke-linecap:butt;stroke-linejoin:miter;stroke-miterlimit:4;stroke-dasharray:none;stroke-opacity:1"
       d="m 644.17389,90.239481 v 49.659369 m 0,14.88009 v 2.17527"
       id="path4523"
       sodipodi:nodetypes="cccc" />
    <path
       style="fill:none;stroke:#000000;stroke-width:1.32292;stroke-linecap:butt;stroke-linejoin:miter;stroke-miterlimit:4;stroke-dasharray:none;stroke-opacity:1"
       d="m 559.46542,126.05841 h 37.2977 v 8.12232 m 0,16.04971 v 6.88772"
       id="path4754"
       sodipodi:nodetypes="ccccc" />
    <path
       style="fill:none;stroke:#000000;stroke-width:1.32292;stroke-linecap:butt;stroke-linejoin:miter;stroke-miterlimit:4;stroke-dasharray:none;stroke-opacity:1"
       d="m 583.37754,125.7985 v -3.37889 m 0,-13.90541 V 91.619773"
       id="path4756"
       sodipodi:nodetypes="cccc" />
    <path
       style="fill:none;stroke:#000000;stroke-width:1.32292;stroke-linecap:butt;stroke-linejoin:miter;stroke-miterlimit:4;stroke-dasharray:none;stroke-opacity:1"
       d="m 625.74357,91.619773 v 26.511257 h 2.46918 m 13.6455,0 h 2.7291"
       id="path4758"
       sodipodi:nodetypes="ccccc" />
    <path
       style="fill:none;stroke:#000000;stroke-width:1.32291667;stroke-linecap:butt;stroke-linejoin:miter;stroke-opacity:1;stroke-miterlimit:4;stroke-dasharray:none"
       d="M 601.96142,194.2859 V 157.11816"
       id="path4760" />
    <path
       style="fill:none;stroke:#000000;stroke-width:1.32291667;stroke-linecap:butt;stroke-linejoin:miter;stroke-opacity:1;stroke-miterlimit:4;stroke-dasharray:none"
       d="m 591.30493,156.98821 v 37.16774"
       id="path4762" />
    <path
       style="fill:none;stroke:#000000;stroke-width:1.32291667;stroke-linecap:butt;stroke-linejoin:miter;stroke-opacity:1;stroke-miterlimit:4;stroke-dasharray:none"
       d="M 635.75027,194.2859 V 156.98821"
       id="path4764" />
    <path
       style="fill:none;stroke:#000000;stroke-width:1.32292;stroke-linecap:butt;stroke-linejoin:miter;stroke-miterlimit:4;stroke-dasharray:none;stroke-opacity:1"
       d="m 464.59671,322.03376 v -97.07797 l 89.03965,13.19949 m 16.79154,2.48922 44.91608,6.65849 m 30.54577,4.52819 22.08987,3.27466 v 66.53803"
       id="path4766"
       sodipodi:nodetypes="cccccccc" />
    <path
       style="fill:none;stroke:#000000;stroke-width:1.32292;stroke-linecap:butt;stroke-linejoin:miter;stroke-miterlimit:4;stroke-dasharray:none;stroke-opacity:1"
       d="m 573.89066,241.20043 v 60.56002 m 0,15.33494 v 4.28858"
       id="path4768"
       sodipodi:nodetypes="cccc" />
    <path
       style="fill:none;stroke:#000000;stroke-width:1.32292;stroke-linecap:butt;stroke-linejoin:miter;stroke-miterlimit:4;stroke-dasharray:none;stroke-opacity:1"
       d="m 546.98955,237.0418 v -15.48641 m 0,-23.70854 v -3.95082"
       id="path4770"
       sodipodi:nodetypes="cccc" />
    <rect
       style="fill:none;stroke:#000000;stroke-width:1.32292;stroke-miterlimit:4;stroke-dasharray:none;stroke-opacity:1"
       id="rect8083"
       width="18.746288"
       height="23.249071"
       x="67.909348"
       y="241.03682" />
    <path
       style="fill:none;stroke:#000000;stroke-width:0.52916667;stroke-linecap:butt;stroke-linejoin:miter;stroke-opacity:1;stroke-miterlimit:4;stroke-dasharray:none"
       d="M 67.909347,241.03682 V 209.42591"
       id="path8272" />
    <path
       style="fill:none;stroke:#000000;stroke-width:0.52916667;stroke-linecap:butt;stroke-linejoin:miter;stroke-opacity:1;stroke-miterlimit:4;stroke-dasharray:none"
       d="M 72.775992,240.81055 V 208.90608"
       id="path8274" />
    <path
       style="fill:none;stroke:#000000;stroke-width:0.52916667;stroke-linecap:butt;stroke-linejoin:miter;stroke-opacity:1;stroke-miterlimit:4;stroke-dasharray:none"
       d="M 77.519426,240.6806 V 209.03604"
       id="path8276" />
    <path
       style="fill:none;stroke:#000000;stroke-width:0.52916667;stroke-linecap:butt;stroke-linejoin:miter;stroke-opacity:1;stroke-miterlimit:4;stroke-dasharray:none"
       d="M 82.392818,240.61562 V 209.36093"
       id="path8278" />
    <path
       style="fill:none;stroke:#000000;stroke-width:0.52916667;stroke-linecap:butt;stroke-linejoin:miter;stroke-opacity:1;stroke-miterlimit:4;stroke-dasharray:none"
       d="M 67.837621,245.42403 H 34.633574"
       id="path8776" />
    <path
       style="fill:none;stroke:#000000;stroke-width:0.52916667;stroke-linecap:butt;stroke-linejoin:miter;stroke-opacity:1;stroke-miterlimit:4;stroke-dasharray:none"
       d="M 67.967576,250.3624 H 34.698553"
       id="path8778" />
    <path
       style="fill:none;stroke:#000000;stroke-width:0.52916667;stroke-linecap:butt;stroke-linejoin:miter;stroke-miterlimit:4;stroke-dasharray:1.05833333,2.11666667;stroke-dashoffset:0;stroke-opacity:1"
       d="M 46.002492,255.23579 H 34.503616"
       id="path8780"
       sodipodi:nodetypes="cc" />
    <path
       style="fill:none;stroke:#000000;stroke-width:0.529167;stroke-linecap:butt;stroke-linejoin:miter;stroke-miterlimit:4;stroke-dasharray:1.05833, 2.11667;stroke-dashoffset:0;stroke-opacity:1"
       d="M 58.71183,259.91425 H 33.779516"
       id="path8782"
       sodipodi:nodetypes="cc" />
    <path
       style="fill:none;stroke:#000000;stroke-width:0.529167;stroke-linecap:butt;stroke-linejoin:miter;stroke-miterlimit:4;stroke-dasharray:1.05833, 2.11667;stroke-dashoffset:0;stroke-opacity:1"
       d="M 68.874226,264.79132 H 33.518143"
       id="path8784"
       sodipodi:nodetypes="cc" />
    <path
       style="fill:none;stroke:#000000;stroke-width:1.32292;stroke-linecap:butt;stroke-linejoin:miter;stroke-miterlimit:4;stroke-dasharray:none;stroke-opacity:1"
       d="m 804.28711,254.1776 h 41.10524 V 134.56031"
       id="path9214"
       sodipodi:nodetypes="ccc" />
    <path
       style="fill:none;stroke:#000000;stroke-width:1.32292;stroke-linecap:butt;stroke-linejoin:miter;stroke-miterlimit:4;stroke-dasharray:none;stroke-opacity:1"
       d="m 845.73776,184.88985 h 6.58606 m 15.98473,0 h 36.10792"
       id="path9216"
       sodipodi:nodetypes="cccc" />
    <path
       style="fill:none;stroke:#000000;stroke-width:1.32292;stroke-linecap:butt;stroke-linejoin:miter;stroke-miterlimit:4;stroke-dasharray:none;stroke-opacity:1"
       d="M 808.07342,220.47226 V 143.02405"
       id="path9698"
       sodipodi:nodetypes="cc" />
    <path
       style="fill:none;stroke:#000000;stroke-width:1.32292;stroke-linecap:butt;stroke-linejoin:miter;stroke-miterlimit:4;stroke-dasharray:none;stroke-opacity:1"
       d="m 845.39235,254.1776 v 4.96226 m 0,13.96782 v 48.51979"
       id="path1162"
       sodipodi:nodetypes="cccc" />
    <path
       style="fill:none;stroke:#000000;stroke-width:1.32291667;stroke-linecap:butt;stroke-linejoin:miter;stroke-opacity:1;stroke-miterlimit:4;stroke-dasharray:none"
       d="m 123.32116,122.58602 h 67.26609 V 90.607056"
       id="path1701" />
    <path
       style="fill:none;stroke:#000000;stroke-width:0.52916667;stroke-linecap:butt;stroke-linejoin:miter;stroke-opacity:1;stroke-miterlimit:4;stroke-dasharray:none"
       d="m 807.81349,214.55921 h 37.68757"
       id="path2479" />
    <path
       style="fill:none;stroke:#000000;stroke-width:0.52916667;stroke-linecap:butt;stroke-linejoin:miter;stroke-opacity:1;stroke-miterlimit:4;stroke-dasharray:none"
       d="M 807.94346,209.49089 H 845.3711"
       id="path2481" />
    <path
       style="fill:none;stroke:#000000;stroke-width:0.52916667;stroke-linecap:butt;stroke-linejoin:miter;stroke-opacity:1;stroke-miterlimit:4;stroke-dasharray:none"
       d="m 808.20336,204.81243 h 37.03777"
       id="path2483" />
    <path
       style="fill:none;stroke:#000000;stroke-width:0.52916667;stroke-linecap:butt;stroke-linejoin:miter;stroke-opacity:1;stroke-miterlimit:4;stroke-dasharray:none"
       d="m 808.20336,199.7441 h 37.03777"
       id="path2485" />
    <path
       style="fill:none;stroke:#000000;stroke-width:0.52916667;stroke-linecap:butt;stroke-linejoin:miter;stroke-opacity:1;stroke-miterlimit:4;stroke-dasharray:none"
       d="m 808.07342,195.06564 h 37.5576"
       id="path2487" />
    <path
       style="fill:none;stroke:#000000;stroke-width:0.52916667;stroke-linecap:butt;stroke-linejoin:miter;stroke-opacity:1;stroke-miterlimit:4;stroke-dasharray:none"
       d="m 808.07342,190.25723 h 37.42764"
       id="path2489" />
    <path
       style="fill:none;stroke:#000000;stroke-width:0.52916667;stroke-linecap:butt;stroke-linejoin:miter;stroke-opacity:1;stroke-miterlimit:4;stroke-dasharray:none"
       d="M 808.07342,185.70873 H 845.3711"
       id="path2491" />
    <path
       style="fill:none;stroke:#000000;stroke-width:0.529167;stroke-linecap:butt;stroke-linejoin:miter;stroke-miterlimit:4;stroke-dasharray:none;stroke-opacity:1"
       d="M 807.68353,181.03962 H 845.3711"
       id="path2493" />
    <path
       style="fill:none;stroke:#000000;stroke-width:0.529167;stroke-linecap:butt;stroke-linejoin:miter;stroke-miterlimit:4;stroke-dasharray:none;stroke-opacity:1"
       d="m 808.20336,176.54469 h 37.03777"
       id="path2485-2" />
    <path
       style="fill:none;stroke:#000000;stroke-width:0.529167;stroke-linecap:butt;stroke-linejoin:miter;stroke-miterlimit:4;stroke-dasharray:none;stroke-opacity:1"
       d="m 808.07342,171.86623 h 37.5576"
       id="path2487-8" />
    <path
       style="fill:none;stroke:#000000;stroke-width:0.529167;stroke-linecap:butt;stroke-linejoin:miter;stroke-miterlimit:4;stroke-dasharray:none;stroke-opacity:1"
       d="m 807.81348,162.50932 h 6.57402 m 24.60625,0 h 6.37735"
       id="path2495-5"
       sodipodi:nodetypes="cccc" />
    <path
       style="fill:none;stroke:#000000;stroke-width:0.529167;stroke-linecap:butt;stroke-linejoin:miter;stroke-miterlimit:4;stroke-dasharray:none;stroke-opacity:1"
       d="m 807.77952,167.15053 h 6.57402 m 24.60626,0 h 6.37735"
       id="path2495-5-3"
       sodipodi:nodetypes="cccc" />
    <path
       style="fill:none;stroke:#000000;stroke-width:0.529167;stroke-linecap:butt;stroke-linejoin:miter;stroke-miterlimit:4;stroke-dasharray:none;stroke-opacity:1"
       d="m 807.81349,157.84021 h 6.57401 m 24.60625,0 h 6.37735"
       id="path2495"
       sodipodi:nodetypes="cccc" />
    <path
       style="fill:none;stroke:#000000;stroke-width:0.52916667;stroke-linecap:butt;stroke-linejoin:miter;stroke-opacity:1;stroke-miterlimit:4;stroke-dasharray:none"
       d="m 359.30384,220.17698 v 35.28713"
       id="path2938" />
    <path
       style="fill:none;stroke:#000000;stroke-width:0.529167;stroke-linecap:butt;stroke-linejoin:miter;stroke-miterlimit:4;stroke-dasharray:none;stroke-opacity:1"
       d="M 375.66089,220.36077 V 321.77855"
       id="path2940"
       sodipodi:nodetypes="cc" />
    <path
       style="fill:none;stroke:#000000;stroke-width:0.529167;stroke-linecap:butt;stroke-linejoin:miter;stroke-miterlimit:4;stroke-dasharray:none;stroke-opacity:1"
       d="M 391.28279,219.99319 V 321.77855"
       id="path2942"
       sodipodi:nodetypes="cc" />
    <path
       style="fill:none;stroke:#000000;stroke-width:0.529167;stroke-linecap:butt;stroke-linejoin:miter;stroke-miterlimit:4;stroke-dasharray:none;stroke-opacity:1"
       d="M 406.53713,219.99319 V 321.79101"
       id="path2944"
       sodipodi:nodetypes="cc" />
    <path
       style="fill:none;stroke:#000000;stroke-width:0.529167;stroke-linecap:butt;stroke-linejoin:miter;stroke-miterlimit:4;stroke-dasharray:none;stroke-opacity:1"
       d="M 421.97525,220.17698 V 321.9277"
       id="path2946"
       sodipodi:nodetypes="cc" />
    <path
       style="fill:none;stroke:#000000;stroke-width:0.529167;stroke-linecap:butt;stroke-linejoin:miter;stroke-miterlimit:4;stroke-dasharray:none;stroke-opacity:1"
       d="m 436.862,219.80941 v 70.22888"
       id="path2948"
       sodipodi:nodetypes="cc" />
    <path
       style="fill:none;stroke:#000000;stroke-width:1.32292;stroke-linecap:square;stroke-linejoin:miter;stroke-miterlimit:4;stroke-dasharray:none;stroke-opacity:1"
       d="m 359.69371,219.80335 76.76908,0.006"
       id="path3143"
       sodipodi:nodetypes="cc" />
    <path
       style="fill:none;stroke:#000000;stroke-width:0.52916673;stroke-linecap:butt;stroke-linejoin:miter;stroke-opacity:1;stroke-miterlimit:4;stroke-dasharray:1.05833346,2.11666692;stroke-dashoffset:0"
       d="m 436.862,290.03828 v 30.85404"
       id="path4200" />
    <path
       style="fill:none;stroke:#000000;stroke-width:0.52916667;stroke-linecap:butt;stroke-linejoin:miter;stroke-opacity:1;stroke-miterlimit:4;stroke-dasharray:none"
       d="m 421.79147,290.38367 h -7.55748 v 30.50865"
       id="path4202"
       sodipodi:nodetypes="ccc" />
    <path
       style="fill:none;stroke:#000000;stroke-width:0.529167;stroke-linecap:butt;stroke-linejoin:miter;stroke-miterlimit:4;stroke-dasharray:none;stroke-opacity:1"
       d="m 406.29644,290.38367 h -7.55748 v 30.50865"
       id="path4202-7"
       sodipodi:nodetypes="ccc" />
    <path
       style="fill:none;stroke:#000000;stroke-width:0.529167;stroke-linecap:butt;stroke-linejoin:miter;stroke-miterlimit:4;stroke-dasharray:none;stroke-opacity:1"
       d="m 391.33058,290.38367 h -7.55748 v 30.50865"
       id="path4202-7-2"
       sodipodi:nodetypes="ccc" />
    <path
       style="fill:none;stroke:#000000;stroke-width:0.529167;stroke-linecap:butt;stroke-linejoin:miter;stroke-miterlimit:4;stroke-dasharray:none;stroke-opacity:1"
       d="m 375.83555,290.38367 h -7.55748 v 30.50865"
       id="path4202-7-2-3"
       sodipodi:nodetypes="ccc" />
    <path
       style="fill:none;stroke:#000000;stroke-width:0.52916667;stroke-linecap:butt;stroke-linejoin:miter;stroke-opacity:1;stroke-miterlimit:4;stroke-dasharray:none"
       d="m 436.862,290.03829 h -7.55748 v 10.92948"
       id="path4202-8"
       sodipodi:nodetypes="ccc" />
    <path
       style="fill:none;stroke:#000000;stroke-width:0.52916667;stroke-linecap:butt;stroke-linejoin:miter;stroke-opacity:1;stroke-miterlimit:4;stroke-dasharray:1.05833333,1.05833333;stroke-dashoffset:0"
       d="m 429.30452,300.96777 v 19.92455"
       id="path4720" />
    <path
       style="fill:none;stroke:#000000;stroke-width:0.529167;stroke-linecap:butt;stroke-linejoin:miter;stroke-miterlimit:4;stroke-dasharray:none;stroke-opacity:1"
       d="M 359.35184,191.96253 V 140.8004"
       id="path2938-6"
       sodipodi:nodetypes="cc" />
    <path
       style="fill:none;stroke:#000000;stroke-width:0.529167;stroke-linecap:butt;stroke-linejoin:miter;stroke-miterlimit:4;stroke-dasharray:none;stroke-opacity:1"
       d="M 375.70889,191.77874 V 90.360972"
       id="path2940-6"
       sodipodi:nodetypes="cc" />
    <path
       style="fill:none;stroke:#000000;stroke-width:0.529167;stroke-linecap:butt;stroke-linejoin:miter;stroke-miterlimit:4;stroke-dasharray:none;stroke-opacity:1"
       d="M 391.33079,192.14632 V 90.360972"
       id="path2942-0"
       sodipodi:nodetypes="cc" />
    <path
       style="fill:none;stroke:#000000;stroke-width:0.529167;stroke-linecap:butt;stroke-linejoin:miter;stroke-miterlimit:4;stroke-dasharray:none;stroke-opacity:1"
       d="M 406.58513,192.14632 V 90.348512"
       id="path2944-1"
       sodipodi:nodetypes="cc" />
    <path
       style="fill:none;stroke:#000000;stroke-width:0.529167;stroke-linecap:butt;stroke-linejoin:miter;stroke-miterlimit:4;stroke-dasharray:none;stroke-opacity:1"
       d="M 422.02325,191.96253 V 90.211822"
       id="path2946-6"
       sodipodi:nodetypes="cc" />
    <path
       style="fill:none;stroke:#000000;stroke-width:0.529167;stroke-linecap:butt;stroke-linejoin:miter;stroke-miterlimit:4;stroke-dasharray:none;stroke-opacity:1"
       d="M 436.91,192.3301 V 122.10122"
       id="path2948-7"
       sodipodi:nodetypes="cc" />
    <path
       style="fill:none;stroke:#000000;stroke-width:1.32292;stroke-linecap:square;stroke-linejoin:miter;stroke-miterlimit:4;stroke-dasharray:none;stroke-opacity:1"
       d="m 359.74171,192.33616 76.76908,-0.006"
       id="path3143-6"
       sodipodi:nodetypes="cc" />
    <path
       style="fill:none;stroke:#000000;stroke-width:0.529167;stroke-linecap:butt;stroke-linejoin:miter;stroke-miterlimit:4;stroke-dasharray:1.05833, 2.11667;stroke-dashoffset:0;stroke-opacity:1"
       d="M 436.91,122.10123 V 91.247202"
       id="path4200-8" />
    <path
       style="fill:none;stroke:#000000;stroke-width:0.529167;stroke-linecap:butt;stroke-linejoin:miter;stroke-miterlimit:4;stroke-dasharray:none;stroke-opacity:1"
       d="m 421.83947,121.75584 h -7.55748 V 91.247202"
       id="path4202-6"
       sodipodi:nodetypes="ccc" />
    <path
       style="fill:none;stroke:#000000;stroke-width:0.529167;stroke-linecap:butt;stroke-linejoin:miter;stroke-miterlimit:4;stroke-dasharray:none;stroke-opacity:1"
       d="m 406.34444,121.75584 h -7.55748 V 91.247202"
       id="path4202-7-9"
       sodipodi:nodetypes="ccc" />
    <path
       style="fill:none;stroke:#000000;stroke-width:0.529167;stroke-linecap:butt;stroke-linejoin:miter;stroke-miterlimit:4;stroke-dasharray:none;stroke-opacity:1"
       d="M 391.37858,121.75584 H 383.8211 V 91.247202"
       id="path4202-7-2-4"
       sodipodi:nodetypes="ccc" />
    <path
       style="fill:none;stroke:#000000;stroke-width:0.529167;stroke-linecap:butt;stroke-linejoin:miter;stroke-miterlimit:4;stroke-dasharray:none;stroke-opacity:1"
       d="m 375.88355,121.75584 h -7.55748 V 91.247202"
       id="path4202-7-2-3-0"
       sodipodi:nodetypes="ccc" />
    <path
       style="fill:none;stroke:#000000;stroke-width:0.529167;stroke-linecap:butt;stroke-linejoin:miter;stroke-miterlimit:4;stroke-dasharray:none;stroke-opacity:1"
       d="m 436.91,122.10122 h -7.55748 v -10.92948"
       id="path4202-8-3"
       sodipodi:nodetypes="ccc" />
    <path
       style="fill:none;stroke:#000000;stroke-width:0.529167;stroke-linecap:butt;stroke-linejoin:miter;stroke-miterlimit:4;stroke-dasharray:1.05833, 1.05833;stroke-dashoffset:0;stroke-opacity:1"
       d="M 429.35252,111.17174 V 91.247202"
       id="path4720-2" />
    <path
       style="fill:none;stroke:#000000;stroke-width:0.264583px;stroke-linecap:butt;stroke-linejoin:miter;stroke-opacity:1"
       d="m 293.87562,272.37253 v 15.66786"
       id="path6070" />
    <path
       style="fill:none;stroke:#000000;stroke-width:0.264583px;stroke-linecap:butt;stroke-linejoin:miter;stroke-opacity:1"
       d="M 293.87562,142.29719 V 126.12392"
       id="path6072" />
    <path
       style="fill:none;stroke:#000000;stroke-width:0.264583px;stroke-linecap:butt;stroke-linejoin:miter;stroke-opacity:1"
       d="M 314.88612,90.590181 H 344.6463"
       id="path6074" />
    <path
       style="fill:none;stroke:#000000;stroke-width:0.264583px;stroke-linecap:butt;stroke-linejoin:miter;stroke-opacity:1"
       d="M 291.36387,90.590181 H 260.95391"
       id="path6076" />
    <path
       style="fill:none;stroke:#000000;stroke-width:0.264583px;stroke-linecap:butt;stroke-linejoin:miter;stroke-opacity:1"
       d="M 147.89121,90.590181 H 132.1664"
       id="path6078" />
    <path
       style="fill:none;stroke:#000000;stroke-width:0.264583px;stroke-linecap:butt;stroke-linejoin:miter;stroke-opacity:1"
       d="m 123.31257,132.1664 v 28.07074"
       id="path6080" />
    <path
       style="fill:none;stroke:#000000;stroke-width:0.264583px;stroke-linecap:butt;stroke-linejoin:miter;stroke-opacity:1"
       d="m 553.63636,238.15528 16.79154,2.48922"
       id="path6082" />
    <path
       style="fill:none;stroke:#000000;stroke-width:0.264583px;stroke-linecap:butt;stroke-linejoin:miter;stroke-opacity:1"
       d="M 546.98955,221.55539 V 197.84685"
       id="path6084" />
    <path
       style="fill:none;stroke:#000000;stroke-width:0.264583px;stroke-linecap:butt;stroke-linejoin:miter;stroke-opacity:1"
       d="m 563.62406,194.07921 h 16.43957"
       id="path6086" />
    <path
       style="fill:none;stroke:#000000;stroke-width:0.264583px;stroke-linecap:butt;stroke-linejoin:miter;stroke-opacity:1"
       d="m 606.70484,194.07921 h 23.0024"
       id="path6088" />
    <path
       style="fill:none;stroke:#000000;stroke-width:0.264583px;stroke-linecap:butt;stroke-linejoin:miter;stroke-opacity:1"
       d="m 615.34396,247.30299 30.54578,4.52819"
       id="path6090" />
    <path
       style="fill:none;stroke:#000000;stroke-width:0.264583px;stroke-linecap:butt;stroke-linejoin:miter;stroke-opacity:1"
       d="M 644.17389,154.77894 V 139.89885"
       id="path6092" />
    <path
       style="fill:none;stroke:#000000;stroke-width:0.264583px;stroke-linecap:butt;stroke-linejoin:miter;stroke-opacity:1"
       d="m 596.76312,134.18073 v 16.04971"
       id="path6094" />
    <path
       style="fill:none;stroke:#000000;stroke-width:0.264583px;stroke-linecap:butt;stroke-linejoin:miter;stroke-opacity:1"
       d="M 583.37754,122.41961 V 108.5142"
       id="path6096" />
    <path
       style="fill:none;stroke:#000000;stroke-width:0.264583px;stroke-linecap:butt;stroke-linejoin:miter;stroke-opacity:1"
       d="m 628.21274,118.13103 h 13.64549"
       id="path6098" />
    <path
       style="fill:none;stroke:#000000;stroke-width:0.264583px;stroke-linecap:butt;stroke-linejoin:miter;stroke-opacity:1"
       d="M 573.89066,301.76044 V 317.0954"
       id="path6100" />
    <path
       style="fill:none;stroke:#000000;stroke-width:0.264583px;stroke-linecap:butt;stroke-linejoin:miter;stroke-opacity:1"
       d="m 684.22427,90.590181 h 31.44961"
       id="path6102" />
    <path
       style="fill:none;stroke:#000000;stroke-width:0.264583px;stroke-linecap:butt;stroke-linejoin:miter;stroke-opacity:1"
       d="M 752.19183,90.590181 H 721.26204"
       id="path6104" />
    <path
       style="fill:none;stroke:#000000;stroke-width:0.264583px;stroke-linecap:butt;stroke-linejoin:miter;stroke-opacity:1"
       d="m 905.23781,111.63317 v 16.11469"
       id="path6106" />
    <path
       style="fill:none;stroke:#000000;stroke-width:0.264583px;stroke-linecap:butt;stroke-linejoin:miter;stroke-opacity:1"
       d="M 868.30854,184.88985 H 852.32382"
       id="path6108" />
    <path
       style="fill:none;stroke:#000000;stroke-width:0.264583px;stroke-linecap:butt;stroke-linejoin:miter;stroke-opacity:1"
       d="M 845.39234,273.10768 V 259.13986"
       id="path6110" />
    <path
       style="fill:none;stroke:#000000;stroke-width:0.52916667;stroke-linecap:butt;stroke-linejoin:miter;stroke-opacity:1;stroke-miterlimit:4;stroke-dasharray:none"
       d="M 46.002492,255.23579 H 67.817451"
       id="path14059" />
    <path
       style="fill:none;stroke:#000000;stroke-width:0.52916667;stroke-linecap:butt;stroke-linejoin:miter;stroke-opacity:1;stroke-miterlimit:4;stroke-dasharray:none"
       d="M 57.124329,259.91425 H 67.909344"
       id="path14061" />
    <path
       style="fill:none;stroke:#000000;stroke-width:0.529167;stroke-linecap:butt;stroke-linejoin:miter;stroke-miterlimit:4;stroke-dasharray:1.05833, 1.05833;stroke-dashoffset:0;stroke-opacity:1"
       d="m 814.42812,152.98075 h -5.67803"
       id="path8780-7"
       sodipodi:nodetypes="cc" />
    <path
       style="fill:none;stroke:#000000;stroke-width:0.529167;stroke-linecap:butt;stroke-linejoin:miter;stroke-miterlimit:4;stroke-dasharray:1.05833, 1.05833;stroke-dashoffset:0;stroke-opacity:1"
       d="M 814.51453,148.43125 H 808.8365"
       id="path8780-7-6"
       sodipodi:nodetypes="cc" />
    <path
       style="fill:none;stroke:#000000;stroke-width:0.529167;stroke-linecap:butt;stroke-linejoin:miter;stroke-miterlimit:4;stroke-dasharray:1.05833, 2.11667;stroke-dashoffset:0;stroke-opacity:1"
       d="m 844.76964,134.82651 h -14.1447"
       id="path8780-7-8"
       sodipodi:nodetypes="cc" />
    <path
       style="fill:none;stroke:#000000;stroke-width:0.529167;stroke-linecap:butt;stroke-linejoin:miter;stroke-miterlimit:4;stroke-dasharray:1.05833, 2.11667;stroke-dashoffset:0;stroke-opacity:1"
       d="M 844.70074,138.90723 H 817.65176"
       id="path8782-3-3"
       sodipodi:nodetypes="cc" />
    <path
       style="fill:none;stroke:#000000;stroke-width:0.529167;stroke-linecap:butt;stroke-linejoin:miter;stroke-miterlimit:4;stroke-dasharray:1.05833, 2.11667;stroke-dashoffset:0;stroke-opacity:1"
       d="M 844.70819,143.42522 H 808.29377"
       id="path8784-6"
       sodipodi:nodetypes="cc" />
    <path
       style="fill:none;stroke:#000000;stroke-width:0.529167;stroke-linecap:butt;stroke-linejoin:miter;stroke-miterlimit:4;stroke-dasharray:none;stroke-opacity:1"
       d="m 839.16667,152.98075 h 5.54308"
       id="path14059-9"
       sodipodi:nodetypes="cc" />
    <path
       style="fill:none;stroke:#000000;stroke-width:0.529167;stroke-linecap:butt;stroke-linejoin:miter;stroke-miterlimit:4;stroke-dasharray:none;stroke-opacity:1"
       d="m 839.3083,148.30229 h 5.49334"
       id="path14061-2"
       sodipodi:nodetypes="cc" />
    <a
       id="a16176-9"
       xlink:href="vj-vjc-f0-haut.svg"
       transform="matrix(-1,0,0,1,878.67601,-69.627752)">
      <path
         id="rect1968-4-8-4-3-6"
         style="fill:#111111;fill-opacity:1;stroke:none;stroke-width:1.11227;stroke-linecap:round;stroke-linejoin:round;stroke-miterlimit:4;stroke-dasharray:none;stroke-opacity:1;paint-order:markers stroke fill"
         d="m 60.231385,217.00422 c 1.160259,0 2.094268,0.93471 2.094268,2.09498 v 15.56112 c 0,1.16027 -0.934009,2.09427 -2.094268,2.09427 H 43.879818 c -1.160266,0 -2.094268,-0.934 -2.094268,-2.09427 V 219.0992 c 0,-1.16027 0.934002,-2.09498 2.094268,-2.09498 z m -13.621865,3.02639 -1.42096,0.0161 0.04769,3.87292 3.10423,0.0393 0.0526,3.23959 h 3.196809 v 3.23118 h 3.181382 l 0.0077,3.19681 3.798581,0.0477 0.01893,-1.42096 -2.399361,-0.0316 -0.0077,-3.21294 h -3.178578 v -3.23118 h -3.220657 l -0.0526,-3.22346 -3.096517,-0.0393 z m 9.693531,0.14307 h -3.215044 v 3.21575 a 0.51514613,0.51514613 0 0 0 0.516903,0.5141 0.51514613,0.51514613 0 0 0 0.514099,-0.5141 v -1.44972 l 3.517332,3.5517 a 0.51514613,0.51514613 0 0 0 0.729417,0.003 0.51514613,0.51514613 0 0 0 0.0028,-0.72661 L 54.8393,221.20488 h 1.463743 a 0.51514613,0.51514613 0 0 0 0.516907,-0.5141 0.51514613,0.51514613 0 0 0 -0.516907,-0.51691 z" />
    </a>
    <a
       id="a16176-9-3"
       xlink:href="vj-vjc-f0-haut.svg"
       transform="matrix(-1,0,0,1,502.43673,-120.44707)">
      <path
         id="rect1968-4-8-4-3-6-1"
         style="fill:#111111;fill-opacity:1;stroke:none;stroke-width:1.11227;stroke-linecap:round;stroke-linejoin:round;stroke-miterlimit:4;stroke-dasharray:none;stroke-opacity:1;paint-order:markers stroke fill"
         d="m 60.231385,217.00422 c 1.160259,0 2.094268,0.93471 2.094268,2.09498 v 15.56112 c 0,1.16027 -0.934009,2.09427 -2.094268,2.09427 H 43.879818 c -1.160266,0 -2.094268,-0.934 -2.094268,-2.09427 V 219.0992 c 0,-1.16027 0.934002,-2.09498 2.094268,-2.09498 z m -13.621865,3.02639 -1.42096,0.0161 0.04769,3.87292 3.10423,0.0393 0.0526,3.23959 h 3.196809 v 3.23118 h 3.181382 l 0.0077,3.19681 3.798581,0.0477 0.01893,-1.42096 -2.399361,-0.0316 -0.0077,-3.21294 h -3.178578 v -3.23118 h -3.220657 l -0.0526,-3.22346 -3.096517,-0.0393 z m 9.693531,0.14307 h -3.215044 v 3.21575 a 0.51514613,0.51514613 0 0 0 0.516903,0.5141 0.51514613,0.51514613 0 0 0 0.514099,-0.5141 v -1.44972 l 3.517332,3.5517 a 0.51514613,0.51514613 0 0 0 0.729417,0.003 0.51514613,0.51514613 0 0 0 0.0028,-0.72661 L 54.8393,221.20488 h 1.463743 a 0.51514613,0.51514613 0 0 0 0.516907,-0.5141 0.51514613,0.51514613 0 0 0 -0.516907,-0.51691 z" />
    </a>
    <a
       id="a16176-9-3-2"
       xlink:href="vj-vjc-f0-haut.svg"
       transform="matrix(-1,0,0,1,502.7843,80.165203)">
      <path
         id="rect1968-4-8-4-3-6-1-0"
         style="fill:#111111;fill-opacity:1;stroke:none;stroke-width:1.11227;stroke-linecap:round;stroke-linejoin:round;stroke-miterlimit:4;stroke-dasharray:none;stroke-opacity:1;paint-order:markers stroke fill"
         d="m 60.231385,217.00422 c 1.160259,0 2.094268,0.93471 2.094268,2.09498 v 15.56112 c 0,1.16027 -0.934009,2.09427 -2.094268,2.09427 H 43.879818 c -1.160266,0 -2.094268,-0.934 -2.094268,-2.09427 V 219.0992 c 0,-1.16027 0.934002,-2.09498 2.094268,-2.09498 z m -13.621865,3.02639 -1.42096,0.0161 0.04769,3.87292 3.10423,0.0393 0.0526,3.23959 h 3.196809 v 3.23118 h 3.181382 l 0.0077,3.19681 3.798581,0.0477 0.01893,-1.42096 -2.399361,-0.0316 -0.0077,-3.21294 h -3.178578 v -3.23118 h -3.220657 l -0.0526,-3.22346 -3.096517,-0.0393 z m 9.693531,0.14307 h -3.215044 v 3.21575 a 0.51514613,0.51514613 0 0 0 0.516903,0.5141 0.51514613,0.51514613 0 0 0 0.514099,-0.5141 v -1.44972 l 3.517332,3.5517 a 0.51514613,0.51514613 0 0 0 0.729417,0.003 0.51514613,0.51514613 0 0 0 0.0028,-0.72661 L 54.8393,221.20488 h 1.463743 a 0.51514613,0.51514613 0 0 0 0.516907,-0.5141 0.51514613,0.51514613 0 0 0 -0.516907,-0.51691 z" />
    </a>
    <a
       id="a26760"
       xlink:href="vj-vjc-f0-haut.svg"
       transform="matrix(0.94397932,0,0,0.94397932,34.671438,9.696636)"
       style="fill:#111111;fill-opacity:1">
      <path
         id="rect1968-4-8-1-4"
         style="fill:#111111;fill-opacity:1;stroke:none;stroke-width:1.42044;stroke-linecap:round;stroke-linejoin:round;stroke-miterlimit:4;stroke-dasharray:none;stroke-opacity:1;paint-order:markers stroke fill"
         d="m 608.46338,163.64438 c -1.48174,0 -2.67458,1.19285 -2.67458,2.67458 v 19.87301 c 0,1.48169 1.19284,2.67456 2.67458,2.67456 h 0.51027 v -18.33382 a 0.61590217,0.61590217 0 0 1 0.61643,-0.61606 h 18.62233 a 0.61590217,0.61590217 0 0 1 0.61605,0.61606 v 18.33382 h 0.51671 c 1.48173,0 2.67458,-1.19287 2.67458,-2.67456 v -19.87301 c 0,-1.48173 -1.19285,-2.67458 -2.67458,-2.67458 z m 11.44931,2.1389 3.29479,0.011 -1.66122,2.33109 z m -3.42216,0.011 1.66123,2.33109 -3.29442,0.011 z m -6.28442,5.35445 v 17.71779 h 7.3914 v -4.86882 l -1.2063,-0.47275 v -3.54271 c 0,-1.0363 1.34735,-1.94097 2.66889,-1.9395 1.50221,0.002 2.74822,0.86678 2.74014,1.87428 l -0.0175,3.72546 -1.19038,0.34649 v 4.87755 h 2.93046 v -17.7121 h 0.63312 v 17.7121 h 3.44037 v -17.71779 h -13.05597 v 17.51954 h -0.63349 v -17.51954 z m 8.96317,3.68224 a 1.3375784,1.3375784 0 0 1 1.33748,1.33747 1.3375784,1.3375784 0 0 1 -1.33748,1.33786 1.3375784,1.3375784 0 0 1 -1.3375,-1.33786 1.3375784,1.3375784 0 0 1 1.3375,-1.33747 z" />
    </a>
    <path
       id="path28841-9-9"
       style="fill:#111111;stroke-width:1.05657;stroke-linecap:square"
       d="m 364.05031,260.19441 a 1.0748419,1.0748419 0 0 0 1.07486,1.07485 1.0748419,1.0748419 0 0 0 1.07483,-1.07485 1.0748419,1.0748419 0 0 0 -1.07483,-1.07483 1.0748419,1.0748419 0 0 0 -1.07486,1.07483 z m 2.8823,3.27376 c 2.10115,1.59765 2.02565,4.10977 0.72172,5.54389 -0.65196,0.71706 -1.60566,1.1842 -2.68321,1.16749 -1.07751,-0.0168 -2.25107,-0.51805 -3.35207,-1.61761 l 0.74652,-0.74781 c 0.95183,0.95061 1.85585,1.29723 2.62183,1.30911 0.76597,0.0119 1.4216,-0.31177 1.88537,-0.82183 0.92751,-1.02014 1.10949,-2.70796 -0.57964,-3.99231 z m -1.48116,-0.62656 v 1.05657 h -3.01444 v -1.05657 z m 0.50353,-1.97307 0.0552,5.12601 -3.60435,0.0261 -1.53221,3.32396 -1.80646,-0.76922 0.41403,-0.97221 0.86234,0.36733 1.38363,-3.00153 3.21511,-0.0232 -0.0435,-4.06583 z" />
    <path
       id="path28841-9-9-3"
       style="fill:#111111;stroke-width:1.05657;stroke-linecap:square"
       d="m 363.92757,275.18726 a 1.0748419,1.0748419 0 0 0 1.07486,1.07485 1.0748419,1.0748419 0 0 0 1.07483,-1.07485 1.0748419,1.0748419 0 0 0 -1.07483,-1.07483 1.0748419,1.0748419 0 0 0 -1.07486,1.07483 z m 2.88229,3.27376 c 2.10116,1.59765 2.02565,4.10977 0.72172,5.54389 -0.65195,0.71706 -1.60566,1.1842 -2.6832,1.16749 -1.07751,-0.0168 -2.25108,-0.51805 -3.35207,-1.61761 l 0.74652,-0.74781 c 0.95183,0.9506 1.85585,1.29723 2.62182,1.30911 0.76598,0.0119 1.4216,-0.31177 1.88538,-0.82183 0.92751,-1.02014 1.10948,-2.70796 -0.57964,-3.99231 z m -1.48115,-0.62656 v 1.05657 h -3.01445 v -1.05657 z m 0.50353,-1.97307 0.0552,5.12601 -3.60435,0.0261 -1.53221,3.32396 -1.80646,-0.76922 0.41403,-0.97221 0.86234,0.36732 1.38362,-3.00152 3.21512,-0.0232 -0.0435,-4.06583 z" />
    <path
       id="path28841-9-9-3-2"
       style="fill:#111111;stroke-width:1.05657;stroke-linecap:square"
       d="m 363.73903,126.88087 a 1.0748419,1.0748419 0 0 0 1.07486,1.07485 1.0748419,1.0748419 0 0 0 1.07483,-1.07485 1.0748419,1.0748419 0 0 0 -1.07483,-1.07483 1.0748419,1.0748419 0 0 0 -1.07486,1.07483 z m 2.88229,3.27376 c 2.10116,1.59765 2.02565,4.10977 0.72172,5.54389 -0.65195,0.71706 -1.60566,1.1842 -2.6832,1.16749 -1.07751,-0.0168 -2.25108,-0.51805 -3.35207,-1.61761 l 0.74652,-0.74781 c 0.95183,0.9506 1.85585,1.29723 2.62182,1.30911 0.76598,0.0119 1.4216,-0.31177 1.88538,-0.82183 0.92751,-1.02014 1.10948,-2.70796 -0.57964,-3.99231 z m -1.48115,-0.62656 v 1.05657 h -3.01445 v -1.05657 z m 0.50353,-1.97307 0.0552,5.12601 -3.60435,0.0261 -1.53221,3.32396 -1.80646,-0.76922 0.41403,-0.97221 0.86234,0.36732 1.38362,-3.00152 3.21512,-0.0232 -0.0435,-4.06583 z" />
  </g>
</svg>
