<?xml version="1.0" encoding="UTF-8" standalone="no"?>
<svg
   xmlns:dc="http://purl.org/dc/elements/1.1/"
   xmlns:cc="http://creativecommons.org/ns#"
   xmlns:rdf="http://www.w3.org/1999/02/22-rdf-syntax-ns#"
   xmlns:svg="http://www.w3.org/2000/svg"
   xmlns="http://www.w3.org/2000/svg"
   xmlns:sodipodi="http://sodipodi.sourceforge.net/DTD/sodipodi-0.dtd"
   xmlns:inkscape="http://www.inkscape.org/namespaces/inkscape"
   width="400"
   height="400"
   viewBox="0 0 105.83333 105.83334"
   version="1.1"
   id="svg1156"
   inkscape:version="1.0.1 (3bc2e813f5, 2020-09-07)"
   sodipodi:docname="icon-mappoint.svg">
  <defs
     id="defs1150" />
  <sodipodi:namedview
     id="base"
     pagecolor="#ffffff"
     bordercolor="#666666"
     borderopacity="1.0"
     inkscape:pageopacity="0.0"
     inkscape:pageshadow="2"
     inkscape:zoom="0.35"
     inkscape:cx="400"
     inkscape:cy="560"
     inkscape:document-units="px"
     inkscape:current-layer="layer1"
     inkscape:document-rotation="0"
     showgrid="false"
     inkscape:pagecheckerboard="true"
     inkscape:showpageshadow="false"
     units="px"
     inkscape:window-width="1647"
     inkscape:window-height="1033"
     inkscape:window-x="255"
     inkscape:window-y="0"
     inkscape:window-maximized="0" />
  <metadata
     id="metadata1153">
    <rdf:RDF>
      <cc:Work
         rdf:about="">
        <dc:format>image/svg+xml</dc:format>
        <dc:type
           rdf:resource="http://purl.org/dc/dcmitype/StillImage" />
        <dc:title />
      </cc:Work>
    </rdf:RDF>
  </metadata>
  <g
     inkscape:label="Calque 1"
     inkscape:groupmode="layer"
     id="layer1">
    <path
       id="path930-3-6"
       style="fill:#ffffff;fill-opacity:0.997423;stroke:none;stroke-width:0.633468px;stroke-linecap:butt;stroke-linejoin:miter;stroke-opacity:1"
       inkscape:transform-center-x="0.33364328"
       inkscape:transform-center-y="14.023263"
       d="M 47.776336,5.1126734 C 29.477141,7.2586009 17.657344,21.184499 15.471647,40.231311 c -2.610732,22.750775 20.983364,65.417139 20.983364,65.417139 0,0 47.399973,-31.018939 52.222232,-56.11055 C 92.95805,27.263266 76.331561,7.2821398 58.588242,5.1749088 54.775123,4.7220273 51.16508,4.7152836 47.776336,5.1126734 Z m 0.919583,18.0729506 a 19.453925,19.453925 0 0 1 0.152087,-0.01967 19.453925,19.453925 0 0 1 21.788312,16.79668 A 19.453925,19.453925 0 0 1 53.839809,61.75214 19.453925,19.453925 0 0 1 32.050119,44.954439 19.453925,19.453925 0 0 1 48.695859,23.185637 Z" />
  </g>
</svg>
