<?xml version="1.0" encoding="UTF-8" standalone="no"?>
<svg
   width="100%"
   height="100%"
   viewBox="0 0 1800 1235"
   id="svg2"
   version="1.1"
   inkscape:version="1.1.2 (b8e25be833, 2022-02-05)"
   sodipodi:docname="kb-paritalie-f5.svg"
   xmlns:inkscape="http://www.inkscape.org/namespaces/inkscape"
   xmlns:sodipodi="http://sodipodi.sourceforge.net/DTD/sodipodi-0.dtd"
   xmlns:xlink="http://www.w3.org/1999/xlink"
   xmlns="http://www.w3.org/2000/svg"
   xmlns:svg="http://www.w3.org/2000/svg"
   xmlns:rdf="http://www.w3.org/1999/02/22-rdf-syntax-ns#"
   xmlns:cc="http://creativecommons.org/ns#"
   xmlns:dc="http://purl.org/dc/elements/1.1/">
  <defs
     id="defs4">
    <inkscape:path-effect
       effect="spiro"
       id="path-effect4985"
       is_visible="true"
       lpeversion="0" />
    <inkscape:path-effect
       effect="spiro"
       id="path-effect4967"
       is_visible="true"
       lpeversion="0" />
    <inkscape:path-effect
       effect="spiro"
       id="path-effect4963"
       is_visible="true"
       lpeversion="0" />
    <inkscape:path-effect
       effect="spiro"
       id="path-effect4959"
       is_visible="true"
       lpeversion="0" />
    <inkscape:path-effect
       effect="spiro"
       id="path-effect4955"
       is_visible="true"
       lpeversion="0" />
    <inkscape:path-effect
       effect="spiro"
       id="path-effect4951"
       is_visible="true"
       lpeversion="0" />
    <inkscape:path-effect
       effect="spiro"
       id="path-effect4947"
       is_visible="true"
       lpeversion="0" />
    <inkscape:path-effect
       effect="spiro"
       id="path-effect4943"
       is_visible="true"
       lpeversion="0" />
    <inkscape:path-effect
       effect="spiro"
       id="path-effect4939"
       is_visible="true"
       lpeversion="0" />
    <inkscape:path-effect
       effect="spiro"
       id="path-effect4935"
       is_visible="true"
       lpeversion="0" />
    <inkscape:path-effect
       effect="spiro"
       id="path-effect4931"
       is_visible="true"
       lpeversion="0" />
    <inkscape:path-effect
       effect="spiro"
       id="path-effect4927"
       is_visible="true"
       lpeversion="0" />
    <inkscape:path-effect
       effect="spiro"
       id="path-effect4923"
       is_visible="true"
       lpeversion="0" />
    <inkscape:path-effect
       effect="spiro"
       id="path-effect4919"
       is_visible="true"
       lpeversion="0" />
    <inkscape:path-effect
       effect="spiro"
       id="path-effect4915"
       is_visible="true"
       lpeversion="0" />
    <inkscape:path-effect
       effect="spiro"
       id="path-effect4911"
       is_visible="true"
       lpeversion="0" />
    <inkscape:path-effect
       effect="spiro"
       id="path-effect4907"
       is_visible="true"
       lpeversion="0" />
    <inkscape:path-effect
       effect="spiro"
       id="path-effect4903"
       is_visible="true"
       lpeversion="0" />
    <inkscape:path-effect
       effect="spiro"
       id="path-effect4899"
       is_visible="true"
       lpeversion="0" />
    <inkscape:path-effect
       effect="spiro"
       id="path-effect4895"
       is_visible="true"
       lpeversion="0" />
    <inkscape:path-effect
       effect="spiro"
       id="path-effect4891"
       is_visible="true"
       lpeversion="0" />
    <inkscape:path-effect
       effect="spiro"
       id="path-effect4887"
       is_visible="true"
       lpeversion="0" />
    <inkscape:path-effect
       effect="spiro"
       id="path-effect4883"
       is_visible="true"
       lpeversion="0" />
    <inkscape:path-effect
       effect="spiro"
       id="path-effect4879"
       is_visible="true"
       lpeversion="0" />
    <inkscape:path-effect
       effect="spiro"
       id="path-effect4875"
       is_visible="true"
       lpeversion="0" />
    <inkscape:path-effect
       effect="spiro"
       id="path-effect4871"
       is_visible="true"
       lpeversion="0" />
    <inkscape:path-effect
       effect="spiro"
       id="path-effect4867"
       is_visible="true"
       lpeversion="0" />
    <inkscape:path-effect
       effect="spiro"
       id="path-effect4863"
       is_visible="true"
       lpeversion="0" />
    <inkscape:path-effect
       effect="spiro"
       id="path-effect4229"
       is_visible="true"
       lpeversion="0" />
    <inkscape:path-effect
       effect="spiro"
       id="path-effect4225"
       is_visible="true"
       lpeversion="0" />
    <inkscape:path-effect
       effect="spiro"
       id="path-effect4221"
       is_visible="true"
       lpeversion="0" />
    <inkscape:path-effect
       effect="spiro"
       id="path-effect4302"
       is_visible="true"
       lpeversion="0" />
    <inkscape:path-effect
       effect="spiro"
       id="path-effect4294"
       is_visible="true"
       lpeversion="0" />
    <inkscape:path-effect
       effect="spiro"
       id="path-effect4290"
       is_visible="true"
       lpeversion="0" />
    <inkscape:path-effect
       effect="spiro"
       id="path-effect4286"
       is_visible="true"
       lpeversion="0" />
    <inkscape:path-effect
       effect="spiro"
       id="path-effect4282"
       is_visible="true"
       lpeversion="0" />
    <inkscape:path-effect
       effect="spiro"
       id="path-effect4278"
       is_visible="true"
       lpeversion="0" />
    <inkscape:path-effect
       effect="spiro"
       id="path-effect4274"
       is_visible="true"
       lpeversion="0" />
    <inkscape:path-effect
       effect="spiro"
       id="path-effect4270"
       is_visible="true"
       lpeversion="0" />
    <inkscape:path-effect
       effect="spiro"
       id="path-effect4266"
       is_visible="true"
       lpeversion="0" />
    <inkscape:path-effect
       effect="spiro"
       id="path-effect4262"
       is_visible="true"
       lpeversion="0" />
    <inkscape:path-effect
       effect="spiro"
       id="path-effect4258"
       is_visible="true"
       lpeversion="0" />
    <inkscape:path-effect
       effect="spiro"
       id="path-effect4254"
       is_visible="true"
       lpeversion="0" />
    <inkscape:path-effect
       effect="spiro"
       id="path-effect4250"
       is_visible="true"
       lpeversion="0" />
    <inkscape:path-effect
       effect="spiro"
       id="path-effect4246"
       is_visible="true"
       lpeversion="0" />
    <inkscape:path-effect
       effect="spiro"
       id="path-effect4242"
       is_visible="true"
       lpeversion="0" />
    <inkscape:path-effect
       effect="spiro"
       id="path-effect4238"
       is_visible="true"
       lpeversion="0" />
    <inkscape:path-effect
       effect="spiro"
       id="path-effect4234"
       is_visible="true"
       lpeversion="0" />
    <inkscape:path-effect
       effect="spiro"
       id="path-effect4230"
       is_visible="true"
       lpeversion="0" />
    <inkscape:path-effect
       effect="spiro"
       id="path-effect4226"
       is_visible="true"
       lpeversion="0" />
    <inkscape:path-effect
       effect="spiro"
       id="path-effect4222"
       is_visible="true"
       lpeversion="0" />
    <inkscape:path-effect
       effect="spiro"
       id="path-effect4215"
       is_visible="true"
       lpeversion="0" />
    <inkscape:path-effect
       effect="spiro"
       id="path-effect4211"
       is_visible="true"
       lpeversion="0" />
    <inkscape:path-effect
       effect="spiro"
       id="path-effect4207"
       is_visible="true"
       lpeversion="0" />
    <inkscape:path-effect
       effect="spiro"
       id="path-effect4203"
       is_visible="true"
       lpeversion="0" />
    <clipPath
       id="clip0">
      <rect
         id="rect5457"
         height="615"
         width="613"
         x="0"
         y="0" />
    </clipPath>
  </defs>
  <sodipodi:namedview
     id="base"
     pagecolor="#ffffff"
     bordercolor="#666666"
     borderopacity="1.0"
     inkscape:pageopacity="0.0"
     inkscape:pageshadow="2"
     inkscape:zoom="0.5876631"
     inkscape:cx="655.13727"
     inkscape:cy="518.15402"
     inkscape:document-units="px"
     inkscape:current-layer="layer1"
     showgrid="false"
     fit-margin-top="0"
     fit-margin-left="0"
     fit-margin-right="0"
     fit-margin-bottom="0"
     inkscape:window-width="1920"
     inkscape:window-height="1001"
     inkscape:window-x="-9"
     inkscape:window-y="-9"
     inkscape:window-maximized="1"
     inkscape:document-rotation="0"
     inkscape:pagecheckerboard="true"
     inkscape:showpageshadow="false" />
  <metadata
     id="metadata7">
    <rdf:RDF>
      <cc:Work
         rdf:about="">
        <dc:format>image/svg+xml</dc:format>
        <dc:type
           rdf:resource="http://purl.org/dc/dcmitype/StillImage" />
      </cc:Work>
    </rdf:RDF>
  </metadata>
  <g
     inkscape:label="Layer 1"
     inkscape:groupmode="layer"
     id="layer1"
     transform="translate(277.32144,102.28065)">
    <path
       style="fill:none;stroke:#000000;stroke-width:2;stroke-linecap:square;stroke-linejoin:miter;stroke-miterlimit:4;stroke-dasharray:none;stroke-opacity:1"
       d="m 849.10717,209.44107 h 43.2142 l 29.375,29.375 310.07843,-310.078303 h 124.3638 l 46.6508,46.6508 V 145.27797 l -287.2278,287.2278 m 0.7925,190.70009 287.0834,287.08343 v 146.47311 l -4.1028,4.1028 m -16.0582,16.0582 -27.8971,27.8971 H 1211.25 l -290.45763,-290.45751 -29.8996,29.8995 h -128.2143 l -28.9285,-28.9285 -290.3572,290.35711 h -142.1428 l -49.2857,-49.2857 H 75.53567 l -51.25,51.25 h -217.3215 V 739.26247 m 99.6429,0 169.6429,169.64292 h 175 l 287.1428,-287.14292 -28.5714,-28.5714 v -131.4828 l 29.3253,-29.3253 -284.4532,-284.4533 V 19.008867 l 52.2122,-52.2122 h 155.7529 l 270.8156,270.815603 28.4421,-28.4421 87.1909,0.2709"
       id="path910-0"
       sodipodi:nodetypes="cccccccccccccccccccccccccccccccccccccccc" />
    <path
       style="fill:none;stroke:#000000;stroke-width:2;stroke-linecap:butt;stroke-linejoin:miter;stroke-miterlimit:4;stroke-dasharray:none;stroke-opacity:1"
       d="m 251.96427,908.07649 -175.7143,0.8289 m -269.2858,-169.64292 v 368.39303 h 217.3215 l 51.25,-51.25 176.4286,-10e-5 49.2857,49.2857"
       id="path2723"
       sodipodi:nodetypes="cccccccc" />
    <path
       style="fill:none;stroke:#000000;stroke-width:2;stroke-linecap:butt;stroke-linejoin:miter;stroke-miterlimit:4;stroke-dasharray:none;stroke-opacity:1"
       d="m -193.03583,739.26247 0.7926,-416.7097 V -25.32244 l 223.7335,-1.6822 49.2046,49.20454 v 127.29585 l -173.0571,173.05702 -1.0307,416.7097"
       id="path1472"
       sodipodi:nodetypes="cccccccc" />
    <g
       id="g4314" />
    <path
       style="fill:none;stroke:#333333;stroke-width:6;stroke-linecap:butt;stroke-linejoin:miter;stroke-miterlimit:4;stroke-dasharray:none;stroke-opacity:1"
       d="m 849.82146,208.61221 h 43.2142 l 29.375,29.375 165.43774,-165.437634 h 124.3638 l 46.6508,46.650814 v 169.88942 l -142.5871,142.58708 30.4652,30.46519 V 592.7043 l -29.6727,29.67272 287.0834,287.0834 v 146.47318 l -48.0581,48.0581 H 1211.9643 L 921.50668,813.53408 891.60712,843.43363 H 763.39284 L 734.46427,814.50506 444.10713,1104.8622 H 301.96427 L 252.67856,1055.5765 251.96427,908.07649 539.10713,620.93363 510.5357,592.3622 V 460.87939 L 539.86104,431.55405 387.76548,278.85685 V 149.93613 l 52.21225,-52.212259 h 155.7529 L 734.18849,236.78336 762.6306,208.34125 h 41.66879"
       id="path910"
       sodipodi:nodetypes="cccccccccccccccccccccccccccccccccc" />
    <path
       style="fill:none;stroke:#000000;stroke-width:4;stroke-linecap:butt;stroke-linejoin:miter;stroke-miterlimit:4;stroke-dasharray:none;stroke-opacity:1"
       d="m 915.16745,500.78042 h 29.7995 l -0.004,-55.05332 -44.0679,-44.0679 h -97.606 m -22.39642,0 H 754.0443 l -43.75223,43.75223 v 41.98446 l -13.10041,13.10042 v 7.60771"
       id="path912"
       sodipodi:nodetypes="ccccccccccc" />
    <path
       style="fill:none;stroke:#000000;stroke-width:4;stroke-linecap:butt;stroke-linejoin:miter;stroke-opacity:1;stroke-miterlimit:4;stroke-dasharray:none"
       d="m 710.29207,487.39589 v 13.38453 h 10.92227"
       id="path914" />
    <path
       style="fill:none;stroke:#000000;stroke-width:4;stroke-linecap:butt;stroke-linejoin:miter;stroke-opacity:1;stroke-miterlimit:4;stroke-dasharray:none"
       d="m 937.16366,551.23822 h 7.7995 l 0,55.24272 -44.0679,44.0679 h -97.606 -49.24496 l -43.75223,-43.75223 v -41.98446 l -13.10041,-13.10042 v -7.60771"
       id="path912-7"
       sodipodi:nodetypes="cccccccccc" />
    <path
       style="fill:none;stroke:#000000;stroke-width:4;stroke-linecap:butt;stroke-linejoin:miter;stroke-opacity:1;stroke-miterlimit:4;stroke-dasharray:none"
       d="m 710.29207,564.81215 v -13.38453 h 10.92227"
       id="path914-2" />
    <path
       style="fill:none;stroke:#000000;stroke-width:4;stroke-linecap:butt;stroke-linejoin:miter;stroke-miterlimit:4;stroke-dasharray:none;stroke-opacity:1"
       d="M 860.71426,401.1122 V 501.54078"
       id="path937"
       sodipodi:nodetypes="cc" />
    <path
       style="fill:none;stroke:#000000;stroke-width:4;stroke-linecap:butt;stroke-linejoin:miter;stroke-opacity:1;stroke-miterlimit:4;stroke-dasharray:none"
       d="M 860.89286,437.3622 H 718.74998"
       id="path939" />
    <path
       style="fill:none;stroke:#000000;stroke-width:4;stroke-linecap:butt;stroke-linejoin:miter;stroke-miterlimit:4;stroke-dasharray:none;stroke-opacity:1"
       d="m 760.84549,436.28119 v 64.35715"
       id="path941"
       sodipodi:nodetypes="cc" />
    <path
       style="fill:none;stroke:#000000;stroke-width:4;stroke-linecap:butt;stroke-linejoin:miter;stroke-miterlimit:4;stroke-dasharray:none;stroke-opacity:1"
       d="m 810.91141,437.56894 v 63.10714"
       id="path943"
       sodipodi:nodetypes="cc" />
    <path
       style="fill:none;stroke:#000000;stroke-width:4;stroke-linecap:butt;stroke-linejoin:miter;stroke-opacity:1;stroke-miterlimit:4;stroke-dasharray:none"
       d="m 747.21434,500.78042 h 25.3929"
       id="path945"
       sodipodi:nodetypes="cc" />
    <path
       style="fill:none;stroke:#000000;stroke-width:4;stroke-linecap:butt;stroke-linejoin:miter;stroke-opacity:1;stroke-miterlimit:4;stroke-dasharray:none"
       d="m 798.60724,500.78042 h 23.3929"
       id="path945-7" />
    <path
       style="fill:none;stroke:#000000;stroke-width:4;stroke-linecap:butt;stroke-linejoin:miter;stroke-opacity:1;stroke-miterlimit:4;stroke-dasharray:none"
       d="m 848.00014,500.78042 h 41.3929"
       id="path945-7-7"
       sodipodi:nodetypes="cc" />
    <path
       style="fill:none;stroke:#000000;stroke-width:4;stroke-linecap:butt;stroke-linejoin:miter;stroke-opacity:1;stroke-miterlimit:4;stroke-dasharray:none"
       d="m 753.21434,551.42762 h 78.28562"
       id="path977"
       sodipodi:nodetypes="cc" />
    <path
       style="fill:none;stroke:#000000;stroke-width:4;stroke-linecap:butt;stroke-linejoin:miter;stroke-opacity:1;stroke-miterlimit:4;stroke-dasharray:none"
       d="m 855.49996,551.42762 h 60"
       id="path979"
       sodipodi:nodetypes="cc" />
    <path
       style="fill:none;stroke:#000000;stroke-width:4;stroke-linecap:butt;stroke-linejoin:miter;stroke-miterlimit:4;stroke-dasharray:none;stroke-opacity:1"
       d="m 944.96316,501.32832 -0.24667,10.20993"
       id="path1129"
       sodipodi:nodetypes="cc" />
    <path
       style="fill:none;stroke:#000000;stroke-width:4;stroke-linecap:butt;stroke-linejoin:miter;stroke-miterlimit:4;stroke-dasharray:none;stroke-opacity:1"
       d="m 944.96316,551.23822 -0.11014,-7.65745"
       id="path1131"
       sodipodi:nodetypes="cc" />
    <path
       style="fill:none;stroke:#000000;stroke-width:4;stroke-linecap:butt;stroke-linejoin:miter;stroke-opacity:1;stroke-miterlimit:4;stroke-dasharray:none"
       d="m 860.35716,552.3622 v 97.67857"
       id="path1135" />
    <path
       style="fill:none;stroke:#000000;stroke-width:4;stroke-linecap:butt;stroke-linejoin:miter;stroke-opacity:1;stroke-miterlimit:4;stroke-dasharray:none"
       d="m 794.10716,552.00506 28.6607,28.66072 v 39.37499 l -30.2232,30.22322"
       id="path1137" />
    <path
       style="fill:none;stroke:#000000;stroke-width:1px;stroke-linecap:butt;stroke-linejoin:miter;stroke-opacity:1"
       d="m 697.19166,508.10402 v 36"
       id="path1213" />
    <path
       style="fill:none;stroke:#000000;stroke-width:1px;stroke-linecap:butt;stroke-linejoin:miter;stroke-opacity:1"
       d="m 721.21434,551.42762 h 32.00002"
       id="path1215" />
    <path
       style="fill:none;stroke:#000000;stroke-width:1px;stroke-linecap:butt;stroke-linejoin:miter;stroke-opacity:1"
       d="M 747.21436,500.78042 H 721.21434"
       id="path1217" />
    <path
       style="fill:none;stroke:#000000;stroke-width:1px;stroke-linecap:butt;stroke-linejoin:miter;stroke-opacity:1"
       d="m 772.60726,500.78042 h 26"
       id="path1219" />
    <path
       style="fill:none;stroke:#000000;stroke-width:1px;stroke-linecap:butt;stroke-linejoin:miter;stroke-opacity:1"
       d="m 822.00016,500.78042 h 26"
       id="path1221" />
    <path
       style="fill:none;stroke:#000000;stroke-width:1px;stroke-linecap:butt;stroke-linejoin:miter;stroke-opacity:1"
       d="m 889.39306,500.78042 h 25.77439"
       id="path1223"
       sodipodi:nodetypes="cc" />
    <path
       style="fill:none;stroke:#000000;stroke-width:1px;stroke-linecap:butt;stroke-linejoin:miter;stroke-opacity:1"
       d="m 803.28926,401.6592 h -22.3964"
       id="path1225" />
    <path
       style="fill:none;stroke:#000000;stroke-width:1px;stroke-linecap:butt;stroke-linejoin:miter;stroke-opacity:1"
       d="m 915.49996,551.42762 21.6637,-0.1894"
       id="path1227" />
    <path
       style="fill:none;stroke:#000000;stroke-width:1px;stroke-linecap:butt;stroke-linejoin:miter;stroke-opacity:1"
       d="m 944.71649,511.53825 0.13653,32.04252"
       id="path1231"
       sodipodi:nodetypes="cc" />
    <path
       style="fill:none;stroke:#000000;stroke-width:1px;stroke-linecap:butt;stroke-linejoin:miter;stroke-opacity:1"
       d="m 855.49996,551.42762 h -24"
       id="path1233" />
    <circle
       style="fill:#000000;fill-opacity:1;stroke:#000000;stroke-width:4;stroke-linecap:square;stroke-linejoin:round;stroke-miterlimit:4;stroke-dasharray:none;paint-order:markers stroke fill"
       id="path1235"
       cx="775.13123"
       cy="599.90161"
       r="6.6922607" />
    <path
       style="fill:none;stroke:#000000;stroke-width:1px;stroke-linecap:butt;stroke-linejoin:miter;stroke-opacity:1"
       d="m 758.71626,551.28804 15.026,43.31029"
       id="path1237" />
    <path
       style="fill:none;stroke:#000000;stroke-width:1px;stroke-linecap:butt;stroke-linejoin:miter;stroke-opacity:1"
       d="m 774.24736,552.17193 0.7576,46.21448 16.41499,-46.08821"
       id="path1239" />
    <path
       style="fill:none;stroke:#000000;stroke-width:1px;stroke-linecap:butt;stroke-linejoin:miter;stroke-opacity:1"
       d="m 803.41546,562.77853 -26.95841,35.92355 36.04983,-27.46352"
       id="path1241"
       sodipodi:nodetypes="ccc" />
    <path
       style="fill:none;stroke:#000000;stroke-width:1px;stroke-linecap:butt;stroke-linejoin:miter;stroke-opacity:1"
       d="m 822.60836,585.38069 -48.14541,15.26062 47.66068,-0.82148"
       id="path1243"
       sodipodi:nodetypes="ccc" />
    <path
       style="fill:none;stroke:#000000;stroke-width:1px;stroke-linecap:butt;stroke-linejoin:miter;stroke-opacity:1"
       d="m 822.48216,616.19034 -47.6607,-16.72992"
       id="path1245" />
    <path
       style="fill:none;stroke:#000000;stroke-width:1px;stroke-linecap:butt;stroke-linejoin:miter;stroke-opacity:1"
       d="m 813.13826,628.18591 -35.9867,-26.89532"
       id="path1247" />
    <path
       style="fill:none;stroke:#000000;stroke-width:1px;stroke-linecap:butt;stroke-linejoin:miter;stroke-opacity:1"
       d="m 804.04686,639.42385 c -0.7576,-1.13642 -26.8953,-38.13326 -26.8953,-38.13326"
       id="path1249" />
    <path
       style="fill:none;stroke:#000000;stroke-width:1px;stroke-linecap:butt;stroke-linejoin:miter;stroke-opacity:1"
       d="m 792.54466,650.26399 -15.7719,-46.19548"
       id="path1251" />
    <path
       style="fill:none;stroke:#000000;stroke-width:1px;stroke-linecap:butt;stroke-linejoin:miter;stroke-opacity:1"
       d="m 775.38376,650.53553 -1.0101,-48.10851"
       id="path1253" />
    <path
       style="fill:none;stroke:#000000;stroke-width:1px;stroke-linecap:butt;stroke-linejoin:miter;stroke-opacity:1"
       d="m 759.60016,651.16688 c 0.3788,-1.13643 14.7735,-48.73986 14.7735,-48.73986"
       id="path1255" />
    <path
       style="fill:none;stroke:#000000;stroke-width:1px;stroke-linecap:butt;stroke-linejoin:miter;stroke-opacity:1"
       d="m 744.44786,641.06535 c 1.2627,-1.89404 29.9258,-38.63833 29.9258,-38.63833"
       id="path1257" />
    <path
       style="fill:none;stroke:#000000;stroke-width:1px;stroke-linecap:butt;stroke-linejoin:miter;stroke-opacity:1"
       d="m 734.22006,630.96382 c 0.6313,-0.50507 40.6014,-31.5034 40.6014,-31.5034"
       id="path1259" />
    <text
       xml:space="preserve"
       style="font-size:17.7774px;line-height:1.25;font-family:Bahagia;-inkscape-font-specification:Bahagia;stroke-width:0.555543"
       x="868.85101"
       y="463.82797"
       id="text1809"><tspan
         sodipodi:role="line"
         id="tspan1807"
         x="868.85101"
         y="463.82797"
         style="font-style:italic;font-variant:normal;font-weight:normal;font-stretch:normal;font-size:17.7774px;font-family:'Atkinson Hyperlegible';-inkscape-font-specification:'Atkinson Hyperlegible Italic';stroke-width:0.555543">Toilettes</tspan></text>
    <text
       xml:space="preserve"
       style="font-size:17.7774px;line-height:1.25;font-family:Bahagia;-inkscape-font-specification:Bahagia;stroke-width:0.555543"
       x="868.83228"
       y="597.65173"
       id="text1809-2"><tspan
         sodipodi:role="line"
         id="tspan1807-5"
         x="868.83228"
         y="597.65173"
         style="font-style:italic;font-variant:normal;font-weight:normal;font-stretch:normal;font-size:17.7774px;font-family:'Atkinson Hyperlegible';-inkscape-font-specification:'Atkinson Hyperlegible Italic';stroke-width:0.555543">Toilettes</tspan></text>
    <path
       style="fill:none;stroke:#000000;stroke-width:6;stroke-linecap:butt;stroke-linejoin:miter;stroke-opacity:1;stroke-miterlimit:4;stroke-dasharray:none"
       d="m 763.39286,843.43363 h 128.2143 L 1146.7411,592.7043 V 462.14208 L 893.03566,208.61221 762.63056,208.34125 510.5357,460.87939 V 592.3622 Z"
       id="path1111" />
    <path
       style="fill:none;stroke:#000000;stroke-width:4;stroke-linecap:butt;stroke-linejoin:miter;stroke-miterlimit:4;stroke-dasharray:none;stroke-opacity:1"
       d="m 985.30676,753.65194 -67.4281,-67.42809 5.9558,-5.95579 m 14.4641,-14.46407 43.8176,-43.81763 V 598.3759 m 0,-22.54694 V 565.61903 L 1116.0152,431.72004"
       id="path1119"
       sodipodi:nodetypes="ccccccccc" />
    <path
       style="fill:none;stroke:#000000;stroke-width:4;stroke-linecap:butt;stroke-linejoin:miter;stroke-opacity:1;stroke-miterlimit:4;stroke-dasharray:none"
       d="m 982.75426,609.43666 72.95854,72.95846"
       id="path1121" />
    <path
       style="fill:none;stroke:#000000;stroke-width:4;stroke-linecap:butt;stroke-linejoin:miter;stroke-miterlimit:4;stroke-dasharray:none;stroke-opacity:1"
       d="m 945.18256,603.12581 h 4.2114 m 27.4796,0 h 5.6098"
       id="path1123"
       sodipodi:nodetypes="cccc" />
    <path
       style="fill:none;stroke:#000000;stroke-width:1px;stroke-linecap:butt;stroke-linejoin:miter;stroke-opacity:1"
       d="m 923.83446,680.26806 14.4641,-14.46407"
       id="path1130" />
    <path
       style="fill:none;stroke:#000000;stroke-width:1px;stroke-linecap:butt;stroke-linejoin:miter;stroke-opacity:1"
       d="m 976.87356,603.12581 h -27.4796"
       id="path1132" />
    <path
       style="fill:none;stroke:#000000;stroke-width:1px;stroke-linecap:butt;stroke-linejoin:miter;stroke-opacity:1"
       d="M 982.11616,598.3759 V 575.82896"
       id="path1134" />
    <path
       style="fill:none;stroke:#000000;stroke-width:4;stroke-linecap:butt;stroke-linejoin:miter;stroke-miterlimit:4;stroke-dasharray:none;stroke-opacity:1"
       d="m 1026.4021,523.10956 -42.11384,-42.11382 v -13.23577 m 0,-24.66667 v -12.33333 l -7.6707,-7.67073 m -16.3944,-16.39431 -51.439,-51.43902 h -18.0488 l -6.7682,-6.76829 m -16.3944,-16.39431 -22.4105,-22.41057 -4.061,4.06098 m -14.7398,14.73983 -38.3537,38.35366 h -10.378 m -23.1626,0 h -20.7561 l -54.07117,54.07113 m -17.44716,17.44716 -57.00406,57.00406 -65.05081,-65.05081"
       id="path1136"
       sodipodi:nodetypes="cccccccccccccccccccccc" />
    <path
       style="fill:none;stroke:#000000;stroke-width:4;stroke-linecap:butt;stroke-linejoin:miter;stroke-opacity:1;stroke-miterlimit:4;stroke-dasharray:none"
       d="m 984.28826,430.75997 65.59614,-65.59612"
       id="path1138" />
    <path
       style="fill:none;stroke:#000000;stroke-width:4;stroke-linecap:butt;stroke-linejoin:miter;stroke-opacity:1;stroke-miterlimit:4;stroke-dasharray:none"
       d="m 981.05266,295.05585 -66.1519,66.15185"
       id="path1140" />
    <path
       style="fill:none;stroke:#000000;stroke-width:1px;stroke-linecap:butt;stroke-linejoin:miter;stroke-opacity:1"
       d="M 984.28826,467.75997 V 443.0933"
       id="path1142" />
    <path
       style="fill:none;stroke:#000000;stroke-width:1px;stroke-linecap:butt;stroke-linejoin:miter;stroke-opacity:1"
       d="m 976.61756,423.08924 -16.3944,-16.39431"
       id="path1144" />
    <path
       style="fill:none;stroke:#000000;stroke-width:1px;stroke-linecap:butt;stroke-linejoin:miter;stroke-opacity:1"
       d="m 883.96716,348.48762 -16.3944,-16.39431"
       id="path1146" />
    <path
       style="fill:none;stroke:#000000;stroke-width:1px;stroke-linecap:butt;stroke-linejoin:miter;stroke-opacity:1"
       d="m 841.10126,313.74372 -14.7398,14.73983"
       id="path1148" />
    <path
       style="fill:none;stroke:#000000;stroke-width:4;stroke-linecap:butt;stroke-linejoin:miter;stroke-opacity:1;stroke-miterlimit:4;stroke-dasharray:none"
       d="m 729.65006,241.39819 91.9736,91.97357"
       id="path1150" />
    <path
       style="fill:none;stroke:#000000;stroke-width:1px;stroke-linecap:butt;stroke-linejoin:miter;stroke-opacity:1"
       d="m 777.62976,366.83721 h -23.1626"
       id="path1152" />
    <path
       style="fill:none;stroke:#000000;stroke-width:1px;stroke-linecap:butt;stroke-linejoin:miter;stroke-opacity:1"
       d="m 662.19273,438.3555 17.44716,-17.44716"
       id="path1154" />
    <path
       style="fill:none;stroke:#000000;stroke-width:4;stroke-linecap:butt;stroke-linejoin:miter;stroke-opacity:1;stroke-miterlimit:4;stroke-dasharray:none"
       d="m 619.7029,351.04453 65.42682,65.42682"
       id="path1156" />
    <a
       id="a7790"
       xlink:href="kb-paritalie-f1.svg"
       transform="matrix(0.5834375,0,0,0.5834375,578.8622,413.32943)"
       xlink:type="icon"
       style="display:inline">
      <path
         id="rect1968-4-8-75-3-0"
         style="fill:#222222;fill-opacity:1;stroke:none;stroke-width:3.81228;stroke-linecap:round;stroke-linejoin:round;stroke-miterlimit:4;stroke-dasharray:none;stroke-opacity:1;paint-order:markers stroke fill"
         class="icon-stairs"
         d="m 412.02733,64.604861 c -3.97674,0 -7.17773,3.20098 -7.17773,7.177734 v 53.335935 c 0,3.97676 3.20099,7.17969 7.17773,7.17969 h 3.78907 V 83.450564 h 47.08984 v 48.847656 h 5.16602 c 3.97674,0 7.17773,-3.20293 7.17773,-7.17969 V 71.782595 c 0,-3.976754 -3.20099,-7.177734 -7.17773,-7.177734 z m 29.99219,5.800781 11.4375,0.0332 -5.76758,6.771484 z m -11.66015,0.0332 5.76757,6.771484 -11.43945,0.0332 z m 19.1914,22.146484 a 3.9099728,3.9099728 0 0 0 -3.91015,3.910157 3.9099728,3.9099728 0 0 0 3.91015,3.910157 3.9099728,3.9099728 0 0 0 3.91016,-3.910157 3.9099728,3.9099728 0 0 0 -3.91016,-3.910157 z m -21.04492,0.152344 a 3.9099728,3.9099728 0 0 0 -3.91016,3.910156 3.9099728,3.9099728 0 0 0 3.91016,3.910164 3.9099728,3.9099728 0 0 0 3.91016,-3.910164 3.9099728,3.9099728 0 0 0 -3.91016,-3.910156 z m 20.72461,9.23633 c -3.86297,-0.005 -7.80274,2.64067 -7.80274,5.66992 v 10.35547 l 3.52735,1.38281 v 12.91602 h 8.75586 v -12.94141 l 3.47851,-1.01367 0.0508,-10.89062 c 0.0137,-2.9451 -3.61861,-5.47247 -8.00976,-5.47852 z m -21.04492,0.15234 c -3.86298,-0.005 -7.80274,2.64064 -7.80274,5.66993 v 10.35547 l 3.52735,1.38281 v 12.76367 h 8.75586 v -12.78906 l 3.47851,-1.01367 0.0508,-10.89063 c 0.0137,-2.9451 -3.61861,-5.47246 -8.00976,-5.47852 z" />
    </a>
    <a
       id="a7790-0"
       xlink:href="kb-paritalie-f1.svg"
       transform="matrix(0.5834375,0,0,0.5834375,529.06556,413.61408)"
       xlink:type="icon"
       style="display:inline">
      <path
         id="rect1968-4-8-75-3-0-7"
         style="fill:#222222;fill-opacity:1;stroke:none;stroke-width:3.81228;stroke-linecap:round;stroke-linejoin:round;stroke-miterlimit:4;stroke-dasharray:none;stroke-opacity:1;paint-order:markers stroke fill"
         class="icon-stairs"
         d="m 412.02733,64.604861 c -3.97674,0 -7.17773,3.20098 -7.17773,7.177734 v 53.335935 c 0,3.97676 3.20099,7.17969 7.17773,7.17969 h 3.78907 V 83.450564 h 47.08984 v 48.847656 h 5.16602 c 3.97674,0 7.17773,-3.20293 7.17773,-7.17969 V 71.782595 c 0,-3.976754 -3.20099,-7.177734 -7.17773,-7.177734 z m 29.99219,5.800781 11.4375,0.0332 -5.76758,6.771484 z m -11.66015,0.0332 5.76757,6.771484 -11.43945,0.0332 z m 19.1914,22.146484 a 3.9099728,3.9099728 0 0 0 -3.91015,3.910157 3.9099728,3.9099728 0 0 0 3.91015,3.910157 3.9099728,3.9099728 0 0 0 3.91016,-3.910157 3.9099728,3.9099728 0 0 0 -3.91016,-3.910157 z m -21.04492,0.152344 a 3.9099728,3.9099728 0 0 0 -3.91016,3.910156 3.9099728,3.9099728 0 0 0 3.91016,3.910164 3.9099728,3.9099728 0 0 0 3.91016,-3.910164 3.9099728,3.9099728 0 0 0 -3.91016,-3.910156 z m 20.72461,9.23633 c -3.86297,-0.005 -7.80274,2.64067 -7.80274,5.66992 v 10.35547 l 3.52735,1.38281 v 12.91602 h 8.75586 v -12.94141 l 3.47851,-1.01367 0.0508,-10.89062 c 0.0137,-2.9451 -3.61861,-5.47247 -8.00976,-5.47852 z m -21.04492,0.15234 c -3.86298,-0.005 -7.80274,2.64064 -7.80274,5.66993 v 10.35547 l 3.52735,1.38281 v 12.76367 h 8.75586 v -12.78906 l 3.47851,-1.01367 0.0508,-10.89063 c 0.0137,-2.9451 -3.61861,-5.47246 -8.00976,-5.47852 z" />
    </a>
    <a
       id="a7790-6"
       xlink:href="kb-paritalie-f1.svg"
       transform="matrix(0.5834375,0,0,0.5834375,478.74221,413.66585)"
       xlink:type="icon"
       style="display:inline">
      <path
         id="rect1968-4-8-75-3-0-0"
         style="fill:#222222;fill-opacity:1;stroke:none;stroke-width:3.81228;stroke-linecap:round;stroke-linejoin:round;stroke-miterlimit:4;stroke-dasharray:none;stroke-opacity:1;paint-order:markers stroke fill"
         class="icon-stairs"
         d="m 412.02733,64.604861 c -3.97674,0 -7.17773,3.20098 -7.17773,7.177734 v 53.335935 c 0,3.97676 3.20099,7.17969 7.17773,7.17969 h 3.78907 V 83.450564 h 47.08984 v 48.847656 h 5.16602 c 3.97674,0 7.17773,-3.20293 7.17773,-7.17969 V 71.782595 c 0,-3.976754 -3.20099,-7.177734 -7.17773,-7.177734 z m 29.99219,5.800781 11.4375,0.0332 -5.76758,6.771484 z m -11.66015,0.0332 5.76757,6.771484 -11.43945,0.0332 z m 19.1914,22.146484 a 3.9099728,3.9099728 0 0 0 -3.91015,3.910157 3.9099728,3.9099728 0 0 0 3.91015,3.910157 3.9099728,3.9099728 0 0 0 3.91016,-3.910157 3.9099728,3.9099728 0 0 0 -3.91016,-3.910157 z m -21.04492,0.152344 a 3.9099728,3.9099728 0 0 0 -3.91016,3.910156 3.9099728,3.9099728 0 0 0 3.91016,3.910164 3.9099728,3.9099728 0 0 0 3.91016,-3.910164 3.9099728,3.9099728 0 0 0 -3.91016,-3.910156 z m 20.72461,9.23633 c -3.86297,-0.005 -7.80274,2.64067 -7.80274,5.66992 v 10.35547 l 3.52735,1.38281 v 12.91602 h 8.75586 v -12.94141 l 3.47851,-1.01367 0.0508,-10.89062 c 0.0137,-2.9451 -3.61861,-5.47247 -8.00976,-5.47852 z m -21.04492,0.15234 c -3.86298,-0.005 -7.80274,2.64064 -7.80274,5.66993 v 10.35547 l 3.52735,1.38281 v 12.76367 h 8.75586 v -12.78906 l 3.47851,-1.01367 0.0508,-10.89063 c 0.0137,-2.9451 -3.61861,-5.47246 -8.00976,-5.47852 z" />
    </a>
    <a
       id="a3836-6-59"
       xlink:href="kb-paritalie-f4.svg"
       xlink:type="icon"
       transform="matrix(0.58460785,0,0,0.58460785,809.98153,168.7779)">
      <path
         id="rect1968-4-8-75-3-7-1"
         d="m -151.09529,734.71167 c -3.97676,0 -7.17773,-3.20097 -7.17773,-7.17773 v -53.33593 c 0,-3.97676 3.20097,-7.17969 7.17773,-7.17969 h 56.044923 c 3.97676,0 7.17774,3.20293 7.17774,7.17969 v 53.33593 c 0,3.97676 -3.20098,7.17773 -7.17774,7.17773 z m 46.68555,-10.36914 4.873043,-0.0606 -0.16601,-13.26952 -10.630863,-0.13477 -0.18555,-11.10546 h -10.95703 v -11.07422 h -10.90625 l -0.0254,-10.95508 -13.02148,-0.16602 -0.0625,4.8711 8.22265,0.10547 0.0254,11.01758 h 10.89453 v 11.07422 h 11.03907 l 0.18359,11.04297 10.61133,0.13671 z m -33.22266,-0.49609 h 11.01758 v -11.01757 a 1.7656471,1.7656471 0 0 0 -1.76563,-1.76562 1.7656471,1.7656471 0 0 0 -1.76562,1.76562 v 4.96289 l -12.0586,-12.16992 a 1.7656471,1.7656471 0 0 0 -1.24609,-0.52344 1.7656471,1.7656471 0 0 0 -1.25,0.51172 1.7656471,1.7656471 0 0 0 -0.0117,2.49609 l 12.09571,12.20899 h -5.01563 a 1.7656471,1.7656471 0 0 0 -1.76562,1.76561 1.7656471,1.7656471 0 0 0 1.76562,1.76563 z"
         class="icon-stairs"
         style="display:inline;fill:#222222;fill-opacity:1;stroke:none;stroke-width:3.81228;stroke-linecap:round;stroke-linejoin:round;stroke-miterlimit:4;stroke-dasharray:none;stroke-opacity:1;paint-order:markers stroke fill" />
    </a>
    <a
       id="a6829"
       xlink:href="metalab"
       xlink:type="room">
      <text
         xml:space="preserve"
         style="font-style:normal;font-weight:normal;font-size:17.3333px;line-height:1.25;font-family:sans-serif;fill:#000000;fill-opacity:1;stroke:none"
         x="448.43457"
         y="869.3645"
         id="text4299"><tspan
           sodipodi:role="line"
           id="tspan4297"
           x="448.43457"
           y="869.3645"
           style="font-style:normal;font-variant:normal;font-weight:bold;font-stretch:normal;font-size:17.3333px;font-family:'Atkinson Hyperlegible';-inkscape-font-specification:'Atkinson Hyperlegible Bold'">METALAB</tspan></text>
    </a>
    <a
       id="a6678"
       xlink:href="teaching-lab"
       xlink:type="room"
       transform="translate(-2)">
      <text
         xml:space="preserve"
         style="font-style:normal;font-weight:normal;font-size:17.3333px;line-height:1.25;font-family:sans-serif;fill:#000000;fill-opacity:1;stroke:none"
         x="1061.3347"
         y="231.07732"
         id="text4299-2"><tspan
           sodipodi:role="line"
           id="tspan4297-7"
           x="1061.3347"
           y="231.07732"
           style="font-style:normal;font-variant:normal;font-weight:bold;font-stretch:normal;font-size:17.3333px;font-family:'Atkinson Hyperlegible';-inkscape-font-specification:'Atkinson Hyperlegible Bold'">Teaching Lab</tspan></text>
    </a>
  </g>
</svg>
